<?xml version="1.0" standalone="no"?>
<!DOCTYPE svg PUBLIC "-//W3C//DTD SVG 1.1//EN" "http://www.w3.org/Graphics/SVG/1.1/DTD/svg11.dtd" >
<svg xmlns="http://www.w3.org/2000/svg" width="100%" height="100%">
<metadata>
Created by FontXChange 20110222 at Mon Oct 14 15:12:05 2013
 By James Beall
2003 T.26 Digital Type Foundry www.t26.com PSID#5134271 designer: Anuthin Wongsunkakon
</metadata>
<defs>
<font id="Carbon-Regular" horiz-adv-x="570" >
  <font-face 
    font-family="Carbon"
    font-weight="450"
    font-stretch="normal"
    units-per-em="1000"
    panose-1="2 0 5 6 3 0 0 2 0 3"
    ascent="800"
    descent="-200"
    x-height="410"
    cap-height="580"
    bbox="-5 -200 885 801"
    underline-thickness="20"
    underline-position="-113"
    stemh="67"
    stemv="74"
    unicode-range="U+0020-FB02"
  />
<missing-glyph horiz-adv-x="1000" 
 />
    <glyph glyph-name=".notdef" horiz-adv-x="1000" 
 />
    <glyph glyph-name="eth" unicode="&#xf0;" horiz-adv-x="543" 
d="M488 531l-52 -45c27 -39 43 -88 43 -144v-103v-92c0 -88 -63 -147 -149 -147h-123c-73 0 -127 54 -127 127v35c0 73 55 115 127 127l202 32v30c0 33 -9 63 -26 89l-57 -50l-44 49l55 47c-24 17 -53 26 -84 26h-61v68h64c51 0 98 -17 136 -46l53 46zM409 141v112l-209 -32
c-27 -4 -50 -26 -50 -53v-47c0 -27 22 -53 50 -53h137c37 0 72 34 72 73z" />
    <glyph glyph-name="Lslash" unicode="&#x141;" horiz-adv-x="484" 
d="M424 0h-334v255h-40v70h40v255h74v-255h142v-70h-142v-187h260v-68z" />
    <glyph glyph-name="lslash" unicode="&#x142;" horiz-adv-x="375" 
d="M320 0h-240v64h85v191h-85v70h85v192h-85v63h155v-255h85v-70h-85v-191h85v-64z" />
    <glyph glyph-name="Scaron" unicode="&#x160;" horiz-adv-x="548" 
d="M478 125c0 -73 -53 -127 -127 -127h-154c-73 0 -127 54 -127 127v24h70v-30c0 -27 22 -53 50 -53h168c28 0 50 26 50 53v80c0 27 -21 52 -50 53l-157 5c-73 2 -127 54 -127 127v69c0 73 54 127 127 127h142c74 0 127 -54 127 -127v-25h-70v31c0 27 -22 53 -50 53h-156
c-28 0 -50 -26 -50 -53v-81c0 -27 22 -52 50 -53l157 -4c72 -2 127 -54 127 -127v-69zM394 733l-100 -98h-45l-100 98l40 26l79 -73h6l79 73z" />
    <glyph glyph-name="scaron" unicode="&#x161;" horiz-adv-x="516" 
d="M451 122c0 -66 -51 -122 -127 -122h-229v68h236c27 0 50 22 50 50c0 34 -28 48 -54 49l-129 4c-77 3 -133 51 -133 115c0 66 51 124 127 124h224v-68h-231c-27 0 -50 -24 -50 -52c0 -34 34 -50 57 -51l133 -3c74 -2 126 -54 126 -114zM378 567l-100 -98h-45l-100 98
l40 26l79 -73h6l79 73z" />
    <glyph glyph-name="Yacute" unicode="&#xdd;" horiz-adv-x="564" 
d="M484 432c0 -40 -7 -61 -33 -88l-133 -137v-207h-72v207l-133 137c-26 27 -33 48 -33 88v148h70v-144c0 -24 1 -31 17 -48l107 -115h14l108 115c16 17 17 24 17 48v144h71v-148zM361 801l-68 -150h-64l68 150h64z" />
    <glyph glyph-name="yacute" unicode="&#xfd;" horiz-adv-x="544" 
d="M464 39c0 -73 -53 -127 -127 -127h-173v69h180c28 0 50 23 50 50v37h-187c-73 0 -127 54 -127 127v215h70v-223c0 -27 22 -50 50 -50h194v273h70v-371zM367 617l-68 -150h-64l68 150h64z" />
    <glyph glyph-name="Thorn" unicode="&#xde;" horiz-adv-x="542" 
d="M472 382c0 -73 -53 -127 -127 -127h-195v-255h-70v695h70v-115h195c74 0 127 -54 127 -127v-71zM402 375v86c0 27 -22 53 -50 53h-202v-192h202c28 0 50 26 50 53z" />
    <glyph glyph-name="thorn" unicode="&#xfe;" horiz-adv-x="545" 
d="M465 195c0 -73 -54 -127 -128 -127h-187v-156h-70v668h70v-170h187c74 0 128 -54 128 -127v-88zM392 186v106c0 28 -22 50 -50 50h-192v-206h192c28 0 50 22 50 50z" />
    <glyph glyph-name="Zcaron" unicode="&#x17d;" horiz-adv-x="552" 
d="M472 0h-392v58l295 454h-295v68h392v-58l-295 -454h295v-68zM406 733l-100 -98h-45l-100 98l40 26l79 -73h6l79 73z" />
    <glyph glyph-name="zcaron" unicode="&#x17e;" horiz-adv-x="529" 
d="M449 0h-369v58l268 288h-268v64h369v-58l-267 -288h267v-64zM395 567l-100 -98h-45l-100 98l40 26l79 -73h6l79 73z" />
    <glyph glyph-name="brokenbar" unicode="&#xa6;" horiz-adv-x="230" 
d="M150 370h-70v349h70v-349zM150 -114h-70v349h70v-349z" />
    <glyph glyph-name="minus" unicode="&#x2212;" horiz-adv-x="479" 
d="M399 257h-319v66h319v-66z" />
    <glyph glyph-name="multiply" unicode="&#xd7;" horiz-adv-x="523" 
d="M443 159l-50 -49l-131 131l-133 -132l-49 49l132 133l-130 130l50 49l130 -130l130 130l49 -49l-130 -130z" />
    <glyph glyph-name="space" unicode=" " horiz-adv-x="350" 
 />
    <glyph glyph-name="exclam" unicode="!" horiz-adv-x="276" 
d="M191 437l-18 -269h-70l-18 269v143h106v-143zM181 0h-88v88h88v-88z" />
    <glyph glyph-name="quotedbl" unicode="&#x22;" horiz-adv-x="405" 
d="M325 410h-70v170h70v-170zM150 410h-70v170h70v-170z" />
    <glyph glyph-name="numbersign" unicode="#" horiz-adv-x="602" 
d="M522 410l-7 -64h-86l-10 -114h86l-7 -64h-86l-17 -168h-66l17 168h-116l-17 -168h-66l17 168h-84l7 64h84l10 114h-84l7 64h84l16 170h66l-16 -170h116l16 170h66l-16 -170h86zM363 346h-116l-10 -114h116z" />
    <glyph glyph-name="dollar" unicode="$" horiz-adv-x="546" 
d="M466 207c0 -66 -51 -122 -127 -122h-29v-173h-54v173h-146v68h236c27 0 50 21 50 50c0 34 -28 48 -54 49l-129 4c-77 3 -133 51 -133 115c0 66 51 124 127 124h49v165h54v-165h121v-68h-231c-27 0 -50 -24 -50 -52c0 -34 34 -50 57 -51l133 -3c74 -2 126 -54 126 -114z
" />
    <glyph glyph-name="percent" unicode="%" horiz-adv-x="653" 
d="M300 434c0 -41 -33 -74 -74 -74h-72c-41 0 -74 33 -74 74v72c0 41 33 74 74 74h72c41 0 74 -33 74 -74v-72zM573 580l-420 -625l-61 45l421 625zM567 54c0 -41 -33 -74 -74 -74h-72c-41 0 -74 33 -74 74v72c0 41 33 74 74 74h72c41 0 74 -33 74 -74v-72zM240 431v78
c0 6 -5 11 -11 11h-78c-6 0 -11 -5 -11 -11v-78c0 -6 5 -11 11 -11h78c6 0 11 5 11 11zM507 51v78c0 6 -5 11 -11 11h-78c-6 0 -11 -5 -11 -11v-78c0 -6 5 -11 11 -11h78c6 0 11 5 11 11z" />
    <glyph glyph-name="ampersand" unicode="&#x26;" horiz-adv-x="577" 
d="M522 23l-49 -48l-57 64c-30 -27 -69 -45 -113 -45h-106c-73 0 -127 54 -127 123v101c0 43 24 84 59 93c-23 14 -37 49 -37 76v78c0 73 52 123 125 123h31c73 0 123 -50 123 -123v-55h-70v65c0 27 -18 49 -46 49h-45c-28 0 -48 -22 -48 -49v-72c0 -97 70 -58 118 -113
l126 -146c8 17 12 36 12 54v57h70v-51c0 -37 -11 -76 -30 -110zM366 88l-142 159c-35 39 -84 16 -84 -30v-104c0 -27 22 -51 50 -51h112c23 0 45 10 64 26z" />
    <glyph glyph-name="quotesingle" unicode="'" horiz-adv-x="230" 
d="M150 410h-70v170h70v-170z" />
    <glyph glyph-name="parenleft" unicode="(" horiz-adv-x="397" 
d="M317 -88h-90c-82 0 -147 65 -147 147v442c0 82 65 147 147 147h90v-68h-97c-40 0 -70 -34 -70 -73v-454c0 -39 30 -73 70 -73h97v-68z" />
    <glyph glyph-name="parenright" unicode=")" horiz-adv-x="397" 
d="M317 59c0 -82 -65 -147 -147 -147h-90v68h97c40 0 70 34 70 73v454c0 39 -30 73 -70 73h-97v68h90c82 0 147 -65 147 -147v-442z" />
    <glyph glyph-name="asterisk" unicode="*" horiz-adv-x="534" 
d="M454 385l-111 -91v-8l111 -91l-51 -51l-105 105l-3 -2l8 -148h-72l8 148l-3 2l-105 -105l-51 51l111 91v8l-111 91l51 51l105 -105l3 2l-8 150h72l-8 -150l3 -2l105 105z" />
    <glyph glyph-name="plus" unicode="+" horiz-adv-x="568" 
d="M488 255h-170v-171h-70v171h-168v70h168v168h70v-168h170v-70z" />
    <glyph glyph-name="comma" unicode="," horiz-adv-x="279" 
d="M199 37c0 -23 -5 -35 -15 -45l-73 -96l-29 23l49 79v8h-34c-6 0 -10 4 -10 10v80c0 6 4 10 10 10h92c6 0 10 -4 10 -10v-59z" />
    <glyph glyph-name="hyphen" unicode="-" horiz-adv-x="455" 
d="M375 257h-295v66h295v-66z" />
    <glyph glyph-name="period" unicode="." horiz-adv-x="280" 
d="M192 10c0 -6 -4 -10 -10 -10h-92c-6 0 -10 4 -10 10v92c0 6 4 10 10 10h92c6 0 10 -4 10 -10v-92z" />
    <glyph glyph-name="slash" unicode="/" horiz-adv-x="454" 
d="M424 653l-326 -767l-68 31l325 767z" />
    <glyph glyph-name="zero" unicode="0" 
d="M490 127c0 -73 -53 -127 -127 -127h-156c-73 0 -127 54 -127 127v326c0 73 54 127 127 127h156c74 0 127 -54 127 -127v-326zM420 121v338c0 27 -22 53 -50 53h-170c-28 0 -50 -26 -50 -53v-338c0 -27 22 -53 50 -53h170c28 0 50 26 50 53zM326 260c0 -6 -4 -10 -10 -10
h-59c-6 0 -10 4 -10 10v59c0 6 4 10 10 10h59c6 0 10 -4 10 -10v-59z" />
    <glyph glyph-name="one" unicode="1" horiz-adv-x="404" 
d="M334 0h-256v64h92v409l-59 -55l-41 42l111 120h59v-516h94v-64z" />
    <glyph glyph-name="two" unicode="2" horiz-adv-x="552" 
d="M472 0h-392v64c0 185 316 245 316 354v39c0 27 -23 53 -50 53h-144c-27 0 -50 -26 -50 -53v-32h-72v22c0 73 52 133 125 133h134c73 0 129 -48 129 -121v-43c0 -158 -310 -217 -310 -340v-8h314v-68z" />
    <glyph glyph-name="three" unicode="3" horiz-adv-x="560" 
d="M480 127c0 -73 -54 -127 -127 -127h-146c-73 0 -127 54 -127 127v28h70v-34c0 -27 22 -53 50 -53h160c28 0 50 26 50 53v83c0 24 -17 51 -40 51h-143v70h143c23 0 40 27 40 51v83c0 27 -22 53 -50 53h-160c-28 0 -50 -26 -50 -53v-42h-70v36c0 73 54 127 127 127h146
c73 0 127 -54 127 -127v-71c0 -37 -17 -69 -40 -92c23 -23 40 -55 40 -92v-71z" />
    <glyph glyph-name="four" unicode="4" horiz-adv-x="558" 
d="M488 155h-68v-155h-72v155h-268v135l275 290h65v-357h68v-68zM348 223v250l-198 -207v-43h198z" />
    <glyph glyph-name="five" unicode="5" horiz-adv-x="565" 
d="M485 127c0 -73 -53 -127 -127 -127h-151c-73 0 -127 54 -127 127v28h70v-34c0 -27 22 -53 50 -53h165c28 0 50 26 50 53v128c0 37 -22 65 -54 65l-267 -4l8 270h354v-68h-288l-4 -134l183 4c80 2 138 -61 138 -135v-120z" />
    <glyph glyph-name="six" unicode="6" horiz-adv-x="544" 
d="M479 127c0 -73 -53 -127 -127 -127h-145c-73 0 -127 52 -127 127v112v103c0 142 102 238 223 238h64v-68h-61c-84 0 -156 -72 -156 -161v-26h202c74 0 127 -54 127 -127v-71zM409 121v83c0 27 -22 53 -50 53h-209v-136c0 -27 22 -53 50 -53h159c28 0 50 26 50 53z" />
    <glyph glyph-name="seven" unicode="7" horiz-adv-x="519" 
d="M449 516c0 -139 -215 -212 -215 -338v-178h-74v175c0 157 209 237 209 322v15h-309v68h383s6 -40 6 -64z" />
    <glyph glyph-name="eight" unicode="8" horiz-adv-x="571" 
d="M491 127c0 -73 -53 -127 -127 -127h-157c-73 0 -127 54 -127 127v71c0 37 17 69 40 92c-23 23 -40 55 -40 92v71c0 73 54 127 127 127h157c74 0 127 -54 127 -127v-71c0 -37 -17 -69 -40 -92c23 -23 40 -55 40 -92v-71zM421 376v83c0 27 -22 53 -50 53h-171
c-28 0 -50 -26 -50 -53v-83c0 -24 17 -51 40 -51h191c23 0 40 27 40 51zM421 121v83c0 24 -17 51 -40 51h-191c-23 0 -40 -27 -40 -51v-83c0 -27 22 -53 50 -53h171c28 0 50 26 50 53z" />
    <glyph glyph-name="nine" unicode="9" horiz-adv-x="546" 
d="M466 238c0 -142 -102 -238 -223 -238h-64v68h61c84 0 156 72 156 161v26h-204c-73 0 -127 54 -127 127v71c0 73 54 127 127 127h147c74 0 127 -52 127 -127v-112v-103zM396 323v136c0 27 -22 53 -50 53h-161c-28 0 -50 -26 -50 -53v-83c0 -27 22 -53 50 -53h211z" />
    <glyph glyph-name="colon" unicode=":" horiz-adv-x="280" 
d="M192 308c0 -6 -4 -10 -10 -10h-92c-6 0 -10 4 -10 10v92c0 6 4 10 10 10h92c6 0 10 -4 10 -10v-92zM192 10c0 -6 -4 -10 -10 -10h-92c-6 0 -10 4 -10 10v92c0 6 4 10 10 10h92c6 0 10 -4 10 -10v-92z" />
    <glyph glyph-name="semicolon" unicode=";" horiz-adv-x="272" 
d="M192 308c0 -6 -4 -10 -10 -10h-92c-6 0 -10 4 -10 10v92c0 6 4 10 10 10h92c6 0 10 -4 10 -10v-92zM192 37c0 -23 -5 -35 -15 -45l-73 -96l-29 23l49 79v8h-34c-6 0 -10 4 -10 10v80c0 6 4 10 10 10h92c6 0 10 -4 10 -10v-59z" />
    <glyph glyph-name="less" unicode="&#x3c;" horiz-adv-x="406" 
d="M336 29l-49 -49l-217 217v55l217 216l49 -49l-191 -191v-7z" />
    <glyph glyph-name="equal" unicode="=" horiz-adv-x="485" 
d="M395 329h-315v66h315v-66zM395 185h-315v66h315v-66z" />
    <glyph glyph-name="greater" unicode="&#x3e;" horiz-adv-x="406" 
d="M336 197l-217 -217l-49 49l191 192v7l-191 191l49 49l217 -216v-55z" />
    <glyph glyph-name="question" unicode="?" horiz-adv-x="558" 
d="M478 414c0 -111 -162 -144 -162 -219v-40h-72v45c0 99 162 142 162 210v47c0 27 -22 53 -50 53h-154c-27 0 -50 -26 -50 -53v-32h-72v22c0 73 52 133 125 133h146c74 0 127 -54 127 -127v-39zM324 0h-88v88h88v-88z" />
    <glyph glyph-name="at" unicode="@" horiz-adv-x="708" 
d="M558 84h-142c-67 0 -120 49 -120 114v87c0 69 50 121 119 121h73v53c0 27 -22 53 -50 53h-168c-28 0 -50 -26 -50 -53v-426c0 -27 22 -53 50 -53h204v-68h-197c-73 0 -127 54 -127 127v414c0 73 54 127 127 127h154c74 0 127 -54 127 -127v-369zM488 151v187h-72
c-30 0 -50 -15 -50 -47v-88c0 -31 18 -51 49 -52h73z" />
    <glyph glyph-name="A" unicode="A" 
d="M490 357v-357h-71v192h-268v-192h-71v357c0 40 7 63 33 90l134 133h76l134 -133c26 -27 33 -50 33 -90zM419 351c0 24 -1 33 -17 50l-112 117h-8l-114 -117c-16 -17 -17 -26 -17 -50v-96h268v96z" />
    <glyph glyph-name="B" unicode="B" horiz-adv-x="554" 
d="M474 129c0 -73 -55 -129 -129 -129h-265v580h265c74 0 129 -56 129 -129v-62c0 -75 -52 -97 -52 -97s52 -19 52 -87v-76zM402 390v69c0 27 -22 56 -50 56h-203v-188h193c46 0 60 19 60 63zM402 120v75c0 43 -12 66 -56 66h-197v-197h203c28 0 50 29 50 56z" />
    <glyph glyph-name="C" unicode="C" horiz-adv-x="568" 
d="M488 127c0 -73 -53 -127 -127 -127h-154c-73 0 -127 54 -127 127v326c0 73 54 127 127 127h156c74 0 125 -60 125 -133v-22h-72v32c0 27 -22 53 -50 53h-164c-27 0 -50 -26 -50 -53v-335c0 -27 23 -53 50 -53h164c28 0 50 26 50 53v34h72v-29z" />
    <glyph glyph-name="D" unicode="D" 
d="M490 127c0 -73 -53 -127 -127 -127h-283v580h283c74 0 127 -54 127 -127v-326zM418 121v338c0 27 -22 53 -50 53h-218v-444h218c28 0 50 26 50 53z" />
    <glyph glyph-name="E" unicode="E" horiz-adv-x="506" 
d="M426 0h-346v580h346v-68h-276v-188h214v-69h-214v-187h276v-68z" />
    <glyph glyph-name="F" unicode="F" horiz-adv-x="480" 
d="M420 512h-270v-188h208v-69h-208v-255h-70v580h340v-68z" />
    <glyph glyph-name="G" unicode="G" 
d="M490 127c0 -73 -53 -127 -127 -127h-156c-73 0 -127 54 -127 127v326c0 73 54 127 127 127h156c74 0 127 -54 127 -127v-28h-72v36c0 27 -22 53 -50 53h-166c-27 0 -50 -26 -50 -53v-339c0 -27 23 -53 50 -53h166c28 0 50 26 50 53v135h-119v67h191v-197z" />
    <glyph glyph-name="H" unicode="H" horiz-adv-x="568" 
d="M488 0h-70v255h-268v-255h-70v580h70v-256h268v256h70v-580z" />
    <glyph glyph-name="I" unicode="I" horiz-adv-x="400" 
d="M320 0h-240v66h84v448h-84v66h240v-66h-85v-448h85v-66z" />
    <glyph glyph-name="J" unicode="J" horiz-adv-x="497" 
d="M447 512h-83v-385c0 -73 -52 -127 -126 -127h-81c-73 0 -127 54 -127 127v29h70v-38c0 -28 22 -50 50 -50h93c27 0 50 22 50 50v394h-91v68h245v-68z" />
    <glyph glyph-name="K" unicode="K" horiz-adv-x="558" 
d="M493 32l-65 -43l-190 287l-85 -97v-179h-73v580h73v-284h10l272 291l54 -54l-195 -207z" />
    <glyph glyph-name="L" unicode="L" horiz-adv-x="474" 
d="M414 0h-334v580h74v-512h260v-68z" />
    <glyph glyph-name="M" unicode="M" horiz-adv-x="608" 
d="M528 0h-72v459l-128 -152h-48l-128 152v-459h-72v580h61l159 -195h8l159 195h61v-580z" />
    <glyph glyph-name="N" unicode="N" horiz-adv-x="566" 
d="M486 0h-72v176l-262 287v-463h-72v580h64l270 -298v298h72v-580z" />
    <glyph glyph-name="O" unicode="O" horiz-adv-x="588" 
d="M508 127c0 -73 -53 -127 -127 -127h-174c-73 0 -127 54 -127 127v326c0 73 54 127 127 127h174c74 0 127 -54 127 -127v-326zM438 121v338c0 27 -22 53 -50 53h-188c-28 0 -50 -26 -50 -53v-338c0 -27 22 -53 50 -53h188c28 0 50 26 50 53z" />
    <glyph glyph-name="P" unicode="P" horiz-adv-x="542" 
d="M472 382c0 -73 -53 -127 -127 -127h-195v-255h-70v580h265c74 0 127 -54 127 -127v-71zM402 375v86c0 27 -22 53 -50 53h-202v-192h202c28 0 50 26 50 53z" />
    <glyph glyph-name="Q" unicode="Q" horiz-adv-x="591" 
d="M521 37l-50 -50l-85 88l-41 -43c-18 -19 -45 -32 -72 -32h-70c-74 0 -123 50 -123 123v330c0 73 54 127 127 127h176c73 0 127 -54 127 -127v-180c0 -47 -8 -71 -37 -102l-41 -45zM440 267v192c0 27 -22 53 -50 53h-190c-28 0 -50 -26 -50 -53v-338c0 -27 16 -53 43 -53
h65c25 0 31 3 43 15l37 40l-70 68l49 50l66 -67l39 39c14 14 18 27 18 54z" />
    <glyph glyph-name="R" unicode="R" horiz-adv-x="564" 
d="M484 0h-72v189c0 43 -12 66 -56 66h-207v-255h-69v580h277c73 0 127 -54 127 -127v-66c0 -75 -52 -96 -52 -96s52 -19 52 -88v-203zM412 388v73c0 27 -23 56 -50 56h-213v-192h202c47 0 61 19 61 63z" />
    <glyph glyph-name="S" unicode="S" horiz-adv-x="548" 
d="M478 125c0 -73 -53 -127 -127 -127h-154c-73 0 -127 54 -127 127v24h70v-30c0 -27 22 -53 50 -53h168c28 0 50 26 50 53v80c0 27 -21 52 -50 53l-157 5c-73 2 -127 54 -127 127v69c0 73 54 127 127 127h142c74 0 127 -54 127 -127v-25h-70v31c0 27 -22 53 -50 53h-156
c-28 0 -50 -26 -50 -53v-81c0 -27 22 -52 50 -53l157 -4c72 -2 127 -54 127 -127v-69z" />
    <glyph glyph-name="T" unicode="T" horiz-adv-x="528" 
d="M478 512h-176v-512h-77v512h-175v68h428v-68z" />
    <glyph glyph-name="U" unicode="U" horiz-adv-x="568" 
d="M488 127c0 -73 -53 -127 -127 -127h-154c-73 0 -127 53 -127 127v453h74v-459c0 -27 22 -53 50 -53h160c28 0 50 26 50 53v459h74v-453z" />
    <glyph glyph-name="V" unicode="V" horiz-adv-x="576" 
d="M490 227c0 -40 -7 -63 -33 -90l-134 -137h-76l-134 137c-26 27 -33 50 -33 90v353h73v-349c0 -24 1 -33 17 -50l110 -117h8l112 117c16 17 17 26 17 50v349h73v-353z" />
    <glyph glyph-name="W" unicode="W" horiz-adv-x="642" 
d="M562 195c0 -40 -13 -66 -33 -98l-62 -97h-74l-69 115h-6l-69 -115h-74l-62 97c-20 32 -33 58 -33 98v385h73v-385c0 -24 5 -38 17 -58l38 -67h10l52 81c11 17 16 29 16 47v222h70v-222c0 -18 6 -30 17 -47l51 -81h10l39 67c11 20 16 34 16 58v385h73v-385z" />
    <glyph glyph-name="X" unicode="X" horiz-adv-x="565" 
d="M485 457c0 -47 -16 -67 -44 -91l-93 -82l96 -73c30 -24 40 -45 40 -95v-116h-73v108c0 39 -3 43 -24 59l-110 84h-7l-95 -84c-20 -18 -23 -27 -23 -63v-104h-72v108c0 50 6 73 40 102l97 85l-96 74c-26 20 -41 41 -41 91v120h72v-116c0 -24 2 -34 20 -48l115 -87h8l93 84
c18 15 24 27 24 51v116h73v-123z" />
    <glyph glyph-name="Y" unicode="Y" horiz-adv-x="564" 
d="M484 432c0 -40 -7 -61 -33 -88l-133 -137v-207h-72v207l-133 137c-26 27 -33 48 -33 88v148h70v-144c0 -24 1 -31 17 -48l107 -115h14l108 115c16 17 17 24 17 48v144h71v-148z" />
    <glyph glyph-name="Z" unicode="Z" horiz-adv-x="552" 
d="M472 0h-392v58l295 454h-295v68h392v-58l-295 -454h295v-68z" />
    <glyph glyph-name="bracketleft" unicode="[" horiz-adv-x="396" 
d="M316 -88h-236v736h236v-68h-166v-600h166v-68z" />
    <glyph glyph-name="backslash" unicode="\" horiz-adv-x="454" 
d="M424 -83l-69 -31l-325 767l68 31z" />
    <glyph glyph-name="bracketright" unicode="]" horiz-adv-x="396" 
d="M316 -88h-236v68h166v600h-166v68h236v-736z" />
    <glyph glyph-name="asciicircum" unicode="^" horiz-adv-x="400" 
d="M350 459l-49 -32l-97 95h-7l-98 -95l-49 32l123 121h55z" />
    <glyph glyph-name="underscore" unicode="_" horiz-adv-x="375" 
d="M375 -66h-375v66h375v-66z" />
    <glyph glyph-name="grave" unicode="`" horiz-adv-x="284" 
d="M196 430h-64l-62 150h64z" />
    <glyph glyph-name="a" unicode="a" horiz-adv-x="528" 
d="M448 288v-288h-261c-76 0 -127 58 -127 124c0 60 52 114 126 115h192v42c0 45 -20 60 -70 60h-174v69h192c68 0 122 -55 122 -122zM378 66v109h-195c-26 0 -54 -21 -54 -55c0 -28 23 -54 50 -54h199z" />
    <glyph glyph-name="b" unicode="b" horiz-adv-x="554" 
d="M474 127c0 -73 -54 -127 -127 -127h-267v580h70v-248l47 46c15 14 41 32 73 32h77c73 0 127 -55 127 -127v-156zM404 114v180c0 27 -22 50 -50 50h-73c-29 0 -34 -3 -55 -23l-76 -70v-187h204c28 0 50 22 50 50z" />
    <glyph glyph-name="c" unicode="c" horiz-adv-x="538" 
d="M458 254h-70v38c0 33 -15 50 -50 50h-138c-28 0 -50 -22 -50 -50v-174c0 -28 22 -50 50 -50h219v-68h-212c-73 0 -127 55 -127 129v154c0 73 54 127 127 127h124c81 0 127 -44 127 -121v-35z" />
    <glyph glyph-name="d" unicode="d" horiz-adv-x="554" 
d="M474 0h-267c-73 0 -127 54 -127 127v156c0 72 54 127 127 127h77c32 0 58 -18 72 -32l48 -46v248h70v-580zM404 64v187l-76 70c-21 20 -26 23 -55 23h-73c-28 0 -50 -23 -50 -50v-180c0 -28 22 -50 50 -50h204z" />
    <glyph glyph-name="e" unicode="e" horiz-adv-x="548" 
d="M468 167h-318v-51c0 -28 22 -50 50 -50h215v-66h-208c-73 0 -127 54 -127 127v156c0 73 54 127 127 127h134c74 0 127 -54 127 -127v-116zM398 231v60c0 28 -22 50 -50 50h-148c-28 0 -50 -22 -50 -50v-60h248z" />
    <glyph glyph-name="f" unicode="f" horiz-adv-x="488" 
d="M468 424h-72v38c0 28 -23 50 -50 50h-82c-27 0 -50 -22 -50 -50v-138h112v-69h-112v-255h-70v255h-84v69h84v135c0 74 53 121 126 121h67c74 0 131 -51 131 -125v-31z" />
    <glyph glyph-name="g" unicode="g" horiz-adv-x="544" 
d="M464 44c0 -74 -59 -132 -133 -132h-167v68h180c28 0 50 22 50 50v38h-187c-73 0 -127 47 -127 121v100c0 74 54 121 127 121h257v-366zM394 137v205h-194c-28 0 -50 -23 -50 -51v-104c0 -27 22 -50 50 -50h194z" />
    <glyph glyph-name="h" unicode="h" horiz-adv-x="549" 
d="M469 0h-70v293c0 28 -23 50 -50 50h-66c-28 0 -33 -4 -54 -23l-79 -70v-250h-70v580h70v-248l50 46c15 13 41 32 72 32h74c74 0 123 -49 123 -123v-287z" />
    <glyph glyph-name="i" unicode="i" horiz-adv-x="380" 
d="M236 504h-76v76h76v-76zM320 0h-240v64h84v280h-84v66h154v-346h86v-64z" />
    <glyph glyph-name="j" unicode="j" horiz-adv-x="434" 
d="M353 504h-76v76h76v-76zM354 39c0 -73 -52 -127 -126 -127h-71c-73 0 -127 54 -127 127v29h70v-38c0 -28 22 -50 50 -50h83c27 0 50 22 50 50v380h71v-371z" />
    <glyph glyph-name="k" unicode="k" horiz-adv-x="511" 
d="M446 37l-54 -47l-149 182l-93 -95v-77h-70v580h70v-406h3l240 246l52 -50l-151 -151z" />
    <glyph glyph-name="l" unicode="l" horiz-adv-x="375" 
d="M320 0h-240v64h85v453h-85v63h155v-516h85v-64z" />
    <glyph glyph-name="m" unicode="m" horiz-adv-x="714" 
d="M634 0h-72v294c0 28 -16 50 -44 50h-20c-29 0 -27 -3 -48 -23l-52 -48v-273h-72v294c0 28 -16 50 -43 50h-11c-17 0 -18 -1 -32 -13l-88 -80v-251h-72v410h72v-78l50 46c15 13 34 32 65 32h15c51 0 82 -27 102 -70l38 38c14 14 34 31 65 32h26c74 1 121 -54 121 -127
v-283z" />
    <glyph glyph-name="n" unicode="n" horiz-adv-x="549" 
d="M469 0h-70v293c0 28 -23 50 -50 50h-66c-28 0 -33 -4 -54 -23l-79 -70v-250h-70v410h70v-78l50 46c15 13 41 32 72 32h74c74 0 123 -49 123 -123v-287z" />
    <glyph glyph-name="o" unicode="o" horiz-adv-x="542" 
d="M472 129c0 -73 -55 -129 -129 -129h-144c-73 0 -129 56 -129 129v152c0 73 56 129 129 129h144c74 0 129 -56 129 -129v-152zM402 118v174c0 28 -22 50 -50 50h-162c-28 0 -50 -22 -50 -50v-174c0 -28 22 -50 50 -50h162c28 0 50 22 50 50z" />
    <glyph glyph-name="p" unicode="p" horiz-adv-x="545" 
d="M465 195c0 -73 -54 -127 -128 -127h-187v-156h-70v498h257c74 0 128 -54 128 -127v-88zM392 186v106c0 28 -22 50 -50 50h-192v-206h192c28 0 50 22 50 50z" />
    <glyph glyph-name="q" unicode="q" horiz-adv-x="525" 
d="M445 -88h-70v156h-192c-74 0 -123 50 -123 123v96c0 73 50 123 123 123h262v-498zM375 136v206h-193c-27 0 -50 -22 -50 -50v-106c0 -28 23 -50 50 -50h193z" />
    <glyph glyph-name="r" unicode="r" horiz-adv-x="489" 
d="M444 255h-72v36c0 28 -23 50 -50 50h-45c-29 0 -35 -2 -55 -22l-72 -71v-248h-70v410h70v-78l50 53c14 14 34 25 66 25h51c73 1 127 -53 127 -127v-28z" />
    <glyph glyph-name="s" unicode="s" horiz-adv-x="516" 
d="M451 122c0 -66 -51 -122 -127 -122h-229v68h236c27 0 50 22 50 50c0 34 -28 48 -54 49l-129 4c-77 3 -133 51 -133 115c0 66 51 124 127 124h224v-68h-231c-27 0 -50 -24 -50 -52c0 -34 34 -50 57 -51l133 -3c74 -2 126 -54 126 -114z" />
    <glyph glyph-name="t" unicode="t" horiz-adv-x="508" 
d="M468 127c0 -73 -53 -127 -127 -127h-71c-73 0 -126 54 -126 127v217h-84v66h84v170h70v-170h100v-66h-100v-226c0 -28 23 -50 50 -50h82c28 0 50 22 50 50v38h72v-29z" />
    <glyph glyph-name="u" unicode="u" horiz-adv-x="545" 
d="M465 0h-70v84l-48 -52c-14 -15 -41 -32 -72 -32h-68c-73 0 -127 54 -127 127v283h70v-294c0 -28 22 -50 50 -50h64c29 0 35 2 55 23l76 82v239h70v-410z" />
    <glyph glyph-name="v" unicode="v" horiz-adv-x="542" 
d="M462 229c0 -40 -9 -61 -33 -90l-122 -139h-72l-122 139c-24 29 -33 50 -33 90v181h72v-177c0 -24 2 -32 17 -50l95 -117h12l97 117c15 18 17 26 17 50v177h72v-181z" />
    <glyph glyph-name="w" unicode="w" horiz-adv-x="642" 
d="M562 195c0 -40 -12 -66 -33 -98l-64 -97h-68l-73 113h-6l-73 -113h-68l-64 97c-20 32 -33 58 -33 98v215h73v-215c0 -24 5 -38 17 -58l38 -67h8l54 81c11 17 16 29 16 47v92h70v-92c0 -18 5 -30 17 -47l53 -81h8l39 67c11 20 16 34 16 58v215h73v-215z" />
    <glyph glyph-name="x" unicode="x" horiz-adv-x="500" 
d="M430 0h-74v38c0 27 -1 29 -13 40l-90 89h-6l-90 -89c-12 -11 -13 -13 -13 -40v-38h-74v37c0 41 8 58 27 77l90 88v6l-90 88c-19 19 -27 36 -27 77v37h74v-38c0 -27 1 -29 13 -40l90 -89h6l90 89c12 11 13 13 13 40v38h74v-37c0 -41 -8 -58 -27 -77l-90 -88v-6l90 -88
c19 -19 27 -36 27 -77v-37z" />
    <glyph glyph-name="y" unicode="y" horiz-adv-x="544" 
d="M464 39c0 -73 -53 -127 -127 -127h-173v69h180c28 0 50 23 50 50v37h-187c-73 0 -127 54 -127 127v215h70v-223c0 -27 22 -50 50 -50h194v273h70v-371z" />
    <glyph glyph-name="z" unicode="z" horiz-adv-x="529" 
d="M449 0h-369v58l268 288h-268v64h369v-58l-267 -288h267v-64z" />
    <glyph glyph-name="braceleft" unicode="{" horiz-adv-x="446" 
d="M366 -136h-89c-73 0 -127 53 -127 127v195c0 37 -22 58 -55 67l-15 4v66l15 4c33 9 55 30 55 67v195c0 74 54 127 127 127h89v-68h-94c-27 0 -50 -26 -50 -53v-212c0 -58 -50 -90 -50 -90v-6s50 -32 50 -90v-212c0 -27 23 -53 50 -53h94v-68z" />
    <glyph glyph-name="bar" unicode="|" horiz-adv-x="230" 
d="M150 -114h-70v833h70v-833z" />
    <glyph glyph-name="braceright" unicode="}" horiz-adv-x="446" 
d="M366 257l-15 -4c-33 -9 -55 -30 -55 -67v-195c0 -74 -54 -127 -127 -127h-89v68h94c27 0 50 26 50 53v212c0 58 50 90 50 90v6s-50 32 -50 90v212c0 27 -23 53 -50 53h-94v68h89c73 0 127 -53 127 -127v-195c0 -37 22 -58 55 -67l15 -4v-66z" />
    <glyph glyph-name="asciitilde" unicode="~" horiz-adv-x="420" 
d="M370 550l-89 -95c-17 -19 -41 -19 -60 0l-58 58c-7 7 -10 7 -16 1l-61 -67l-36 36l88 94c17 19 41 19 60 0l58 -58c7 -7 10 -7 16 -1l62 68z" />
    <glyph glyph-name="Adieresis" unicode="&#xc4;" 
d="M490 357v-357h-71v192h-268v-192h-71v357c0 40 7 63 33 90l134 133h76l134 -133c26 -27 33 -50 33 -90zM419 351c0 24 -1 33 -17 50l-112 117h-8l-114 -117c-16 -17 -17 -26 -17 -50v-96h268v96zM412 654h-68v68h68v-68zM226 654h-68v68h68v-68z" />
    <glyph glyph-name="Aring" unicode="&#xc5;" 
d="M490 357v-357h-71v192h-268v-192h-71v357c0 40 7 63 33 90l134 133h76l134 -133c26 -27 33 -50 33 -90zM419 351c0 24 -1 33 -17 50l-112 117h-8l-114 -117c-16 -17 -17 -26 -17 -50v-96h268v96zM360 676c0 -28 -23 -51 -51 -51h-49c-28 0 -51 23 -51 51v49
c0 28 23 50 51 50h49c28 0 51 -22 51 -50v-49zM319 674v53c0 4 -4 7 -8 7h-53c-4 0 -8 -3 -8 -7v-53c0 -5 4 -8 8 -8h53c4 0 8 3 8 8z" />
    <glyph glyph-name="Ccedilla" unicode="&#xc7;" horiz-adv-x="568" 
d="M488 127c0 -73 -53 -127 -127 -127h-154c-73 0 -127 54 -127 127v326c0 73 54 127 127 127h156c74 0 125 -60 125 -133v-22h-72v32c0 27 -22 53 -50 53h-164c-27 0 -50 -26 -50 -53v-335c0 -27 23 -53 50 -53h164c28 0 50 26 50 53v34h72v-29zM329 -29
c9 -57 -32 -105 -98 -105h-49v52h48c33 0 48 27 43 53l-8 44h57z" />
    <glyph glyph-name="Eacute" unicode="&#xc9;" horiz-adv-x="506" 
d="M426 0h-346v580h346v-68h-276v-188h214v-69h-214v-187h276v-68zM322 800l-68 -150h-64l68 150h64z" />
    <glyph glyph-name="Ntilde" unicode="&#xd1;" horiz-adv-x="566" 
d="M486 0h-72v176l-262 287v-463h-72v580h64l270 -298v298h72v-580zM415 721l-73 -79c-15 -15 -34 -15 -50 0l-48 48c-5 6 -8 6 -13 1l-50 -55l-30 29l73 78c14 15 34 15 49 0l48 -48c6 -6 8 -6 13 -1l51 56z" />
    <glyph glyph-name="Odieresis" unicode="&#xd6;" horiz-adv-x="588" 
d="M508 127c0 -73 -53 -127 -127 -127h-174c-73 0 -127 54 -127 127v326c0 73 54 127 127 127h174c74 0 127 -54 127 -127v-326zM438 121v338c0 27 -22 53 -50 53h-188c-28 0 -50 -26 -50 -53v-338c0 -27 22 -53 50 -53h188c28 0 50 26 50 53zM426 654h-68v68h68v-68z
M240 654h-68v68h68v-68z" />
    <glyph glyph-name="Udieresis" unicode="&#xdc;" horiz-adv-x="568" 
d="M488 127c0 -73 -53 -127 -127 -127h-154c-73 0 -127 53 -127 127v453h74v-459c0 -27 22 -53 50 -53h160c28 0 50 26 50 53v459h74v-453zM412 654h-68v68h68v-68zM226 654h-68v68h68v-68z" />
    <glyph glyph-name="aacute" unicode="&#xe1;" horiz-adv-x="528" 
d="M448 288v-288h-261c-76 0 -127 58 -127 124c0 60 52 114 126 115h192v42c0 45 -20 60 -70 60h-174v69h192c68 0 122 -55 122 -122zM378 66v109h-195c-26 0 -54 -21 -54 -55c0 -28 23 -54 50 -54h199zM346 619l-68 -150h-64l68 150h64z" />
    <glyph glyph-name="agrave" unicode="&#xe0;" horiz-adv-x="528" 
d="M448 288v-288h-261c-76 0 -127 58 -127 124c0 60 52 114 126 115h192v42c0 45 -20 60 -70 60h-174v69h192c68 0 122 -55 122 -122zM378 66v109h-195c-26 0 -54 -21 -54 -55c0 -28 23 -54 50 -54h199zM303 468h-64l-62 150h64z" />
    <glyph glyph-name="acircumflex" unicode="&#xe2;" horiz-adv-x="528" 
d="M448 288v-288h-261c-76 0 -127 58 -127 124c0 60 52 114 126 115h192v42c0 45 -20 60 -70 60h-174v69h192c68 0 122 -55 122 -122zM378 66v109h-195c-26 0 -54 -21 -54 -55c0 -28 23 -54 50 -54h199zM382 493l-40 -26l-79 73h-6l-79 -73l-40 26l100 98h44z" />
    <glyph glyph-name="adieresis" unicode="&#xe4;" horiz-adv-x="528" 
d="M448 288v-288h-261c-76 0 -127 58 -127 124c0 60 52 114 126 115h192v42c0 45 -20 60 -70 60h-174v69h192c68 0 122 -55 122 -122zM378 66v109h-195c-26 0 -54 -21 -54 -55c0 -28 23 -54 50 -54h199zM389 468h-68v68h68v-68zM203 468h-68v68h68v-68z" />
    <glyph glyph-name="atilde" unicode="&#xe3;" horiz-adv-x="528" 
d="M448 288v-288h-261c-76 0 -127 58 -127 124c0 60 52 114 126 115h192v42c0 45 -20 60 -70 60h-174v69h192c68 0 122 -55 122 -122zM378 66v109h-195c-26 0 -54 -21 -54 -55c0 -28 23 -54 50 -54h199zM405 552l-73 -79c-15 -15 -34 -15 -50 0l-48 48c-5 6 -8 6 -13 1
l-50 -55l-30 29l73 78c14 15 34 15 49 0l48 -48c6 -6 8 -6 13 -1l51 56z" />
    <glyph glyph-name="aring" unicode="&#xe5;" horiz-adv-x="528" 
d="M448 288v-288h-261c-76 0 -127 58 -127 124c0 60 52 114 126 115h192v42c0 45 -20 60 -70 60h-174v69h192c68 0 122 -55 122 -122zM378 66v109h-195c-26 0 -54 -21 -54 -55c0 -28 23 -54 50 -54h199zM324 516c0 -28 -23 -51 -51 -51h-49c-28 0 -51 23 -51 51v49
c0 28 23 50 51 50h49c28 0 51 -22 51 -50v-49zM283 514v53c0 4 -4 7 -8 7h-53c-4 0 -8 -3 -8 -7v-53c0 -5 4 -8 8 -8h53c4 0 8 3 8 8z" />
    <glyph glyph-name="ccedilla" unicode="&#xe7;" horiz-adv-x="538" 
d="M458 254h-70v38c0 33 -15 50 -50 50h-138c-28 0 -50 -22 -50 -50v-174c0 -28 22 -50 50 -50h219v-68h-212c-73 0 -127 55 -127 129v154c0 73 54 127 127 127h124c81 0 127 -44 127 -121v-35zM317 -29c9 -57 -32 -105 -98 -105h-49v52h48c33 0 48 27 43 53l-8 44h57z" />
    <glyph glyph-name="eacute" unicode="&#xe9;" horiz-adv-x="548" 
d="M468 167h-318v-51c0 -28 22 -50 50 -50h215v-66h-208c-73 0 -127 54 -127 127v156c0 73 54 127 127 127h134c74 0 127 -54 127 -127v-116zM398 231v60c0 28 -22 50 -50 50h-148c-28 0 -50 -22 -50 -50v-60h248zM371 619l-68 -150h-64l68 150h64z" />
    <glyph glyph-name="egrave" unicode="&#xe8;" horiz-adv-x="548" 
d="M468 167h-318v-51c0 -28 22 -50 50 -50h215v-66h-208c-73 0 -127 54 -127 127v156c0 73 54 127 127 127h134c74 0 127 -54 127 -127v-116zM398 231v60c0 28 -22 50 -50 50h-148c-28 0 -50 -22 -50 -50v-60h248zM302 468h-64l-62 150h64z" />
    <glyph glyph-name="ecircumflex" unicode="&#xea;" horiz-adv-x="548" 
d="M468 167h-318v-51c0 -28 22 -50 50 -50h215v-66h-208c-73 0 -127 54 -127 127v156c0 73 54 127 127 127h134c74 0 127 -54 127 -127v-116zM398 231v60c0 28 -22 50 -50 50h-148c-28 0 -50 -22 -50 -50v-60h248zM395 495l-40 -26l-79 73h-6l-79 -73l-40 26l100 98h44z" />
    <glyph glyph-name="edieresis" unicode="&#xeb;" horiz-adv-x="548" 
d="M468 167h-318v-51c0 -28 22 -50 50 -50h215v-66h-208c-73 0 -127 54 -127 127v156c0 73 54 127 127 127h134c74 0 127 -54 127 -127v-116zM398 231v60c0 28 -22 50 -50 50h-148c-28 0 -50 -22 -50 -50v-60h248zM403 468h-68v68h68v-68zM217 468h-68v68h68v-68z" />
    <glyph glyph-name="iacute" unicode="&#xed;" horiz-adv-x="380" 
d="M320 0h-240v64h84v280h-84v66h154v-346h86v-64zM271 619l-68 -150h-64l68 150h64z" />
    <glyph glyph-name="igrave" unicode="&#xec;" horiz-adv-x="380" 
d="M320 0h-240v64h84v280h-84v66h154v-346h86v-64zM243 468h-64l-62 150h64z" />
    <glyph glyph-name="icircumflex" unicode="&#xee;" horiz-adv-x="380" 
d="M320 0h-240v64h84v280h-84v66h154v-346h86v-64zM314 495l-40 -26l-79 73h-6l-79 -73l-40 26l100 98h44z" />
    <glyph glyph-name="idieresis" unicode="&#xef;" horiz-adv-x="380" 
d="M320 0h-240v64h84v280h-84v66h154v-346h86v-64zM327 468h-68v68h68v-68zM141 468h-68v68h68v-68z" />
    <glyph glyph-name="ntilde" unicode="&#xf1;" horiz-adv-x="549" 
d="M469 0h-70v293c0 28 -23 50 -50 50h-66c-28 0 -33 -4 -54 -23l-79 -70v-250h-70v410h70v-78l50 46c15 13 41 32 72 32h74c74 0 123 -49 123 -123v-287zM416 558l-73 -79c-15 -15 -34 -15 -50 0l-48 48c-5 6 -8 6 -13 1l-50 -55l-30 29l73 78c14 15 34 15 49 0l48 -48
c6 -6 8 -6 13 -1l51 56z" />
    <glyph glyph-name="oacute" unicode="&#xf3;" horiz-adv-x="542" 
d="M472 129c0 -73 -55 -129 -129 -129h-144c-73 0 -129 56 -129 129v152c0 73 56 129 129 129h144c74 0 129 -56 129 -129v-152zM402 118v174c0 28 -22 50 -50 50h-162c-28 0 -50 -22 -50 -50v-174c0 -28 22 -50 50 -50h162c28 0 50 22 50 50zM362 617l-68 -150h-64l68 150
h64z" />
    <glyph glyph-name="ograve" unicode="&#xf2;" horiz-adv-x="542" 
d="M472 129c0 -73 -55 -129 -129 -129h-144c-73 0 -129 56 -129 129v152c0 73 56 129 129 129h144c74 0 129 -56 129 -129v-152zM402 118v174c0 28 -22 50 -50 50h-162c-28 0 -50 -22 -50 -50v-174c0 -28 22 -50 50 -50h162c28 0 50 22 50 50zM310 468h-64l-62 150h64z" />
    <glyph glyph-name="ocircumflex" unicode="&#xf4;" horiz-adv-x="542" 
d="M472 129c0 -73 -55 -129 -129 -129h-144c-73 0 -129 56 -129 129v152c0 73 56 129 129 129h144c74 0 129 -56 129 -129v-152zM402 118v174c0 28 -22 50 -50 50h-162c-28 0 -50 -22 -50 -50v-174c0 -28 22 -50 50 -50h162c28 0 50 22 50 50zM391 493l-40 -26l-79 73h-6
l-79 -73l-40 26l100 98h44z" />
    <glyph glyph-name="odieresis" unicode="&#xf6;" horiz-adv-x="542" 
d="M472 129c0 -73 -55 -129 -129 -129h-144c-73 0 -129 56 -129 129v152c0 73 56 129 129 129h144c74 0 129 -56 129 -129v-152zM402 118v174c0 28 -22 50 -50 50h-162c-28 0 -50 -22 -50 -50v-174c0 -28 22 -50 50 -50h162c28 0 50 22 50 50zM398 468h-68v68h68v-68z
M212 468h-68v68h68v-68z" />
    <glyph glyph-name="otilde" unicode="&#xf5;" horiz-adv-x="542" 
d="M472 129c0 -73 -55 -129 -129 -129h-144c-73 0 -129 56 -129 129v152c0 73 56 129 129 129h144c74 0 129 -56 129 -129v-152zM402 118v174c0 28 -22 50 -50 50h-162c-28 0 -50 -22 -50 -50v-174c0 -28 22 -50 50 -50h162c28 0 50 22 50 50zM413 558l-73 -79
c-15 -15 -34 -15 -50 0l-48 48c-5 6 -8 6 -13 1l-50 -55l-30 29l73 78c14 15 34 15 49 0l48 -48c6 -6 8 -6 13 -1l51 56z" />
    <glyph glyph-name="uacute" unicode="&#xfa;" horiz-adv-x="545" 
d="M465 0h-70v84l-48 -52c-14 -15 -41 -32 -72 -32h-68c-73 0 -127 54 -127 127v283h70v-294c0 -28 22 -50 50 -50h64c29 0 35 2 55 23l76 82v239h70v-410zM357 619l-68 -150h-64l68 150h64z" />
    <glyph glyph-name="ugrave" unicode="&#xf9;" horiz-adv-x="545" 
d="M465 0h-70v84l-48 -52c-14 -15 -41 -32 -72 -32h-68c-73 0 -127 54 -127 127v283h70v-294c0 -28 22 -50 50 -50h64c29 0 35 2 55 23l76 82v239h70v-410zM317 469h-64l-62 150h64z" />
    <glyph glyph-name="ucircumflex" unicode="&#xfb;" horiz-adv-x="545" 
d="M465 0h-70v84l-48 -52c-14 -15 -41 -32 -72 -32h-68c-73 0 -127 54 -127 127v283h70v-294c0 -28 22 -50 50 -50h64c29 0 35 2 55 23l76 82v239h70v-410zM394 494l-40 -26l-79 73h-6l-79 -73l-40 26l100 98h44z" />
    <glyph glyph-name="udieresis" unicode="&#xfc;" horiz-adv-x="545" 
d="M465 0h-70v84l-48 -52c-14 -15 -41 -32 -72 -32h-68c-73 0 -127 54 -127 127v283h70v-294c0 -28 22 -50 50 -50h64c29 0 35 2 55 23l76 82v239h70v-410zM397 468h-68v68h68v-68zM211 468h-68v68h68v-68z" />
    <glyph glyph-name="dagger" unicode="&#x2020;" horiz-adv-x="391" 
d="M311 401h-85v-231h-62v231h-84v60h84v119h62v-119h85v-60z" />
    <glyph glyph-name="degree" unicode="&#xb0;" horiz-adv-x="222" 
d="M202 647c0 -34 -28 -61 -62 -61h-59c-34 0 -61 27 -61 61v59c0 34 27 62 61 62h59c34 0 62 -28 62 -62v-59zM152 645v64c0 5 -4 9 -9 9h-64c-5 0 -10 -4 -10 -9v-64c0 -5 5 -10 10 -10h64c5 0 9 5 9 10z" />
    <glyph glyph-name="cent" unicode="&#xa2;" horiz-adv-x="481" 
d="M401 116h-107v-204h-54v204h-33c-73 0 -127 55 -127 129v96c0 73 54 127 127 127h33v192h54v-192h107v-68h-201c-28 0 -50 -22 -50 -50v-116c0 -28 22 -50 50 -50h201v-68z" />
    <glyph glyph-name="sterling" unicode="&#xa3;" horiz-adv-x="574" 
d="M494 52h-414v68h70v293c0 74 53 121 126 121h67c73 0 131 -51 131 -125v-31h-72v38c0 28 -23 50 -50 50h-82c-28 0 -50 -22 -50 -50v-121h111v-55h-111v-120h274v-68z" />
    <glyph glyph-name="section" unicode="&#xa7;" horiz-adv-x="544" 
d="M474 39c0 -75 -53 -127 -127 -127h-150c-73 0 -127 54 -127 127v24h70v-30c0 -27 22 -53 50 -53h164c28 0 50 26 50 53v46c0 27 -24 51 -57 57l-146 24c-72 12 -127 54 -127 127v15c0 35 26 76 56 89c-30 17 -52 53 -52 95v35c0 73 56 127 129 127h124
c74 0 127 -54 127 -127v-25h-70v31c0 27 -22 53 -50 53h-140c-28 0 -50 -26 -50 -53v-47c0 -27 23 -49 50 -53l149 -24c71 -11 127 -54 127 -127v-13c0 -38 -21 -78 -49 -92c29 -13 49 -55 49 -97v-35zM404 257v24c0 27 -23 48 -50 53l-144 25c-36 6 -66 -30 -66 -56v-22
c0 -27 23 -49 50 -53l156 -23c29 -4 54 23 54 52z" />
    <glyph glyph-name="bullet" unicode="&#x2022;" horiz-adv-x="354" 
d="M274 220c0 -10 -8 -17 -17 -17h-160c-9 0 -17 7 -17 17v159c0 10 8 18 17 18h160c9 0 17 -8 17 -18v-159z" />
    <glyph glyph-name="paragraph" unicode="&#xb6;" horiz-adv-x="583" 
d="M503 580h-69v-780h-70v780h-85v-780h-70v302h-20c-73 0 -119 46 -119 119v306c0 73 46 119 119 119h314v-66z" />
    <glyph glyph-name="germandbls" unicode="&#xdf;" horiz-adv-x="552" 
d="M512 122c0 -66 -51 -122 -127 -122h-143v68h149c28 0 50 22 50 50c0 34 -27 45 -53 49l-23 4c-76 14 -119 55 -119 119c0 113 106 134 106 235c0 32 -21 55 -50 55h-102c-28 0 -50 -22 -50 -50v-618h-70v615c0 74 53 121 126 121h87c76 0 131 -59 131 -122
c0 -128 -108 -161 -108 -236c0 -27 20 -48 43 -51l27 -3c73 -9 126 -54 126 -114z" />
    <glyph glyph-name="registered" unicode="&#xae;" horiz-adv-x="605" 
d="M525 153c0 -47 -39 -85 -86 -85h-274c-47 0 -85 38 -85 85v274c0 47 38 86 85 86h274c47 0 86 -39 86 -86v-274zM474 153v274c0 19 -16 35 -35 35h-274c-19 0 -35 -16 -35 -35v-274c0 -19 16 -35 35 -35h274c19 0 35 16 35 35zM399 152h-47v88c0 16 -4 20 -16 20h-79
v-108h-46v262h126c35 0 62 -26 62 -62v-28c0 -21 -8 -33 -16 -40c8 -7 16 -19 16 -38v-94zM352 325v30c0 9 -7 16 -13 16h-82v-65h77c14 0 18 4 18 19z" />
    <glyph glyph-name="copyright" unicode="&#xa9;" horiz-adv-x="605" 
d="M525 153c0 -47 -39 -85 -86 -85h-274c-47 0 -85 38 -85 85v274c0 47 38 86 85 86h274c47 0 86 -39 86 -86v-274zM474 153v274c0 19 -16 35 -35 35h-274c-19 0 -35 -16 -35 -35v-274c0 -19 16 -35 35 -35h274c19 0 35 16 35 35zM401 214c0 -36 -27 -62 -63 -62h-65
c-36 0 -62 26 -62 62v138c0 36 26 62 62 62h66c37 0 62 -29 62 -65v-17h-48v22c0 8 -6 14 -13 14h-69c-6 0 -13 -6 -13 -14v-142c0 -8 7 -14 13 -14h69c7 0 13 6 13 14v22h48v-20z" />
    <glyph glyph-name="trademark" unicode="&#x2122;" horiz-adv-x="520" 
d="M460 375h-41v136l-38 -43h-24l-38 43v-136h-41v205h33l58 -69l58 69h33v-205zM234 542h-66v-167h-42v167h-66v38h174v-38z" />
    <glyph glyph-name="acute" unicode="&#xb4;" horiz-adv-x="284" 
d="M202 580l-68 -150h-64l68 150h64z" />
    <glyph glyph-name="dieresis" unicode="&#xa8;" 
d="M412 654h-68v68h68v-68zM226 654h-68v68h68v-68z" />
    <glyph glyph-name="notequal" unicode="&#x2260;" horiz-adv-x="485" 
d="M395 185h-180l-43 -80h-66l43 80h-69v66h104l42 78h-146v66h181l39 73h66l-39 -73h68v-66h-103l-42 -78h145v-66z" />
    <glyph glyph-name="AE" unicode="&#xc6;" horiz-adv-x="819" 
d="M739 0h-326h-2v249h-260v-249h-71v357c0 40 7 62 33 90l126 133h76l98 -98v98h326v-68h-256v-194h194v-69h-194v-181h256v-68zM411 351c0 24 -1 33 -17 50l-112 117h-8l-106 -117c-16 -17 -17 -26 -17 -50v-35h260v35z" />
    <glyph glyph-name="Oslash" unicode="&#xd8;" horiz-adv-x="588" 
d="M508 127c0 -73 -53 -127 -127 -127h-174c-73 0 -127 54 -127 127v326c0 73 54 127 127 127h174c74 0 127 -54 127 -127v-326zM438 121v338c0 5 -1 11 -2 16l-233 -407h185c28 0 50 26 50 53zM386 512h-186c-28 0 -50 -26 -50 -53v-338c0 -6 1 -12 3 -18z" />
    <glyph glyph-name="infinity" unicode="&#x221e;" horiz-adv-x="756" 
d="M676 258c0 -73 -54 -127 -127 -127h-37c-100 0 -195 238 -272 238h-39c-27 0 -53 -23 -53 -50v-64c0 -35 26 -55 53 -50l114 21l17 -67l-112 -24c-67 -15 -140 48 -140 117v64c0 73 53 123 127 123h47c105 0 204 -238 268 -238h33c27 0 53 22 53 50v75
c0 27 -26 49 -53 43l-110 -24l-13 70l107 24c68 15 137 -39 137 -117v-64z" />
    <glyph glyph-name="plusminus" unicode="&#xb1;" horiz-adv-x="568" 
d="M488 342h-170v-171h-70v171h-168v70h168v168h70v-168h170v-70zM488 0h-408v62h408v-62z" />
    <glyph glyph-name="lessequal" unicode="&#x2264;" horiz-adv-x="433" 
d="M318 190l-49 -50l-189 189v55l189 189l49 -50l-165 -163v-7zM353 0h-273v62h273v-62z" />
    <glyph glyph-name="greaterequal" unicode="&#x2265;" horiz-adv-x="433" 
d="M353 329l-189 -189l-49 50l165 163v7l-165 163l49 50l189 -189v-55zM353 0h-273v62h273v-62z" />
    <glyph glyph-name="yen" unicode="&#xa5;" horiz-adv-x="564" 
d="M484 462c0 -40 -6 -61 -33 -88l-90 -86h49v-46h-87l-5 -5v-58h92v-46h-92v-81h-72v81h-88v46h88v58l-5 5h-83v46h45l-90 86c-27 27 -33 48 -33 88v66h70v-62c0 -24 1 -31 17 -48l107 -115h14l108 115c16 17 17 24 17 48v62h71v-66z" />
    <glyph glyph-name="mu" unicode="&#xb5;" horiz-adv-x="561" 
d="M531 0h-52c-53 0 -84 38 -84 79v7l-48 -52c-14 -15 -40 -31 -72 -32h-48c-19 0 -35 4 -46 15l-33 32v-137h-68v498h68v-276l45 -48c11 -12 24 -18 38 -18h31c29 0 35 2 55 23l76 82v237h68v-308c0 -27 9 -36 41 -36h29v-66z" />
    <glyph glyph-name="partialdiff" unicode="&#x2202;" horiz-adv-x="544" 
d="M479 147c0 -88 -63 -147 -149 -147h-123c-73 0 -127 54 -127 127v35c0 73 55 115 127 127l202 32v30c0 89 -72 161 -156 161h-61v68h64c121 0 223 -96 223 -238v-103v-92zM409 141v112l-209 -32c-27 -4 -50 -26 -50 -53v-47c0 -27 22 -53 50 -53h137c37 0 72 34 72 73z
" />
    <glyph glyph-name="summation" unicode="&#x2211;" horiz-adv-x="506" 
d="M426 0h-346v56l163 228v12l-163 228v56h346v-68h-254l151 -210v-25l-151 -209h254v-68z" />
    <glyph glyph-name="product" unicode="&#x220f;" horiz-adv-x="545" 
d="M485 0h-25c-80 0 -124 51 -124 112v402h-133v-514h-70v514h-73v66h425v-66h-79v-402c0 -27 21 -46 51 -46h28v-66z" />
    <glyph glyph-name="pi" unicode="&#x3c0;" horiz-adv-x="545" 
d="M485 0h-25c-80 0 -124 51 -124 112v232h-133v-344h-70v344h-73v66h425v-66h-79v-232c0 -27 21 -46 51 -46h28v-66z" />
    <glyph glyph-name="integral" unicode="&#x222b;" horiz-adv-x="484" 
d="M404 187c0 -73 -55 -129 -129 -129h-19v-145h-54v145h-122v470h122v132h54v-132h19c74 0 129 -56 129 -129v-10c0 -75 -52 -97 -52 -97s52 -19 52 -87v-18zM334 388v21c0 27 -22 56 -50 56h-138v-140h128c46 0 60 19 60 63zM334 176v21c0 43 -12 66 -56 66h-132v-143h138
c28 0 50 29 50 56z" />
    <glyph glyph-name="ordfeminine" unicode="&#xaa;" horiz-adv-x="415" 
d="M335 322v-202h-184c-54 0 -91 42 -91 89c0 44 38 81 91 81h127v27c0 28 -11 37 -44 37h-124v56h137c49 0 88 -40 88 -88zM335 0h-255v68h255v-68zM278 174v66h-130c-15 0 -32 -13 -32 -34c0 -17 14 -32 30 -32h132z" />
    <glyph glyph-name="ordmasculine" unicode="&#xba;" horiz-adv-x="425" 
d="M355 213c0 -53 -40 -93 -93 -93h-99c-53 0 -93 40 -93 93v104c0 53 40 93 93 93h99c53 0 93 -40 93 -93v-104zM339 0h-255v68h255v-68zM298 205v120c0 16 -13 30 -30 30h-111c-17 0 -30 -14 -30 -30v-120c0 -16 13 -30 30 -30h111c17 0 30 14 30 30z" />
    <glyph glyph-name="Omega" unicode="&#x2126;" horiz-adv-x="577" 
d="M497 309c0 -85 -106 -98 -106 -150c0 -18 16 -34 34 -34h66v-57h-66c-48 0 -97 41 -97 91c0 81 101 83 101 147v87c0 27 -22 53 -50 53h-181c-28 0 -50 -26 -50 -53v-87c0 -64 101 -66 101 -147c0 -50 -49 -91 -97 -91h-66v57h66c18 0 34 16 34 34c0 52 -106 65 -106 150
v74c0 73 53 129 127 129h163c74 0 127 -56 127 -129v-74z" />
    <glyph glyph-name="ae" unicode="&#xe6;" horiz-adv-x="800" 
d="M720 167h-292v-53c0 -27 23 -48 50 -48h189v-66h-193c-22 0 -69 18 -87 43c-17 -24 -58 -43 -92 -43h-108c-76 0 -127 58 -127 124c0 60 52 114 126 115h172v42c0 44 -20 60 -70 60h-154v69h172c34 0 69 -16 87 -41c17 24 55 41 92 41h108c74 0 127 -54 127 -127v-116z
M650 231v60c0 28 -22 50 -50 50h-122c-27 0 -49 -21 -50 -48v-2v-60h222zM358 175h-175c-26 0 -54 -21 -54 -55c0 -28 23 -54 50 -54h114c31 0 65 20 65 57v52z" />
    <glyph glyph-name="oslash" unicode="&#xf8;" horiz-adv-x="542" 
d="M472 129c0 -73 -55 -129 -129 -129h-144c-73 0 -129 56 -129 129v152c0 73 56 129 129 129h144c74 0 129 -56 129 -129v-152zM402 118v174c0 16 -7 30 -19 39l-149 -263h118c28 0 50 22 50 50zM319 342h-129c-28 0 -50 -22 -50 -50v-174c0 -19 11 -36 27 -44z" />
    <glyph glyph-name="questiondown" unicode="&#xbf;" horiz-adv-x="558" 
d="M322 492h-88v88h88v-88zM478 133c0 -73 -51 -133 -125 -133h-146c-73 0 -127 54 -127 127v39c0 111 162 144 162 219v40h72v-45c0 -99 -162 -142 -162 -210v-47c0 -27 23 -53 50 -53h154c28 0 50 26 50 53v32h72v-22z" />
    <glyph glyph-name="exclamdown" unicode="&#xa1;" horiz-adv-x="276" 
d="M181 492h-88v88h88v-88zM191 0h-106v143l18 269h70l18 -269v-143z" />
    <glyph glyph-name="logicalnot" unicode="&#xac;" horiz-adv-x="559" 
d="M479 155h-59v102h-340v66h399v-168z" />
    <glyph glyph-name="radical" unicode="&#x221a;" horiz-adv-x="727" 
d="M647 406h-148l-133 -406h-78l-100 230h-108v60h154l91 -210l124 388h198v-62z" />
    <glyph glyph-name="florin" unicode="&#x192;" horiz-adv-x="578" 
d="M578 492h-72v38c0 28 -23 50 -50 50h-82c-28 0 -50 -22 -50 -50v-206h112v-69h-112v-222c0 -74 -52 -121 -126 -121h-67c-73 0 -131 51 -131 125v31h72v-38c0 -28 23 -50 50 -50h82c28 0 50 22 50 50v225h-84v69h84v203c0 74 53 121 126 121h67c73 0 131 -51 131 -125
v-31z" />
    <glyph glyph-name="approxequal" unicode="&#x2248;" horiz-adv-x="490" 
d="M430 429l-114 -101c-19 -17 -41 -14 -60 5l-62 64c-7 7 -10 8 -16 2l-85 -77l-33 39l114 101c19 17 41 14 60 -5l63 -64c6 -6 9 -8 15 -2l85 77zM430 155l-114 -101c-19 -17 -41 -14 -60 5l-62 64c-7 7 -10 8 -16 2l-85 -77l-33 39l114 101c19 17 41 14 60 -5l63 -63
c6 -7 9 -9 15 -3l85 77z" />
    <glyph glyph-name="Delta" unicode="&#x2206;" horiz-adv-x="634" 
d="M554 0h-474l237 595zM448 68l-131 333l-131 -333h262z" />
    <glyph glyph-name="guillemotleft" unicode="&#xab;" horiz-adv-x="679" 
d="M599 49l-49 -49l-177 177v55l177 176l49 -49l-153 -151v-7zM306 49l-49 -49l-177 177v55l177 176l49 -49l-153 -151v-7z" />
    <glyph glyph-name="guillemotright" unicode="&#xbb;" horiz-adv-x="679" 
d="M599 177l-177 -177l-49 49l153 152v7l-153 151l49 49l177 -176v-55zM306 177l-177 -177l-49 49l153 152v7l-153 151l49 49l177 -176v-55z" />
    <glyph glyph-name="ellipsis" unicode="&#x2026;" horiz-adv-x="720" 
d="M640 10c0 -6 -4 -10 -10 -10h-92c-6 0 -10 4 -10 10v92c0 6 4 10 10 10h92c6 0 10 -4 10 -10v-92zM416 10c0 -6 -4 -10 -10 -10h-92c-6 0 -10 4 -10 10v92c0 6 4 10 10 10h92c6 0 10 -4 10 -10v-92zM192 10c0 -6 -4 -10 -10 -10h-92c-6 0 -10 4 -10 10v92c0 6 4 10 10 10
h92c6 0 10 -4 10 -10v-92z" />
    <glyph glyph-name="Agrave" unicode="&#xc0;" 
d="M490 357v-357h-71v192h-268v-192h-71v357c0 40 7 63 33 90l134 133h76l134 -133c26 -27 33 -50 33 -90zM419 351c0 24 -1 33 -17 50l-112 117h-8l-114 -117c-16 -17 -17 -26 -17 -50v-96h268v96zM329 651h-64l-62 150h64z" />
    <glyph glyph-name="Atilde" unicode="&#xc3;" 
d="M490 357v-357h-71v192h-268v-192h-71v357c0 40 7 63 33 90l134 133h76l134 -133c26 -27 33 -50 33 -90zM419 351c0 24 -1 33 -17 50l-112 117h-8l-114 -117c-16 -17 -17 -26 -17 -50v-96h268v96zM433 721l-73 -79c-15 -15 -34 -15 -50 0l-48 48c-5 6 -8 6 -13 1l-50 -55
l-30 29l73 78c14 15 34 15 49 0l48 -48c6 -6 8 -6 13 -1l51 56z" />
    <glyph glyph-name="Otilde" unicode="&#xd5;" horiz-adv-x="588" 
d="M508 127c0 -73 -53 -127 -127 -127h-174c-73 0 -127 54 -127 127v326c0 73 54 127 127 127h174c74 0 127 -54 127 -127v-326zM438 121v338c0 27 -22 53 -50 53h-188c-28 0 -50 -26 -50 -53v-338c0 -27 22 -53 50 -53h188c28 0 50 26 50 53zM433 721l-73 -79
c-15 -15 -34 -15 -50 0l-48 48c-5 6 -8 6 -13 1l-50 -55l-30 29l73 78c14 15 34 15 49 0l48 -48c6 -6 8 -6 13 -1l51 56z" />
    <glyph glyph-name="OE" unicode="&#x152;" horiz-adv-x="837" 
d="M757 0h-326v31c-12 -16 -44 -31 -70 -31h-154c-73 0 -127 54 -127 127v326c0 73 54 127 127 127h154c26 0 57 -13 70 -29v29h326v-68h-269v-188h207v-69h-207v-187h269v-68zM418 121v338c0 27 -22 53 -50 53h-168c-28 0 -50 -26 -50 -53v-338c0 -27 22 -53 50 -53h168
c28 0 50 26 50 53z" />
    <glyph glyph-name="oe" unicode="&#x153;" horiz-adv-x="831" 
d="M751 167h-294v-51c0 -28 22 -50 50 -50h191v-66h-184c-38 0 -73 17 -93 42c-19 -24 -56 -42 -94 -42h-118c-73 0 -129 56 -129 129v152c0 73 56 129 129 129h118c38 0 79 -17 94 -42c18 25 55 42 93 42h110c74 0 127 -54 127 -127v-116zM681 231v60c0 28 -22 50 -50 50
h-124c-28 0 -50 -22 -50 -50v-60h224zM386 118v174c0 28 -22 50 -50 50h-136c-28 0 -50 -22 -50 -50v-174c0 -28 22 -50 50 -50h136c28 0 50 22 50 50z" />
    <glyph glyph-name="endash" unicode="&#x2013;" horiz-adv-x="302" 
d="M272 0h-242v54h242v-54z" />
    <glyph glyph-name="emdash" unicode="&#x2014;" horiz-adv-x="360" 
d="M365 0h-370v54h370v-54z" />
    <glyph glyph-name="quotedblleft" unicode="&#x201c;" horiz-adv-x="456" 
d="M378 599l-49 -79v-8h34c6 0 10 -4 10 -10v-80c0 -6 -4 -10 -10 -10h-92c-6 0 -10 4 -10 10v59c0 23 5 35 15 45l73 96zM195 599l-49 -79v-8h34s10 -4 10 -10v-80c0 -6 -4 -10 -10 -10h-92c-6 0 -10 4 -10 10v59c0 23 5 35 15 45l73 96z" />
    <glyph glyph-name="quotedblright" unicode="&#x201d;" horiz-adv-x="456" 
d="M378 543c0 -23 -5 -35 -15 -45l-73 -96l-29 23l49 79v8h-34s-10 4 -10 10v80c0 6 4 10 10 10h92c6 0 10 -4 10 -10v-59zM195 543c0 -23 -5 -35 -15 -45l-73 -96l-29 23l49 79v8h-34c-6 0 -10 4 -10 10v80c0 6 4 10 10 10h92c6 0 10 -4 10 -10v-59z" />
    <glyph glyph-name="quoteleft" unicode="&#x2018;" horiz-adv-x="273" 
d="M195 599l-49 -79v-8h34s10 -4 10 -10v-80c0 -6 -4 -10 -10 -10h-92c-6 0 -10 4 -10 10v59c0 23 5 35 15 45l73 96z" />
    <glyph glyph-name="quoteright" unicode="&#x2019;" horiz-adv-x="273" 
d="M195 543c0 -23 -5 -35 -15 -45l-73 -96l-29 23l49 79v8h-34c-6 0 -10 4 -10 10v80c0 6 4 10 10 10h92c6 0 10 -4 10 -10v-59z" />
    <glyph glyph-name="divide" unicode="&#xf7;" horiz-adv-x="568" 
d="M324 410h-82v83h82v-83zM488 255h-408v70h408v-70zM324 84h-82v83h82v-83z" />
    <glyph glyph-name="lozenge" unicode="&#x25ca;" horiz-adv-x="677" 
d="M597 259l-258 -259l-259 259l259 258zM498 259l-159 159l-160 -159l160 -160z" />
    <glyph glyph-name="ydieresis" unicode="&#xff;" horiz-adv-x="544" 
d="M464 39c0 -73 -53 -127 -127 -127h-173v69h180c28 0 50 23 50 50v37h-187c-73 0 -127 54 -127 127v215h70v-223c0 -27 22 -50 50 -50h194v273h70v-371zM400 468h-68v68h68v-68zM214 468h-68v68h68v-68z" />
    <glyph glyph-name="Ydieresis" unicode="&#x178;" horiz-adv-x="564" 
d="M484 432c0 -40 -7 -61 -33 -88l-133 -137v-207h-72v207l-133 137c-26 27 -33 48 -33 88v148h70v-144c0 -24 1 -31 17 -48l107 -115h14l108 115c16 17 17 24 17 48v144h71v-148zM412 654h-68v68h68v-68zM226 654h-68v68h68v-68z" />
    <glyph glyph-name="fraction" unicode="&#x2044;" horiz-adv-x="454" 
d="M424 653l-326 -767l-68 31l325 767z" />
    <glyph glyph-name="guilsinglleft" unicode="&#x2039;" horiz-adv-x="386" 
d="M306 129l-49 -49l-177 177v55l177 176l49 -49l-153 -151v-7z" />
    <glyph glyph-name="guilsinglright" unicode="&#x203a;" horiz-adv-x="386" 
d="M306 257l-177 -177l-49 49l153 152v7l-153 151l49 49l177 -176v-55z" />
    <glyph glyph-name="fi" unicode="&#xfb01;" horiz-adv-x="713" 
d="M653 0h-240v64h84v193h-283v-257h-70v257h-84v67h84v135c0 74 53 121 126 121h87c74 0 131 -51 131 -125v-31h-72v38c0 28 -22 50 -50 50h-102c-27 0 -50 -22 -50 -50v-137h353v-261h86v-64z" />
    <glyph glyph-name="fl" unicode="&#xfb02;" horiz-adv-x="708" 
d="M653 0h-240v64h85v448h-234c-27 0 -51 -22 -51 -50l1 -137h130v-68h-130v-257h-70v257h-84v67h84v135c0 74 53 121 126 121h298v-516h85v-64z" />
    <glyph glyph-name="daggerdbl" unicode="&#x2021;" horiz-adv-x="391" 
d="M311 282h-87v-112h-58v112h-86v56h86v102h-86v56h86v84h58v-84h87v-56h-87v-102h87v-56z" />
    <glyph glyph-name="periodcentered" unicode="&#xb7;" horiz-adv-x="280" 
d="M192 248c0 -6 -4 -10 -10 -10h-92c-6 0 -10 4 -10 10v92c0 6 4 10 10 10h92c6 0 10 -4 10 -10v-92z" />
    <glyph glyph-name="quotesinglbase" unicode="&#x201a;" horiz-adv-x="279" 
d="M199 37c0 -23 -5 -35 -15 -45l-73 -96l-29 23l49 79v8h-34c-6 0 -10 4 -10 10v80c0 6 4 10 10 10h92c6 0 10 -4 10 -10v-59z" />
    <glyph glyph-name="quotedblbase" unicode="&#x201e;" horiz-adv-x="456" 
d="M378 31c0 -23 -5 -35 -15 -45l-73 -96l-29 23l49 79v8h-34s-10 4 -10 10v80c0 6 4 10 10 10h92c6 0 10 -4 10 -10v-59zM195 31c0 -23 -5 -35 -15 -45l-73 -96l-29 23l49 79v8h-34c-6 0 -10 4 -10 10v80c0 6 4 10 10 10h92c6 0 10 -4 10 -10v-59z" />
    <glyph glyph-name="perthousand" unicode="&#x2030;" horiz-adv-x="965" 
d="M885 54c0 -41 -33 -74 -74 -74h-72c-41 0 -74 33 -74 74v72c0 41 33 74 74 74h72c41 0 74 -33 74 -74v-72zM300 434c0 -41 -33 -74 -74 -74h-72c-41 0 -74 33 -74 74v72c0 41 33 74 74 74h72c41 0 74 -33 74 -74v-72zM573 580l-420 -625l-61 45l421 625zM567 54
c0 -41 -33 -74 -74 -74h-72c-41 0 -74 33 -74 74v72c0 41 33 74 74 74h72c41 0 74 -33 74 -74v-72zM825 51v78c0 6 -5 11 -11 11h-78c-6 0 -11 -5 -11 -11v-78c0 -6 5 -11 11 -11h78c6 0 11 5 11 11zM240 431v78c0 6 -5 11 -11 11h-78c-6 0 -11 -5 -11 -11v-78
c0 -6 5 -11 11 -11h78c6 0 11 5 11 11zM507 51v78c0 6 -5 11 -11 11h-78c-6 0 -11 -5 -11 -11v-78c0 -6 5 -11 11 -11h78c6 0 11 5 11 11z" />
    <glyph glyph-name="Acircumflex" unicode="&#xc2;" 
d="M490 357v-357h-71v192h-268v-192h-71v357c0 40 7 63 33 90l134 133h76l134 -133c26 -27 33 -50 33 -90zM419 351c0 24 -1 33 -17 50l-112 117h-8l-114 -117c-16 -17 -17 -26 -17 -50v-96h268v96zM405 661l-40 -26l-79 73h-6l-79 -73l-40 26l100 98h44z" />
    <glyph glyph-name="Ecircumflex" unicode="&#xca;" horiz-adv-x="506" 
d="M426 0h-346v580h346v-68h-276v-188h214v-69h-214v-187h276v-68zM376 661l-40 -26l-79 73h-6l-79 -73l-40 26l100 98h44z" />
    <glyph glyph-name="Aacute" unicode="&#xc1;" 
d="M490 357v-357h-71v192h-268v-192h-71v357c0 40 7 63 33 90l134 133h76l134 -133c26 -27 33 -50 33 -90zM419 351c0 24 -1 33 -17 50l-112 117h-8l-114 -117c-16 -17 -17 -26 -17 -50v-96h268v96zM353 799l-68 -150h-64l68 150h64z" />
    <glyph glyph-name="Edieresis" unicode="&#xcb;" horiz-adv-x="506" 
d="M426 0h-346v580h346v-68h-276v-188h214v-69h-214v-187h276v-68zM376 654h-68v68h68v-68zM190 654h-68v68h68v-68z" />
    <glyph glyph-name="Egrave" unicode="&#xc8;" horiz-adv-x="506" 
d="M426 0h-346v580h346v-68h-276v-188h214v-69h-214v-187h276v-68zM285 651h-64l-62 150h64z" />
    <glyph glyph-name="Iacute" unicode="&#xcd;" horiz-adv-x="400" 
d="M320 0h-240v66h84v448h-84v66h240v-66h-85v-448h85v-66zM276 800l-68 -150h-64l68 150h64z" />
    <glyph glyph-name="Icircumflex" unicode="&#xce;" horiz-adv-x="400" 
d="M320 0h-240v66h84v448h-84v66h240v-66h-85v-448h85v-66zM320 661l-40 -26l-79 73h-6l-79 -73l-40 26l100 98h44z" />
    <glyph glyph-name="Idieresis" unicode="&#xcf;" horiz-adv-x="400" 
d="M320 0h-240v66h84v448h-84v66h240v-66h-85v-448h85v-66zM329 654h-68v68h68v-68zM143 654h-68v68h68v-68z" />
    <glyph glyph-name="Igrave" unicode="&#xcc;" horiz-adv-x="400" 
d="M320 0h-240v66h84v448h-84v66h240v-66h-85v-448h85v-66zM242 650h-64l-62 150h64z" />
    <glyph glyph-name="Oacute" unicode="&#xd3;" horiz-adv-x="588" 
d="M508 127c0 -73 -53 -127 -127 -127h-174c-73 0 -127 54 -127 127v326c0 73 54 127 127 127h174c74 0 127 -54 127 -127v-326zM438 121v338c0 27 -22 53 -50 53h-188c-28 0 -50 -26 -50 -53v-338c0 -27 22 -53 50 -53h188c28 0 50 26 50 53zM382 801l-68 -150h-64l68 150
h64z" />
    <glyph glyph-name="Ocircumflex" unicode="&#xd4;" horiz-adv-x="588" 
d="M508 127c0 -73 -53 -127 -127 -127h-174c-73 0 -127 54 -127 127v326c0 73 54 127 127 127h174c74 0 127 -54 127 -127v-326zM438 121v338c0 27 -22 53 -50 53h-188c-28 0 -50 -26 -50 -53v-338c0 -27 22 -53 50 -53h188c28 0 50 26 50 53zM415 661l-40 -26l-79 73h-6
l-79 -73l-40 26l100 98h44z" />
    <glyph glyph-name="apple" horiz-adv-x="739" 
d="M689 67h-3v9l-3 -7h-2l-3 7v-9h-3v12h4l3 -7l2 7h5v-12zM673 76h-4v-9h-3v9h-4v3h11v-3zM651 74c0 -5 -5 -10 -10 -10c-6 0 -11 5 -11 11c0 5 5 10 11 10c5 0 10 -5 10 -11zM552 256c0 -29 -7 -44 -28 -54l-161 -82v202l131 66c26 14 58 2 58 -36v-96zM619 46
c0 -5 -4 -9 -10 -9c-5 0 -9 4 -9 9s4 10 9 10c6 0 10 -5 10 -10zM493 470c25 -14 24 -45 -7 -61l-126 -63c-9 -5 -9 -9 -9 -16v-217l-201 102v197c0 21 5 30 22 39c16 9 102 53 124 64c41 21 72 17 110 -1c24 -12 65 -32 87 -44zM589 23l-10 -1l-9 23h-2h-6v-22h-9v51h17
c6 0 18 0 18 -14c0 -7 -5 -11 -9 -13zM542 48c0 -17 -7 -26 -20 -26c-5 0 -9 2 -12 5c-5 4 -7 11 -7 21c0 11 2 18 6 22c4 3 8 5 13 5s9 -2 12 -5c5 -4 8 -12 8 -22zM497 74l-17 -51h-8l-17 51h10l11 -36l11 36h10zM444 23h-9v22h-16v-22h-10v51h10v-21h16v21h9v-51zM398 36
c0 -12 -12 -13 -18 -13h-20v6h3v38h-3v7h19c5 0 17 -1 17 -12c0 0 0 -11 -9 -12c11 -2 11 -14 11 -14zM349 38l-7 -12h-6l6 12l-6 10l2 2h4zM337 38l-7 -12h-6l6 12l-6 10l2 2h4zM313 35c-3 -9 -9 -13 -19 -13c-4 0 -9 2 -12 5c-4 4 -6 11 -6 21c0 11 2 18 7 22
c3 3 8 5 12 5c10 0 15 -6 17 -13l-9 -2c-1 5 -3 8 -8 8c-7 0 -9 -6 -9 -19s2 -20 10 -20c4 0 8 4 9 9zM265 23h-10v22h-16v-22h-9v51h9v-21h16v21h10v-51zM219 59c0 -15 -15 -15 -20 -15h-6v-21h-9v51h17c5 0 18 -1 18 -15zM172 23l-9 -1l-9 23h-2h-6v-22h-10v51h17
c7 0 18 0 18 -14c0 -7 -4 -11 -9 -13zM125 25l-3 -2l-3 3c-4 -4 -12 -4 -12 -4c-5 0 -9 2 -13 5c-4 4 -6 11 -6 21c0 11 3 18 7 22c3 3 8 5 13 5c9 0 15 -5 17 -13l-9 -2c-1 5 -4 8 -9 8c-7 0 -9 -6 -9 -19s2 -20 10 -20c0 0 5 0 8 4v10h-9v6h18v-24zM77 69c0 0 0 -9 -9 -12
l-4 1v3c2 1 5 3 5 3s2 2 2 5h-4v10h10v-10zM63 69c0 0 0 -9 -9 -12l-4 1v3c2 1 5 3 5 3s2 2 1 5h-3v10h10v-10zM646 74c0 4 -2 6 -5 6c-4 0 -6 -2 -6 -6c0 -3 2 -5 6 -5c3 0 5 2 5 5zM578 60c0 7 -6 8 -10 8h-6v-16h7c4 0 9 2 9 8zM532 48c0 14 -3 20 -10 20s-9 -6 -9 -20
s3 -19 9 -19s10 5 10 19zM386 60c0 6 -5 7 -8 7h-6v-14h7c3 0 7 1 7 7zM388 37c0 7 -7 9 -9 9h-7v-17h6c5 0 10 1 10 8zM209 59c0 7 -6 9 -10 9h-6v-17h7c4 0 9 2 9 8zM161 60c0 7 -5 8 -9 8h-6v-16h7c4 0 8 2 8 8z" />
    <glyph glyph-name="Ograve" unicode="&#xd2;" horiz-adv-x="588" 
d="M508 127c0 -73 -53 -127 -127 -127h-174c-73 0 -127 54 -127 127v326c0 73 54 127 127 127h174c74 0 127 -54 127 -127v-326zM438 121v338c0 27 -22 53 -50 53h-188c-28 0 -50 -26 -50 -53v-338c0 -27 22 -53 50 -53h188c28 0 50 26 50 53zM339 651h-64l-62 150h64z" />
    <glyph glyph-name="Uacute" unicode="&#xda;" horiz-adv-x="568" 
d="M488 127c0 -73 -53 -127 -127 -127h-154c-73 0 -127 53 -127 127v453h74v-459c0 -27 22 -53 50 -53h160c28 0 50 26 50 53v459h74v-453zM367 800l-68 -150h-64l68 150h64z" />
    <glyph glyph-name="Ucircumflex" unicode="&#xdb;" horiz-adv-x="568" 
d="M488 127c0 -73 -53 -127 -127 -127h-154c-73 0 -127 53 -127 127v453h74v-459c0 -27 22 -53 50 -53h160c28 0 50 26 50 53v459h74v-453zM405 661l-40 -26l-79 73h-6l-79 -73l-40 26l100 98h44z" />
    <glyph glyph-name="Ugrave" unicode="&#xd9;" horiz-adv-x="568" 
d="M488 127c0 -73 -53 -127 -127 -127h-154c-73 0 -127 53 -127 127v453h74v-459c0 -27 22 -53 50 -53h160c28 0 50 26 50 53v459h74v-453zM327 651h-64l-62 150h64z" />
    <glyph glyph-name="dotlessi" unicode="&#x131;" horiz-adv-x="380" 
d="M320 0h-240v64h84v280h-84v66h154v-346h86v-64z" />
    <glyph glyph-name="circumflex" unicode="&#x2c6;" 
d="M405 661l-40 -26l-79 73h-6l-79 -73l-40 26l100 98h44z" />
    <glyph glyph-name="tilde" unicode="&#x2dc;" 
d="M433 721l-73 -79c-15 -15 -34 -15 -50 0l-48 48c-5 6 -8 6 -13 1l-50 -55l-30 29l73 78c14 15 34 15 49 0l48 -48c6 -6 8 -6 13 -1l51 56z" />
    <glyph glyph-name="macron" unicode="&#xaf;" 
d="M389 668h-220v50h220v-50z" />
    <glyph glyph-name="breve" unicode="&#x2d8;" 
d="M407 704c0 0 -39 -68 -121 -68s-121 68 -121 68l36 30s33 -48 85 -48s85 48 85 48z" />
    <glyph glyph-name="dotaccent" unicode="&#x2d9;" 
d="M320 658h-72v72h72v-72z" />
    <glyph glyph-name="ring" unicode="&#x2da;" 
d="M360 676c0 -28 -23 -51 -51 -51h-49c-28 0 -51 23 -51 51v49c0 28 23 50 51 50h49c28 0 51 -22 51 -50v-49zM319 674v53c0 4 -4 7 -8 7h-53c-4 0 -8 -3 -8 -7v-53c0 -5 4 -8 8 -8h53c4 0 8 3 8 8z" />
    <glyph glyph-name="cedilla" unicode="&#xb8;" horiz-adv-x="568" 
d="M329 -29c9 -57 -32 -105 -98 -105h-49v52h48c33 0 48 27 43 53l-8 44h57z" />
    <glyph glyph-name="hungarumlaut" unicode="&#x2dd;" 
d="M425 786l-54 -131h-56l54 131h56zM293 786l-54 -131h-56l54 131h56z" />
    <glyph glyph-name="ogonek" unicode="&#x2db;" horiz-adv-x="568" 
d="M330 -134h-49c-66 0 -107 48 -98 105l7 44h57l-8 -44c-5 -26 10 -53 43 -53h48v-52z" />
    <glyph glyph-name="caron" unicode="&#x2c7;" 
d="M406 733l-100 -98h-45l-100 98l40 26l79 -73h6l79 73z" />
    <glyph glyph-name="Eth" unicode="&#xd0;" horiz-adv-x="580" 
d="M500 127c0 -73 -53 -127 -127 -127h-283v255h-40v70h40v255h283c74 0 127 -54 127 -127v-326zM428 121v338c0 27 -22 53 -50 53h-218v-187h146v-70h-146v-187h218c28 0 50 26 50 53z" />
    <glyph glyph-name="onehalf" unicode="&#xbd;" horiz-adv-x="500" 
 />
    <glyph glyph-name="onequarter" unicode="&#xbc;" horiz-adv-x="500" 
 />
    <glyph glyph-name="onesuperior" unicode="&#xb9;" horiz-adv-x="500" 
 />
    <glyph glyph-name="threequarters" unicode="&#xbe;" horiz-adv-x="500" 
 />
    <glyph glyph-name="threesuperior" unicode="&#xb3;" horiz-adv-x="500" 
 />
    <glyph glyph-name="twosuperior" unicode="&#xb2;" horiz-adv-x="500" 
 />
    <glyph glyph-name="uni00A0" unicode="&#xa0;" horiz-adv-x="350" 
 />
    <glyph glyph-name="Euro" unicode="&#x20ac;" horiz-adv-x="550" 
d="M470 121v-69h-193c-73 0 -127 54 -127 127v22h-70v48h70v82h-70v48h70v28c0 73 54 127 127 127h193v-70h-198c-27 0 -50 -26 -50 -53v-32h110v-48h-110v-82h110v-48h-110v-27c0 -27 23 -53 50 -53h198z" />
    <glyph glyph-name="CR" horiz-adv-x="500" 
 />
    </font>
</defs>
</svg>
