<?xml version="1.0" standalone="no"?>
<!DOCTYPE svg PUBLIC "-//W3C//DTD SVG 1.1//EN" "http://www.w3.org/Graphics/SVG/1.1/DTD/svg11.dtd" >
<svg xmlns="http://www.w3.org/2000/svg" width="100%" height="100%">
<metadata>
Created by FontXChange 20110222 at Mon Oct 14 15:12:07 2013
 By James Beall
2003 T.26 Digital Type Foundry www.t26.com PSID#5134269 designer: Anuthin Wongsunkakon
</metadata>
<defs>
<font id="Carbon-Thin" horiz-adv-x="549" >
  <font-face 
    font-family="Carbon"
    font-weight="400"
    font-stretch="normal"
    units-per-em="1000"
    panose-1="2 0 5 6 2 0 0 2 0 4"
    ascent="800"
    descent="-200"
    x-height="410"
    cap-height="580"
    bbox="-16 -200 866 801"
    underline-thickness="20"
    underline-position="-113"
    stemh="1000"
    stemv="1000"
    unicode-range="U+0020-FB02"
  />
<missing-glyph horiz-adv-x="1000" 
 />
    <glyph glyph-name=".notdef" horiz-adv-x="1000" 
 />
    <glyph glyph-name="eth" unicode="&#xf0;" horiz-adv-x="519" 
d="M479 541l-61 -53c27 -39 42 -88 42 -144v-107v-94c0 -86 -59 -143 -141 -143h-122c-69 0 -119 51 -119 122v36c0 70 50 111 120 122l209 34v39c0 37 -11 71 -30 99l-61 -53l-34 40l61 52c-28 23 -63 36 -100 36h-53v53h56c52 0 100 -19 138 -53l61 53zM407 137v125
l-219 -34c-30 -5 -57 -30 -57 -64v-48c0 -32 26 -63 58 -63h138c41 0 80 38 80 84z" />
    <glyph glyph-name="Lslash" unicode="&#x141;" horiz-adv-x="460" 
d="M402 0h-317v273h-45v52h45v255h57v-255h154v-52h-154v-220h260v-53z" />
    <glyph glyph-name="lslash" unicode="&#x142;" horiz-adv-x="354" 
d="M301 0h-223v48h85v225h-83v52h83v207h-85v48h138v-255h85v-52h-85v-225h85v-48z" />
    <glyph glyph-name="Scaron" unicode="&#x160;" horiz-adv-x="527" 
d="M449 120c0 -71 -50 -122 -119 -122h-154c-69 0 -119 51 -119 122v16h53v-22c0 -32 26 -63 59 -63h168c33 0 59 31 59 63v82c0 33 -25 63 -58 64l-157 5c-70 2 -120 51 -120 122v71c0 71 52 122 121 122h140c69 0 119 -51 119 -122v-17h-53v23c0 32 -26 63 -59 63h-156
c-33 0 -59 -31 -59 -63v-83c0 -33 26 -63 59 -64l157 -4c68 -2 119 -51 119 -122v-71zM365 737l-94 -95h-41l-94 95l32 21l77 -74h10l78 74z" />
    <glyph glyph-name="scaron" unicode="&#x161;" horiz-adv-x="495" 
d="M422 118c0 -63 -47 -118 -119 -118h-221v53h228c32 0 58 26 58 61c0 43 -33 59 -61 60l-130 5c-74 2 -125 50 -125 111c0 63 48 120 119 120h216v-53h-223c-32 0 -58 -29 -58 -63c0 -44 40 -61 65 -62l133 -4c70 -1 118 -52 118 -110zM349 571l-94 -94h-41l-94 94l32 21
l78 -73h9l78 73z" />
    <glyph glyph-name="Yacute" unicode="&#xdd;" horiz-adv-x="543" 
d="M455 580l-1 -143c0 -40 -6 -59 -30 -85l-135 -144v-208h-55v208l-136 144c-24 26 -31 45 -31 85v143h53v-140c0 -25 1 -35 19 -55l111 -121h21l110 121c18 20 19 30 19 55v140h55zM327 801l-61 -142h-45l61 142h45z" />
    <glyph glyph-name="yacute" unicode="&#xfd;" horiz-adv-x="523" 
d="M435 410v-375c0 -71 -50 -123 -119 -123h-165v54h172c33 0 59 27 59 61v47h-196c-69 0 -119 51 -119 123v213h53v-222c0 -33 27 -60 59 -60h203v282h53zM333 617l-61 -141h-45l61 141h45z" />
    <glyph glyph-name="Thorn" unicode="&#xde;" horiz-adv-x="521" 
d="M453 383c0 -71 -50 -122 -119 -122h-203v-261h-53v695h53v-118h203c69 0 119 -51 119 -122v-72zM400 376v88c0 32 -25 63 -58 63h-211v-214h211c33 0 58 31 58 63z" />
    <glyph glyph-name="thorn" unicode="&#xfe;" horiz-adv-x="524" 
d="M446 194c0 -71 -50 -122 -119 -122h-196v-160h-53v668h53v-174h196c69 0 119 -52 119 -122v-90zM390 184v109c0 33 -26 60 -58 60h-201v-229h201c32 0 58 27 58 60z" />
    <glyph glyph-name="Zcaron" unicode="&#x17d;" horiz-adv-x="531" 
d="M443 0h-376v48l303 479h-303v53h376v-48l-303 -479h303v-53zM377 737l-94 -95h-41l-94 95l32 21l77 -74h10l78 74z" />
    <glyph glyph-name="zcaron" unicode="&#x17e;" horiz-adv-x="508" 
d="M420 0h-353v48l279 313h-279v49h353v-48l-279 -313h279v-49zM366 571l-94 -95h-41l-94 95l32 21l78 -74h9l78 74z" />
    <glyph glyph-name="brokenbar" unicode="&#xa6;" horiz-adv-x="209" 
d="M131 380h-53v339h53v-339zM131 -114h-53v339h53v-339z" />
    <glyph glyph-name="minus" unicode="&#x2212;" horiz-adv-x="458" 
d="M380 257h-302v51h302v-51z" />
    <glyph glyph-name="multiply" unicode="&#xd7;" horiz-adv-x="502" 
d="M420 152l-37 -39l-132 135l-132 -135l-37 38l132 136l-130 133l37 39l130 -134l130 134l38 -39l-130 -133z" />
    <glyph glyph-name="space" unicode=" " horiz-adv-x="350" 
 />
    <glyph glyph-name="exclam" unicode="!" horiz-adv-x="255" 
d="M172 441l-17 -268h-55l-17 269v138h89v-139zM162 0h-71v73h71v-73z" />
    <glyph glyph-name="quotedbl" unicode="&#x22;" horiz-adv-x="384" 
d="M306 410h-53v170h53v-170zM131 410h-53v170h53v-170z" />
    <glyph glyph-name="numbersign" unicode="#" horiz-adv-x="581" 
d="M502 405l-5 -49h-86l-12 -135h86l-5 -48h-86l-17 -173h-49l17 173h-133l-17 -173h-49l17 173h-84l5 48h84l12 135h-84l5 49h84l17 175h49l-17 -175h133l17 175h49l-17 -175h86zM362 356h-133l-12 -135h133z" />
    <glyph glyph-name="dollar" unicode="$" horiz-adv-x="525" 
d="M447 205c0 -62 -47 -116 -119 -116h-37v-177h-37v177h-146v52h227c32 0 59 26 59 60c0 42 -34 58 -62 59l-129 4c-74 3 -125 50 -125 109c0 63 47 118 119 118h57v169h37v-169h121v-52h-222c-33 0 -59 -28 -59 -62c0 -42 41 -60 65 -61l133 -3c70 -2 118 -52 118 -108z
" />
    <glyph glyph-name="percent" unicode="%" horiz-adv-x="632" 
d="M281 438c0 -38 -29 -68 -65 -68h-72c-37 0 -66 30 -66 68v73c0 38 29 68 66 68h72c36 0 65 -30 65 -68v-73zM551 586l-411 -627l-46 35l410 627zM548 48c0 -37 -29 -67 -65 -67h-73c-36 0 -65 30 -65 67v74c0 37 29 67 65 67h72c37 0 66 -30 66 -67v-74zM238 435v79
c0 12 -9 21 -20 21h-77c-11 0 -20 -9 -20 -21v-79c0 -12 9 -21 20 -21h77c11 0 20 9 20 21zM505 45v80c0 11 -9 20 -20 20h-77c-11 0 -20 -9 -20 -20v-80c0 -11 9 -20 20 -20h77c11 0 20 9 20 20z" />
    <glyph glyph-name="ampersand" unicode="&#x26;" horiz-adv-x="556" 
d="M500 16l-37 -37l-57 66c-35 -33 -72 -50 -113 -50h-106c-69 0 -119 51 -119 118v103c0 42 23 79 72 93c-37 23 -50 55 -50 81v80c0 71 48 118 117 118h30c69 0 115 -47 115 -118v-48h-53v58c0 33 -21 60 -54 60h-45c-33 0 -57 -27 -57 -60v-74c0 -53 20 -71 46 -82
c12 -5 25 -8 38 -14c13 -5 25 -13 36 -25l135 -161c13 31 18 52 18 72v49h53v-43c0 -37 -10 -76 -32 -115zM368 82l-148 170c-40 46 -99 18 -99 -37v-106c0 -33 26 -62 58 -62h113c25 0 49 12 76 35z" />
    <glyph glyph-name="quotesingle" unicode="'" horiz-adv-x="209" 
d="M131 410h-53v170h53v-170z" />
    <glyph glyph-name="parenleft" unicode="(" horiz-adv-x="376" 
d="M298 -88h-81c-78 0 -139 63 -139 142v452c0 79 61 142 139 142h81v-52h-88c-46 0 -79 -40 -79 -84v-464c0 -44 33 -84 78 -84h89v-52z" />
    <glyph glyph-name="parenright" unicode=")" horiz-adv-x="376" 
d="M298 54c0 -79 -61 -142 -139 -142h-81v52h88c46 0 79 40 79 84v464c0 44 -33 84 -78 84h-89v52h81c78 0 139 -63 139 -142v-452z" />
    <glyph glyph-name="asterisk" unicode="*" horiz-adv-x="513" 
d="M431 386l-107 -91v-16l107 -91l-39 -39l-103 107l-13 -9l7 -148h-54l8 148l-13 9l-104 -107l-38 39l107 91v16l-107 91l38 39l104 -107l13 9l-8 150h54l-7 -150l13 -9l103 107z" />
    <glyph glyph-name="plus" unicode="+" horiz-adv-x="547" 
d="M469 262h-170v-178h-53v178h-168v55h168v175h53v-175h170v-55z" />
    <glyph glyph-name="comma" unicode="," horiz-adv-x="252" 
d="M174 24c0 -11 -3 -20 -13 -35l-66 -92l-19 15l47 81v13h-34c-6 0 -10 4 -10 10v67c0 6 4 10 10 10h75c6 0 10 -4 10 -10v-59z" />
    <glyph glyph-name="hyphen" unicode="-" horiz-adv-x="434" 
d="M356 257h-278v52h278v-52z" />
    <glyph glyph-name="period" unicode="." horiz-adv-x="251" 
d="M173 10c0 -6 -4 -10 -10 -10h-75c-6 0 -10 4 -10 10v75c0 6 4 10 10 10h75c6 0 10 -4 10 -10v-75z" />
    <glyph glyph-name="slash" unicode="/" horiz-adv-x="433" 
d="M402 656l-318 -767l-53 25l318 767z" />
    <glyph glyph-name="zero" unicode="0" 
d="M471 122c0 -71 -50 -122 -119 -122h-155c-69 0 -119 51 -119 122v336c0 71 50 122 119 122h155c69 0 119 -51 119 -122v-336zM418 116v348c0 32 -25 63 -58 63h-170c-33 0 -59 -31 -59 -63v-348c0 -32 26 -63 58 -63h171c33 0 58 31 58 63zM307 259c0 -1 -1 -1 -1 -1h-60
s-1 0 -1 1v61c0 1 1 1 1 1h60s1 0 1 -1v-61z" />
    <glyph glyph-name="one" unicode="1" horiz-adv-x="383" 
d="M315 0h-239v48h92v451l-67 -65l-30 31l103 115h47v-532h94v-48z" />
    <glyph glyph-name="two" unicode="2" horiz-adv-x="531" 
d="M453 0h-375v57c0 90 74 151 154 205c20 13 39 26 58 38c19 13 36 25 51 37c30 25 53 52 53 85v40c0 32 -26 63 -59 63h-143c-33 0 -59 -31 -59 -63v-24h-55v13c0 72 49 129 117 129h133c70 0 121 -46 121 -116v-44c0 -76 -72 -129 -151 -181c-20 -13 -39 -26 -57 -39
c-19 -12 -36 -25 -51 -39c-29 -26 -51 -56 -51 -91v-17h314v-53z" />
    <glyph glyph-name="three" unicode="3" horiz-adv-x="539" 
d="M461 122c0 -71 -50 -122 -119 -122h-145c-69 0 -119 51 -119 122v20h53v-26c0 -32 26 -63 58 -63h160c33 0 59 31 59 63v85c0 27 -19 62 -49 62h-134v54h134c30 0 49 35 49 62v85c0 32 -26 63 -58 63h-160c-33 0 -59 -31 -59 -63v-34h-53v28c0 71 50 122 119 122h145
c69 0 119 -51 119 -122v-73c0 -36 -16 -67 -44 -95c28 -28 44 -59 44 -95v-73z" />
    <glyph glyph-name="four" unicode="4" horiz-adv-x="537" 
d="M469 160h-68v-160h-55v160h-268v127l270 293h53v-368h68v-52zM346 212v288l-215 -231v-57h215z" />
    <glyph glyph-name="five" unicode="5" horiz-adv-x="544" 
d="M466 122c0 -71 -50 -122 -119 -122h-150c-69 0 -119 51 -119 122v20h53v-26c0 -32 26 -63 58 -63h166c33 0 58 31 58 63v131c0 42 -24 77 -63 76l-258 -4l8 261h337v-53h-288l-4 -155l192 4c75 2 129 -59 129 -131v-123z" />
    <glyph glyph-name="six" unicode="6" horiz-adv-x="523" 
d="M460 122c0 -71 -50 -122 -119 -122h-144c-69 0 -119 50 -119 122v115v107c0 141 98 236 214 236h56v-53h-52c-89 0 -165 -78 -165 -174v-36h210c69 0 119 -51 119 -122v-73zM407 116v85c0 33 -25 64 -58 64h-218v-149c0 -32 26 -63 58 -63h160c33 0 58 31 58 63z" />
    <glyph glyph-name="seven" unicode="7" horiz-adv-x="498" 
d="M430 523c0 -67 -50 -119 -105 -173c-13 -13 -27 -26 -40 -40c-34 -36 -70 -81 -70 -135v-175h-57v172c0 96 79 164 140 224c13 12 24 24 34 35c20 23 35 47 35 72v24h-309v53h367c2 -13 5 -39 5 -57z" />
    <glyph glyph-name="eight" unicode="8" horiz-adv-x="550" 
d="M472 122c0 -71 -50 -122 -119 -122h-156c-69 0 -119 51 -119 122v73c0 36 16 67 44 95c-28 28 -44 59 -44 95v73c0 71 50 122 119 122h156c69 0 119 -51 119 -122v-73c0 -36 -15 -67 -43 -95c28 -28 43 -59 43 -95v-73zM419 379v85c0 32 -25 63 -58 63h-171
c-33 0 -59 -31 -59 -63v-85c0 -27 19 -62 49 -62h190c30 0 49 35 49 62zM419 116v85c0 27 -19 62 -49 62h-190c-30 0 -49 -35 -49 -62v-85c0 -32 26 -63 58 -63h172c33 0 58 31 58 63z" />
    <glyph glyph-name="nine" unicode="9" horiz-adv-x="525" 
d="M447 236c0 -141 -98 -236 -214 -236h-56v53h53c89 0 164 78 164 174v36h-212c-69 0 -119 51 -119 122v73c0 71 50 122 119 122h146c69 0 119 -50 119 -122v-115v-107zM394 315v149c0 32 -25 63 -58 63h-161c-33 0 -59 -31 -59 -63v-85c0 -33 26 -64 58 -64h220z" />
    <glyph glyph-name="colon" unicode=":" horiz-adv-x="251" 
d="M173 325c0 -6 -4 -10 -10 -10h-75c-6 0 -10 4 -10 10v75c0 6 4 10 10 10h75c6 0 10 -4 10 -10v-75zM173 10c0 -6 -4 -10 -10 -10h-75c-6 0 -10 4 -10 10v75c0 6 4 10 10 10h75c6 0 10 -4 10 -10v-75z" />
    <glyph glyph-name="semicolon" unicode=";" horiz-adv-x="252" 
d="M174 325c0 -6 -5 -10 -10 -10h-75c-10 0 -11 4 -11 10v75c0 6 5 10 10 10h75c6 0 11 -4 11 -10v-75zM174 24c0 -11 -3 -20 -13 -35l-66 -92l-19 15l47 81v13h-34c-6 0 -10 4 -10 10v67c0 6 4 10 10 10h75c6 0 10 -4 10 -10v-59z" />
    <glyph glyph-name="less" unicode="&#x3c;" horiz-adv-x="385" 
d="M313 22l-37 -38l-208 215v50l208 215l37 -38l-187 -195v-14z" />
    <glyph glyph-name="equal" unicode="=" horiz-adv-x="464" 
d="M376 334h-298v51h298v-51zM376 185h-298v51h298v-51z" />
    <glyph glyph-name="greater" unicode="&#x3e;" horiz-adv-x="385" 
d="M317 199l-208 -215l-37 38l187 195v14l-187 195l37 38l208 -215v-50z" />
    <glyph glyph-name="question" unicode="?" horiz-adv-x="537" 
d="M459 418c0 -53 -37 -87 -78 -120c-10 -8 -20 -16 -29 -24c-10 -8 -19 -16 -27 -24c-16 -16 -28 -35 -28 -58v-32h-55v37c0 46 37 80 78 114c10 8 20 16 29 23c10 8 19 16 27 24c16 16 28 34 28 56v48c0 32 -26 63 -59 63h-153c-33 0 -59 -31 -59 -63v-24h-55v13
c0 72 49 129 117 129h145c69 0 119 -51 119 -122v-40zM305 0h-71v73h71v-73z" />
    <glyph glyph-name="at" unicode="@" horiz-adv-x="687" 
d="M539 88h-134c-62 0 -111 47 -111 109v90c0 65 46 114 111 114h81v63c0 33 -25 64 -58 64h-168c-33 0 -59 -31 -59 -64v-436c0 -33 26 -64 58 -64h196v-52h-188c-69 0 -119 51 -119 122v424c0 71 50 122 119 122h153c69 0 119 -51 119 -122v-370zM486 140v209h-81
c-33 0 -58 -18 -58 -57v-90c0 -36 21 -61 58 -62h81z" />
    <glyph glyph-name="A" unicode="A" 
d="M471 359v-359h-54v198h-285v-198h-54v359c0 39 6 61 31 86l131 135h69l131 -135c25 -25 31 -47 31 -86zM417 353c0 25 -1 38 -19 58l-115 121h-15l-117 -121c-19 -20 -19 -33 -19 -58v-108h285v108z" />
    <glyph glyph-name="B" unicode="B" horiz-adv-x="533" 
d="M455 122c0 -71 -52 -122 -121 -122h-256v580h256c69 0 121 -51 121 -122v-66c0 -71 -54 -100 -54 -100s54 -26 54 -90v-80zM400 393v73c0 32 -25 65 -59 65h-211v-212h201c52 0 69 25 69 74zM400 113v79c0 47 -13 77 -64 77h-206v-221h211c34 0 59 34 59 65z" />
    <glyph glyph-name="C" unicode="C" horiz-adv-x="547" 
d="M469 143v-25c0 -71 -50 -118 -119 -118h-153c-69 0 -119 51 -119 122v336c0 71 50 122 119 122h157c69 0 115 -55 115 -127v-15h-55v26c0 32 -24 61 -57 61h-165c-33 0 -59 -31 -59 -63v-345c0 -32 26 -63 59 -63h163c33 0 59 27 59 59v30h55z" />
    <glyph glyph-name="D" unicode="D" 
d="M471 120c0 -71 -50 -120 -119 -120h-274v580h274c69 0 119 -49 119 -120v-340zM416 114v352c0 32 -26 61 -59 61h-226v-474h226c33 0 59 29 59 61z" />
    <glyph glyph-name="E" unicode="E" horiz-adv-x="485" 
d="M407 0h-329v580h329v-52h-276v-212h214v-53h-214v-210h276v-53z" />
    <glyph glyph-name="F" unicode="F" horiz-adv-x="459" 
d="M401 528h-270v-212h208v-53h-208v-263h-53v580h323v-52z" />
    <glyph glyph-name="G" unicode="G" 
d="M471 316v-196c0 -71 -50 -120 -119 -120h-155c-69 0 -119 55 -119 126v330c0 71 50 124 119 124h155c69 0 119 -49 119 -120v-22h-55v30c0 32 -26 62 -59 62h-165c-33 0 -59 -32 -59 -64v-349c0 -32 26 -63 59 -63h165c33 0 59 29 59 61v150h-119v51h174z" />
    <glyph glyph-name="H" unicode="H" horiz-adv-x="547" 
d="M469 0h-53v263h-285v-263h-53v580h53v-264h285v264h53v-580z" />
    <glyph glyph-name="I" unicode="I" horiz-adv-x="379" 
d="M301 0h-223v48h84v484h-84v48h223v-48h-85v-484h85v-48z" />
    <glyph glyph-name="J" unicode="J" horiz-adv-x="476" 
d="M428 529h-83v-407c0 -71 -49 -122 -118 -122h-80c-69 0 -119 51 -119 122v21h53v-30c0 -33 26 -60 58 -60h93c33 0 59 27 59 60v416h-91v51h228v-51z" />
    <glyph glyph-name="K" unicode="K" horiz-adv-x="537" 
d="M471 27l-51 -35l-192 298l-94 -111v-179h-56v580h56v-310h5l286 313l42 -43l-195 -212z" />
    <glyph glyph-name="L" unicode="L" horiz-adv-x="453" 
d="M395 0h-317v580h57v-527h260v-53z" />
    <glyph glyph-name="M" unicode="M" horiz-adv-x="587" 
d="M509 0h-55v488l-140 -172h-41l-140 172v-488h-55v580h48l160 -199h16l159 199h48v-580z" />
    <glyph glyph-name="N" unicode="N" horiz-adv-x="545" 
d="M467 0h-55v176l-279 315v-491h-55v580h52l282 -321v321h55v-580z" />
    <glyph glyph-name="O" unicode="O" horiz-adv-x="567" 
d="M489 122c0 -71 -50 -122 -119 -122h-173c-69 0 -119 51 -119 122v336c0 71 50 122 119 122h173c69 0 119 -51 119 -122v-336zM436 116v348c0 32 -25 63 -58 63h-188c-34 0 -59 -31 -59 -63v-348c0 -32 25 -63 58 -63h189c33 0 58 31 58 63z" />
    <glyph glyph-name="P" unicode="P" horiz-adv-x="521" 
d="M453 385c0 -71 -50 -122 -119 -122h-203v-263h-53v580h256c69 0 119 -51 119 -122v-73zM400 378v88c0 32 -25 64 -58 64h-211v-216h211c33 0 58 32 58 64z" />
    <glyph glyph-name="Q" unicode="Q" horiz-adv-x="570" 
d="M498 29l-37 -38l-86 90l-47 -50c-17 -19 -41 -31 -65 -31h-71c-69 0 -114 48 -114 119v339c0 71 50 122 119 122h175c69 0 119 -51 119 -122v-185c0 -47 -8 -69 -35 -99l-47 -53zM438 267v197c0 32 -26 63 -58 63h-190c-33 0 -59 -31 -59 -63v-347c0 -31 17 -64 52 -64
h64c27 0 36 3 50 19l42 47l-70 69l38 39l66 -69l45 47c15 16 20 32 20 62z" />
    <glyph glyph-name="R" unicode="R" horiz-adv-x="543" 
d="M465 0h-55v186c0 46 -14 77 -64 77h-216v-263h-52v580h268c69 0 119 -51 119 -122v-68c0 -71 -66 -100 -66 -100s66 -26 66 -90v-200zM410 391v75c0 32 -25 67 -59 67h-221v-216h211c52 0 69 25 69 74z" />
    <glyph glyph-name="S" unicode="S" horiz-adv-x="527" 
d="M459 120c0 -71 -50 -122 -119 -122h-153c-69 0 -119 51 -119 122v16h53v-22c0 -32 26 -63 58 -63h169c33 0 58 31 58 63v82c0 33 -25 63 -58 64l-157 5c-69 2 -119 51 -119 122v71c0 71 52 122 121 122h139c69 0 119 -51 119 -122v-17h-53v23c0 32 -25 63 -58 63h-156
c-33 0 -59 -31 -59 -63v-83c0 -33 26 -63 58 -64l157 -4c68 -2 119 -51 119 -122v-71z" />
    <glyph glyph-name="T" unicode="T" horiz-adv-x="507" 
d="M459 528h-176v-528h-60v528h-175v52h411v-52z" />
    <glyph glyph-name="U" unicode="U" horiz-adv-x="547" 
d="M469 580v-458c0 -71 -50 -122 -119 -122h-153c-69 0 -119 51 -119 122v458h57v-464c0 -32 26 -63 58 -63h161c33 0 58 31 58 63v464h57z" />
    <glyph glyph-name="V" unicode="V" horiz-adv-x="555" 
d="M471 580v-355c0 -39 -7 -60 -31 -86l-131 -139h-69l-131 139c-24 26 -31 47 -31 86v355h56v-351c0 -25 1 -38 19 -58l113 -123h15l115 123c18 20 19 33 19 58v351h56z" />
    <glyph glyph-name="W" unicode="W" horiz-adv-x="621" 
d="M543 192c0 -38 -12 -63 -32 -96l-59 -96h-65l-69 118h-15l-69 -118h-65l-59 96c-20 33 -32 58 -32 96v388h56v-388c0 -26 5 -42 18 -64l41 -73h19l54 87c12 18 18 32 18 53v220h53v-220c0 -21 7 -35 18 -53l54 -87h19l41 73c13 22 18 38 18 64v388h56v-388z" />
    <glyph glyph-name="X" unicode="X" horiz-adv-x="544" 
d="M466 462c0 -45 -14 -63 -41 -87l-101 -92l104 -82c28 -22 37 -41 37 -90v-111h-56v102c0 43 -4 50 -27 69l-113 88h-13l-97 -90c-23 -20 -26 -32 -26 -70v-99h-55v102c0 51 6 71 37 99l105 95l-105 82c-23 19 -37 38 -37 88v114h55v-111c0 -25 2 -39 24 -56l117 -92h14
l95 89c19 18 27 32 27 59v111h56v-118z" />
    <glyph glyph-name="Y" unicode="Y" horiz-adv-x="543" 
d="M465 580v-143c0 -40 -7 -59 -31 -85l-135 -144v-208h-55v208l-135 144c-24 26 -31 45 -31 85v143h53v-140c0 -25 1 -35 19 -55l110 -121h21l111 121c18 20 19 30 19 55v140h54z" />
    <glyph glyph-name="Z" unicode="Z" horiz-adv-x="531" 
d="M453 0h-375v48l302 479h-302v53h375v-48l-302 -479h302v-53z" />
    <glyph glyph-name="bracketleft" unicode="[" horiz-adv-x="375" 
d="M297 -88h-219v736h219v-52h-166v-632h166v-52z" />
    <glyph glyph-name="backslash" unicode="\" horiz-adv-x="433" 
d="M402 -86l-53 -25l-318 765l53 25z" />
    <glyph glyph-name="bracketright" unicode="]" horiz-adv-x="375" 
d="M297 -88h-219v52h166v632h-166v52h219v-736z" />
    <glyph glyph-name="asciicircum" unicode="^" horiz-adv-x="379" 
d="M326 464l-35 -24l-95 97h-13l-95 -97l-35 24l112 116h49z" />
    <glyph glyph-name="underscore" unicode="_" horiz-adv-x="327" 
d="M343 -52h-359v52h359v-52z" />
    <glyph glyph-name="grave" unicode="`" horiz-adv-x="263" 
d="M173 437h-46l-55 141h46z" />
    <glyph glyph-name="a" unicode="a" horiz-adv-x="507" 
d="M429 292v-292h-252c-72 0 -119 57 -119 120c0 58 48 111 117 111l201 1v52c0 53 -25 72 -78 72h-166v54h184c63 0 113 -54 113 -118zM376 51v132h-204c-30 0 -62 -25 -62 -67c0 -34 26 -65 59 -65h207z" />
    <glyph glyph-name="b" unicode="b" horiz-adv-x="533" 
d="M455 122c0 -71 -50 -122 -119 -122h-258v580h53v-267l62 61c14 14 37 30 66 31h77c69 0 119 -53 119 -123v-160zM402 109v185c0 33 -26 60 -59 60h-73c-31 0 -38 -4 -60 -25l-79 -75v-206h212c33 0 59 27 59 61z" />
    <glyph glyph-name="c" unicode="c" horiz-adv-x="517" 
d="M439 265h-53v31c0 39 -19 61 -58 61h-138c-33 0 -59 -28 -59 -61v-182c0 -33 26 -61 58 -61h211v-53h-203c-69 0 -119 54 -119 126v160c0 72 50 124 119 124h123c77 0 119 -42 119 -117v-28z" />
    <glyph glyph-name="d" unicode="d" horiz-adv-x="533" 
d="M455 0h-258c-69 0 -119 51 -119 122v160c0 70 50 123 119 123h77c28 -1 52 -17 66 -31l62 -61v267h53v-580zM402 48v206l-79 75c-22 21 -29 25 -60 25h-73c-33 0 -59 -27 -59 -60v-185c0 -34 26 -61 59 -61h212z" />
    <glyph glyph-name="e" unicode="e" horiz-adv-x="527" 
d="M449 175h-318v-63c0 -34 26 -61 58 -61h207v-51h-199c-69 0 -119 52 -119 124v162c0 72 50 124 119 124h133c69 0 119 -52 119 -124v-111zM396 223v72c0 33 -26 61 -58 61h-148c-33 0 -59 -28 -59 -61v-72h265z" />
    <glyph glyph-name="f" unicode="f" horiz-adv-x="467" 
d="M449 437h-55v30c0 33 -26 60 -59 60h-81c-33 0 -59 -27 -59 -60v-150h112v-54h-112v-263h-53v263h-84v54h84v147c0 71 48 116 118 116h66c70 0 123 -49 123 -120v-23z" />
    <glyph glyph-name="g" unicode="g" horiz-adv-x="523" 
d="M445 40c0 -71 -55 -128 -125 -128h-158v53h172c32 0 58 27 58 60v49h-195c-70 0 -119 45 -119 116v104c0 71 49 116 119 116h248v-370zM392 128v229h-202c-33 0 -59 -28 -59 -61v-108c0 -33 26 -60 58 -60h203z" />
    <glyph glyph-name="h" unicode="h" horiz-adv-x="528" 
d="M450 0h-53v293c0 33 -27 60 -59 60h-65c-31 0 -38 -5 -60 -25l-82 -75v-253h-53v580h53v-266l64 60c15 13 38 30 67 31h74c68 0 114 -47 114 -118v-287z" />
    <glyph glyph-name="i" unicode="i" horiz-adv-x="359" 
d="M217 519h-59v61h59v-61zM301 0h-223v48h84v307h-84v50h137v-357h86v-48z" />
    <glyph glyph-name="j" unicode="j" horiz-adv-x="413" 
d="M334 519h-59v61h59v-61zM335 34c0 -71 -49 -122 -118 -122h-70c-69 0 -119 51 -119 122v21h53v-31c0 -33 26 -60 58 -60h83c33 0 59 27 59 60v382h54v-372z" />
    <glyph glyph-name="k" unicode="k" horiz-adv-x="490" 
d="M424 31l-41 -37l-150 188l-102 -108v-74h-53v580h53v-418h15l237 250l39 -40l-150 -154z" />
    <glyph glyph-name="l" unicode="l" horiz-adv-x="354" 
d="M301 0h-223v48h85v484h-85v48h138v-532h85v-48z" />
    <glyph glyph-name="m" unicode="m" horiz-adv-x="693" 
d="M615 0h-55v298c0 32 -18 61 -52 61h-21c-14 0 -22 -1 -30 -5c-4 -3 -7 -6 -11 -9l-12 -12l-55 -53v-280h-55v298c0 32 -18 61 -52 61h-10c-20 0 -23 -2 -38 -16l-91 -86v-257h-55v410h55v-92l64 61c8 7 16 15 25 21c10 6 21 10 35 10h14c47 0 76 -25 100 -79l47 48
c14 15 31 30 59 31h26c68 1 112 -51 112 -124v-286z" />
    <glyph glyph-name="n" unicode="n" horiz-adv-x="528" 
d="M450 0h-53v297c0 33 -27 61 -59 61h-65c-31 0 -38 -5 -60 -26l-82 -76v-256h-53v410h53v-92l64 61c15 13 38 31 67 31h74c68 0 114 -47 114 -119v-291z" />
    <glyph glyph-name="o" unicode="o" horiz-adv-x="521" 
d="M453 126c0 -72 -52 -126 -121 -126h-143c-69 0 -121 54 -121 126v158c0 72 52 126 121 126h143c69 0 121 -54 121 -126v-158zM400 114v182c0 33 -26 61 -58 61h-162c-33 0 -59 -28 -59 -61v-182c0 -33 26 -61 58 -61h163c32 0 58 28 58 61z" />
    <glyph glyph-name="p" unicode="p" horiz-adv-x="524" 
d="M446 197c0 -72 -50 -123 -119 -123h-196v-162h-53v498h249c69 0 119 -52 119 -123v-90zM390 187v110c0 33 -26 60 -58 60h-201v-231h201c32 0 58 27 58 61z" />
    <glyph glyph-name="q" unicode="q" horiz-adv-x="504" 
d="M426 -88h-53v162h-200c-70 0 -115 47 -115 118v99c0 72 46 119 115 119h253v-498zM373 126v231h-201c-32 0 -59 -27 -59 -60v-110c0 -34 27 -61 59 -61h201z" />
    <glyph glyph-name="r" unicode="r" horiz-adv-x="468" 
d="M425 266h-55v29c0 34 -27 61 -59 61h-45c-31 0 -39 -4 -60 -26l-75 -76v-254h-53v410h53v-94l65 70c12 14 30 24 59 24h51c69 1 119 -52 119 -124v-20z" />
    <glyph glyph-name="s" unicode="s" horiz-adv-x="495" 
d="M432 118c0 -63 -47 -118 -119 -118h-220v53h227c32 0 59 26 59 61c0 43 -34 59 -62 60l-129 5c-74 2 -125 50 -125 111c0 63 47 120 119 120h215v-53h-222c-33 0 -59 -29 -59 -63c0 -44 40 -61 65 -62l133 -4c70 -1 118 -52 118 -110z" />
    <glyph glyph-name="t" unicode="t" horiz-adv-x="487" 
d="M449 143v-21c0 -71 -50 -122 -119 -122h-70c-69 0 -118 51 -118 122v232h-84v51h84v175h53v-175h100v-51h-100v-241c0 -33 26 -60 59 -60h81c33 0 59 27 59 60v30h55z" />
    <glyph glyph-name="u" unicode="u" horiz-adv-x="524" 
d="M446 0h-53v101l-63 -70c-12 -14 -37 -31 -66 -31h-67c-69 0 -119 52 -119 124v286h53v-298c0 -34 26 -61 58 -61h65c30 0 39 2 60 27l79 88v244h53v-410z" />
    <glyph glyph-name="v" unicode="v" horiz-adv-x="521" 
d="M443 410v-180c0 -39 -8 -60 -31 -88l-120 -142h-63l-120 142c-23 28 -31 49 -31 88v180h55v-176c0 -26 2 -37 19 -58l98 -125h19l100 125c17 21 19 32 19 58v176h55z" />
    <glyph glyph-name="w" unicode="w" horiz-adv-x="621" 
d="M543 195c0 -39 -11 -65 -32 -97l-61 -98h-59l-73 118h-15l-73 -118h-59l-61 98c-20 32 -32 58 -32 97v215h56v-216c0 -26 5 -42 18 -65l41 -74h17l56 88c12 19 18 33 18 55v87h53v-87c0 -22 6 -36 18 -55l56 -88h17l41 74c13 23 18 39 18 65v216h56v-215z" />
    <glyph glyph-name="x" unicode="x" horiz-adv-x="479" 
d="M411 30v-30h-57v31c0 29 -2 34 -15 48l-93 95h-13l-93 -95c-13 -14 -15 -19 -15 -48v-31h-57v30c0 41 7 56 25 74l92 95v12l-92 95c-18 18 -25 33 -25 74v30h57v-31c0 -29 2 -34 15 -48l93 -95h13l93 95c13 14 15 19 15 48v31h57v-30c0 -41 -7 -56 -25 -74l-92 -95v-12
l92 -95c18 -18 25 -33 25 -74z" />
    <glyph glyph-name="y" unicode="y" horiz-adv-x="523" 
d="M445 410v-375c0 -71 -50 -123 -119 -123h-164v54h172c32 0 58 27 58 61v47h-195c-69 0 -119 51 -119 123v213h53v-222c0 -33 26 -60 58 -60h203v282h53z" />
    <glyph glyph-name="z" unicode="z" horiz-adv-x="508" 
d="M430 0h-352v48l279 313h-279v49h352v-48l-278 -313h278v-49z" />
    <glyph glyph-name="braceleft" unicode="{" horiz-adv-x="425" 
d="M347 -136h-80c-69 0 -119 51 -119 121v199c0 42 -26 67 -61 77l-9 2v54l9 2c35 10 61 35 61 77v199c0 70 50 121 119 121h80v-52h-85c-33 0 -59 -31 -59 -63v-216c0 -55 -50 -87 -50 -87v-16s50 -32 50 -87v-216c0 -32 26 -63 59 -63h85v-52z" />
    <glyph glyph-name="bar" unicode="|" horiz-adv-x="209" 
d="M131 -114h-53v833h53v-833z" />
    <glyph glyph-name="braceright" unicode="}" horiz-adv-x="425" 
d="M347 263l-9 -2c-35 -10 -61 -35 -61 -77v-199c0 -70 -50 -121 -119 -121h-80v52h85c33 0 59 31 59 63v216c0 55 50 87 50 87v16s-50 32 -50 87v216c0 32 -26 63 -59 63h-85v52h80c69 0 119 -51 119 -121v-199c0 -42 26 -67 61 -77l9 -2v-54z" />
    <glyph glyph-name="asciitilde" unicode="~" horiz-adv-x="399" 
d="M348 556l-84 -95c-14 -16 -32 -16 -47 1l-58 62c-10 9 -19 12 -29 0l-55 -64l-24 25l83 94c14 16 32 16 47 0l58 -62c10 -10 19 -13 29 -1l56 66z" />
    <glyph glyph-name="Adieresis" unicode="&#xc4;" 
d="M461 359v-359h-55v198h-284v-198h-55v359c0 39 7 61 31 86l132 135h68l132 -135c24 -25 31 -47 31 -86zM406 353c0 25 0 38 -19 58l-115 121h-14l-117 -121c-19 -20 -19 -33 -19 -58v-108h284v108zM386 663h-58v59h58v-59zM200 663h-58v59h58v-59z" />
    <glyph glyph-name="Aring" unicode="&#xc5;" 
d="M461 359v-359h-55v198h-284v-198h-55v359c0 39 7 61 31 86l132 135h68l132 -135c24 -25 31 -47 31 -86zM406 353c0 25 0 38 -19 58l-115 121h-14l-117 -121c-19 -20 -19 -33 -19 -58v-108h284v108zM334 679c0 -26 -21 -46 -46 -46h-49c-25 0 -46 20 -46 46v50
c0 26 21 46 46 46h49c25 0 46 -20 46 -46v-50zM303 677v54c0 7 -6 13 -13 13h-53c-7 0 -13 -6 -13 -13v-54c0 -7 6 -13 13 -13h53c7 0 13 6 13 13z" />
    <glyph glyph-name="Ccedilla" unicode="&#xc7;" horiz-adv-x="547" 
d="M459 143v-25c0 -71 -50 -118 -119 -118h-154c-69 0 -119 51 -119 122v336c0 71 50 122 119 122h158c68 0 115 -55 115 -127v-15h-56v26c0 32 -23 61 -56 61h-166c-33 0 -58 -31 -58 -63v-345c0 -32 25 -63 58 -63h164c33 0 58 27 58 59v30h56zM303 -33
c9 -55 -30 -101 -93 -101h-44v43h43c37 0 53 30 48 59l-7 39h47z" />
    <glyph glyph-name="Eacute" unicode="&#xc9;" horiz-adv-x="485" 
d="M397 0h-330v580h330v-52h-276v-212h214v-53h-214l-1 -210h277v-53zM288 800l-61 -142h-46l61 142h46z" />
    <glyph glyph-name="Ntilde" unicode="&#xd1;" horiz-adv-x="545" 
d="M457 0h-55v176l-279 315v-491h-56v580h52l282 -321v321h56v-580zM387 725l-70 -77c-12 -13 -29 -13 -42 1l-48 49c-7 7 -13 8 -20 0l-47 -52l-23 23l69 75c13 14 29 14 43 0l47 -49c7 -7 14 -9 21 0l47 53z" />
    <glyph glyph-name="Odieresis" unicode="&#xd6;" horiz-adv-x="567" 
d="M479 122c0 -71 -50 -122 -119 -122h-174c-69 0 -119 51 -119 122v336c0 71 50 122 119 122h174c69 0 119 -51 119 -122v-336zM426 116v348c0 32 -26 63 -59 63h-188c-33 0 -59 -31 -59 -63v-348c0 -32 26 -63 59 -63h188c33 0 59 31 59 63zM400 663h-58v59h58v-59z
M214 663h-58v59h58v-59z" />
    <glyph glyph-name="Udieresis" unicode="&#xdc;" horiz-adv-x="547" 
d="M459 580v-458c0 -71 -50 -122 -119 -122h-154c-69 0 -119 51 -119 122v458h57v-464c0 -32 26 -63 59 -63h160c33 0 59 31 59 63v464h57zM386 663h-58v59h58v-59zM200 663h-58v59h58v-59z" />
    <glyph glyph-name="aacute" unicode="&#xe1;" horiz-adv-x="507" 
d="M419 292v-292h-253c-71 0 -119 57 -119 120c0 58 49 111 118 111l201 1v52c0 53 -26 72 -79 72h-166v54h184c63 0 114 -54 114 -118zM366 51v132h-204c-31 0 -62 -25 -62 -67c0 -34 25 -65 58 -65h208zM312 619l-61 -141h-46l61 141h46z" />
    <glyph glyph-name="agrave" unicode="&#xe0;" horiz-adv-x="507" 
d="M419 292v-292h-253c-71 0 -119 57 -119 120c0 58 49 111 118 111l201 1v52c0 53 -26 72 -79 72h-166v54h184c63 0 114 -54 114 -118zM366 51v132h-204c-31 0 -62 -25 -62 -67c0 -34 25 -65 58 -65h208zM269 475h-46l-55 141h46z" />
    <glyph glyph-name="acircumflex" unicode="&#xe2;" horiz-adv-x="507" 
d="M419 292v-292h-253c-71 0 -119 57 -119 120c0 58 49 111 118 111l201 1v52c0 53 -26 72 -79 72h-166v54h184c63 0 114 -54 114 -118zM366 51v132h-204c-31 0 -62 -25 -62 -67c0 -34 25 -65 58 -65h208zM354 497l-32 -22l-78 74h-9l-78 -74l-32 22l94 95h41z" />
    <glyph glyph-name="adieresis" unicode="&#xe4;" horiz-adv-x="507" 
d="M419 292v-292h-253c-71 0 -119 57 -119 120c0 58 49 111 118 111l201 1v52c0 53 -26 72 -79 72h-166v54h184c63 0 114 -54 114 -118zM366 51v132h-204c-31 0 -62 -25 -62 -67c0 -34 25 -65 58 -65h208zM363 477h-58v59h58v-59zM177 477h-58v59h58v-59z" />
    <glyph glyph-name="atilde" unicode="&#xe3;" horiz-adv-x="507" 
d="M419 292v-292h-253c-71 0 -119 57 -119 120c0 58 49 111 118 111l201 1v52c0 53 -26 72 -79 72h-166v54h184c63 0 114 -54 114 -118zM366 51v132h-204c-31 0 -62 -25 -62 -67c0 -34 25 -65 58 -65h208zM377 556l-71 -76c-12 -13 -28 -14 -42 0l-48 49c-7 7 -13 9 -20 1
l-47 -53l-22 23l69 76c12 13 28 14 42 0l48 -49c7 -7 13 -9 20 -1l48 53z" />
    <glyph glyph-name="aring" unicode="&#xe5;" horiz-adv-x="507" 
d="M419 292v-292h-253c-71 0 -119 57 -119 120c0 58 49 111 118 111l201 1v52c0 53 -26 72 -79 72h-166v54h184c63 0 114 -54 114 -118zM366 51v132h-204c-31 0 -62 -25 -62 -67c0 -34 25 -65 58 -65h208zM302 519c0 -26 -21 -47 -46 -47h-49c-25 0 -46 21 -46 47v50
c0 25 21 46 46 46h49c25 0 46 -21 46 -46v-50zM271 517v54c0 7 -6 13 -13 13h-53c-7 0 -13 -6 -13 -13v-54c0 -7 6 -13 13 -13h53c7 0 13 6 13 13z" />
    <glyph glyph-name="ccedilla" unicode="&#xe7;" horiz-adv-x="517" 
d="M429 265h-53v31c0 39 -19 61 -59 61h-138c-32 0 -59 -28 -59 -61v-182c0 -33 27 -61 59 -61h210v-53h-203c-68 0 -119 54 -119 126v160c0 72 50 124 119 124h124c77 0 119 -42 119 -117v-28zM291 -33c9 -55 -30 -101 -93 -101h-44v43h43c37 0 53 30 48 59l-7 39h47z" />
    <glyph glyph-name="eacute" unicode="&#xe9;" horiz-adv-x="527" 
d="M439 175h-318l-1 -63c0 -34 27 -61 59 -61h206v-51h-199c-69 0 -119 52 -119 124v162c0 72 50 124 119 124h134c69 0 119 -52 119 -124v-111zM386 223v72c0 33 -26 61 -59 61h-148c-32 0 -59 -28 -58 -61v-72h265zM337 619l-61 -142h-45l61 142h45z" />
    <glyph glyph-name="egrave" unicode="&#xe8;" horiz-adv-x="527" 
d="M439 175h-318l-1 -63c0 -34 27 -61 59 -61h206v-51h-199c-69 0 -119 52 -119 124v162c0 72 50 124 119 124h134c69 0 119 -52 119 -124v-111zM386 223v72c0 33 -26 61 -59 61h-148c-32 0 -59 -28 -58 -61v-72h265zM269 474h-46l-55 142h46z" />
    <glyph glyph-name="ecircumflex" unicode="&#xea;" horiz-adv-x="527" 
d="M439 175h-318l-1 -63c0 -34 27 -61 59 -61h206v-51h-199c-69 0 -119 52 -119 124v162c0 72 50 124 119 124h134c69 0 119 -52 119 -124v-111zM386 223v72c0 33 -26 61 -59 61h-148c-32 0 -59 -28 -58 -61v-72h265zM366 498l-31 -21l-78 74h-10l-77 -74l-32 21l94 95h40z
" />
    <glyph glyph-name="edieresis" unicode="&#xeb;" horiz-adv-x="527" 
d="M439 175h-318l-1 -63c0 -34 27 -61 59 -61h206v-51h-199c-69 0 -119 52 -119 124v162c0 72 50 124 119 124h134c69 0 119 -52 119 -124v-111zM386 223v72c0 33 -26 61 -59 61h-148c-32 0 -59 -28 -58 -61v-72h265zM377 477h-58v59h58v-59zM191 477h-58v59h58v-59z" />
    <glyph glyph-name="iacute" unicode="&#xed;" horiz-adv-x="359" 
d="M290 0h-223v48h85v307h-85v50h138v-357h85v-48zM237 619l-61 -142h-46l61 142h46z" />
    <glyph glyph-name="igrave" unicode="&#xec;" horiz-adv-x="359" 
d="M290 0h-223v48h85v307h-85v50h138v-357h85v-48zM210 474h-46l-55 142h46z" />
    <glyph glyph-name="icircumflex" unicode="&#xee;" horiz-adv-x="359" 
d="M290 0h-223v48h85v307h-85v50h138v-357h85v-48zM286 499l-32 -22l-77 74h-10l-78 -74l-32 22l94 95h41z" />
    <glyph glyph-name="idieresis" unicode="&#xef;" horiz-adv-x="359" 
d="M290 0h-223v48h85v307h-85v50h138v-357h85v-48zM301 477h-58v59h58v-59zM115 477h-58v59h58v-59z" />
    <glyph glyph-name="ntilde" unicode="&#xf1;" horiz-adv-x="528" 
d="M439 0h-53v297c0 33 -26 61 -58 61h-66c-31 0 -38 -5 -60 -26l-81 -76v-256h-54v410h53v-92l65 61c14 13 38 31 66 31h74c69 0 114 -47 114 -119v-291zM388 562l-70 -76c-13 -14 -29 -14 -43 0l-47 49c-8 7 -14 8 -21 0l-47 -52l-22 23l69 75c12 14 29 14 42 0l48 -49
c7 -7 13 -8 20 0l48 53z" />
    <glyph glyph-name="oacute" unicode="&#xf3;" horiz-adv-x="521" 
d="M443 126c0 -72 -52 -126 -121 -126h-144c-69 0 -121 54 -121 126v158c0 72 52 126 121 126h144c69 0 121 -54 121 -126v-158zM390 114v182c0 33 -26 61 -59 61h-162c-32 0 -59 -28 -59 -61v-182c0 -33 27 -61 59 -61h162c33 0 59 28 59 61zM328 617l-61 -141h-46l61 141
h46z" />
    <glyph glyph-name="ograve" unicode="&#xf2;" horiz-adv-x="521" 
d="M443 126c0 -72 -52 -126 -121 -126h-144c-69 0 -121 54 -121 126v158c0 72 52 126 121 126h144c69 0 121 -54 121 -126v-158zM390 114v182c0 33 -26 61 -59 61h-162c-32 0 -59 -28 -59 -61v-182c0 -33 27 -61 59 -61h162c33 0 59 28 59 61zM276 475h-46l-55 141h46z" />
    <glyph glyph-name="ocircumflex" unicode="&#xf4;" horiz-adv-x="521" 
d="M443 126c0 -72 -52 -126 -121 -126h-144c-69 0 -121 54 -121 126v158c0 72 52 126 121 126h144c69 0 121 -54 121 -126v-158zM390 114v182c0 33 -26 61 -59 61h-162c-32 0 -59 -28 -59 -61v-182c0 -33 27 -61 59 -61h162c33 0 59 28 59 61zM363 497l-32 -22l-78 74h-9
l-78 -74l-32 22l94 95h41z" />
    <glyph glyph-name="odieresis" unicode="&#xf6;" horiz-adv-x="521" 
d="M443 126c0 -72 -52 -126 -121 -126h-144c-69 0 -121 54 -121 126v158c0 72 52 126 121 126h144c69 0 121 -54 121 -126v-158zM390 114v182c0 33 -26 61 -59 61h-162c-32 0 -59 -28 -59 -61v-182c0 -33 27 -61 59 -61h162c33 0 59 28 59 61zM372 477h-58v59h58v-59z
M186 477h-58v59h58v-59z" />
    <glyph glyph-name="otilde" unicode="&#xf5;" horiz-adv-x="521" 
d="M443 126c0 -72 -52 -126 -121 -126h-144c-69 0 -121 54 -121 126v158c0 72 52 126 121 126h144c69 0 121 -54 121 -126v-158zM390 114v182c0 33 -26 61 -59 61h-162c-32 0 -59 -28 -59 -61v-182c0 -33 27 -61 59 -61h162c33 0 59 28 59 61zM384 562l-70 -76
c-12 -14 -28 -14 -42 0l-48 49c-7 7 -13 8 -20 0l-47 -52l-22 23l69 75c12 14 28 14 42 0l48 -49c7 -7 13 -8 20 0l48 53z" />
    <glyph glyph-name="uacute" unicode="&#xfa;" horiz-adv-x="524" 
d="M435 0h-53v101l-62 -70c-13 -14 -37 -31 -66 -31h-68c-69 0 -119 52 -119 124v286h53v-298c0 -34 27 -61 59 -61h64c30 0 40 2 61 27l78 88v244h53v-410zM324 619l-61 -142h-46l61 142h46z" />
    <glyph glyph-name="ugrave" unicode="&#xf9;" horiz-adv-x="524" 
d="M435 0h-53v101l-62 -70c-13 -14 -37 -31 -66 -31h-68c-69 0 -119 52 -119 124v286h53v-298c0 -34 27 -61 59 -61h64c30 0 40 2 61 27l78 88v244h53v-410zM283 475h-45l-55 141h45z" />
    <glyph glyph-name="ucircumflex" unicode="&#xfb;" horiz-adv-x="524" 
d="M435 0h-53v101l-62 -70c-13 -14 -37 -31 -66 -31h-68c-69 0 -119 52 -119 124v286h53v-298c0 -34 27 -61 59 -61h64c30 0 40 2 61 27l78 88v244h53v-410zM366 497l-32 -21l-77 74h-10l-78 -74l-32 21l94 95h41z" />
    <glyph glyph-name="udieresis" unicode="&#xfc;" horiz-adv-x="524" 
d="M435 0h-53v101l-62 -70c-13 -14 -37 -31 -66 -31h-68c-69 0 -119 52 -119 124v286h53v-298c0 -34 27 -61 59 -61h64c30 0 40 2 61 27l78 88v244h53v-410zM371 477h-58v59h58v-59zM185 477h-58v59h58v-59z" />
    <glyph glyph-name="dagger" unicode="&#x2020;" horiz-adv-x="370" 
d="M292 411h-85v-241h-45v241h-84v45h84v124h45v-124h85v-45z" />
    <glyph glyph-name="degree" unicode="&#xb0;" horiz-adv-x="201" 
d="M183 652c0 -30 -24 -54 -53 -54h-59c-29 0 -53 24 -53 54v61c0 30 24 55 53 55h59c29 0 53 -25 53 -55v-61zM150 650v66c0 10 -8 18 -18 18h-64c-10 0 -18 -8 -18 -18v-66c0 -10 8 -19 18 -19h64c10 0 18 9 18 19z" />
    <glyph glyph-name="cent" unicode="&#xa2;" horiz-adv-x="460" 
d="M382 121h-107v-209h-37v209h-41c-69 0 -119 52 -119 123v98c0 70 50 122 119 122h41v196h37v-196h107v-53h-192c-33 0 -59 -26 -59 -60v-118c0 -33 26 -60 58 -60h193v-52z" />
    <glyph glyph-name="sterling" unicode="&#xa3;" horiz-adv-x="553" 
d="M475 52h-397v53h70v313c0 71 48 116 118 116h66c70 0 123 -49 123 -120v-24h-55v30c0 34 -27 61 -59 61h-81c-33 0 -59 -27 -59 -61v-133h111v-40h-111v-142h274v-53z" />
    <glyph glyph-name="section" unicode="&#xa7;" horiz-adv-x="523" 
d="M455 34c0 -73 -50 -122 -119 -122h-149c-69 0 -119 51 -119 122v15h53v-21c0 -33 26 -64 58 -64h165c33 0 58 31 58 64v46c0 34 -28 61 -64 67l-146 25c-70 12 -120 52 -120 122v15c0 32 24 71 67 90c-42 24 -63 58 -63 98v35c0 71 52 122 121 122h123
c69 0 119 -51 119 -122v-16h-53v23c0 32 -25 63 -58 63h-140c-34 0 -59 -31 -59 -63v-48c0 -33 27 -58 57 -63l149 -25c69 -11 120 -52 120 -121v-13c0 -37 -20 -74 -60 -95c41 -19 60 -58 60 -99v-35zM402 257v24c0 33 -28 58 -57 63l-144 25c-42 8 -76 -35 -76 -65v-23
c0 -33 27 -58 57 -63l156 -23c36 -6 64 28 64 62z" />
    <glyph glyph-name="bullet" unicode="&#x2022;" horiz-adv-x="333" 
d="M264 220c0 -10 -8 -17 -18 -17h-159c-10 0 -18 7 -18 17v159c0 10 8 18 18 18h159c10 0 18 -8 18 -18v-159z" />
    <glyph glyph-name="paragraph" unicode="&#xb6;" horiz-adv-x="562" 
d="M484 596h-69v-796h-55v796h-98v-796h-55v308h-28c-69 0 -111 43 -111 113v312c0 70 42 113 111 113h305v-50z" />
    <glyph glyph-name="germandbls" unicode="&#xdf;" horiz-adv-x="531" 
d="M493 118c0 -62 -47 -116 -119 -116h-134v52h141c32 0 58 26 58 60c0 43 -34 54 -60 59l-23 4c-73 13 -112 53 -112 113c0 55 25 87 51 119c13 17 27 34 37 53c11 19 18 41 18 69c0 37 -24 65 -59 65h-101c-33 0 -59 -27 -59 -60v-624h-53v621c0 70 48 115 118 115h86
c72 0 123 -57 123 -116c0 -63 -26 -102 -52 -136c-13 -16 -27 -32 -38 -49c-10 -17 -18 -35 -18 -57c0 -32 23 -57 50 -60l27 -4c71 -8 119 -52 119 -108z" />
    <glyph glyph-name="registered" unicode="&#xae;" horiz-adv-x="584" 
d="M514 152c0 -46 -38 -84 -84 -84h-277c-46 0 -84 38 -84 84v277c0 46 38 84 84 84h277c46 0 84 -38 84 -84v-277zM468 152v277c0 21 -17 38 -38 38h-277c-21 0 -37 -17 -37 -38v-277c0 -21 16 -38 37 -38h277c21 0 38 17 38 38zM387 153h-43v86c0 17 -4 23 -18 23h-83
v-109h-41v260h124c35 0 61 -25 61 -60v-29c0 -22 -10 -34 -17 -41c7 -5 17 -17 17 -38v-92zM344 325v31c0 10 -8 19 -15 19h-86v-71h81c15 0 20 5 20 21z" />
    <glyph glyph-name="copyright" unicode="&#xa9;" horiz-adv-x="584" 
d="M514 152c0 -46 -38 -84 -84 -84h-277c-46 0 -84 38 -84 84v277c0 46 38 84 84 84h277c46 0 84 -38 84 -84v-277zM468 152v277c0 21 -17 38 -38 38h-277c-21 0 -37 -17 -37 -38v-277c0 -21 16 -38 37 -38h277c21 0 38 17 38 38zM389 213c0 -35 -26 -60 -61 -60h-66
c-35 0 -60 25 -60 60v140c0 34 25 60 60 60h67c35 0 60 -29 60 -63v-15h-43v19c0 10 -8 17 -16 17h-70c-8 0 -15 -7 -15 -17v-143c0 -9 7 -17 15 -17h70c8 0 16 8 16 17v20h43v-18z" />
    <glyph glyph-name="trademark" unicode="&#x2122;" horiz-adv-x="499" 
d="M449 375h-36v144l-42 -49h-22l-42 49v-144h-37v205h30l60 -72l60 72h29v-205zM221 546h-67v-171h-38v171h-67v34h172v-34z" />
    <glyph glyph-name="acute" unicode="&#xb4;" horiz-adv-x="263" 
d="M179 580l-61 -141h-46l61 141h46z" />
    <glyph glyph-name="dieresis" unicode="&#xa8;" 
d="M397 663h-59v59h59v-59zM210 663h-58v59h58v-59z" />
    <glyph glyph-name="notequal" unicode="&#x2260;" horiz-adv-x="464" 
d="M376 187h-177l-43 -82h-46l42 82h-74v51h101l50 98h-151v50h178l39 75h46l-39 -75h74v-50h-100l-51 -98h151v-51z" />
    <glyph glyph-name="AE" unicode="&#xc6;" horiz-adv-x="798" 
d="M720 0h-311v257h-277v-257h-54v359c0 39 7 60 31 86l123 135h69l110 -113v113h309v-52h-256v-218h194v-53h-194v-204h256v-53zM409 353c0 25 -1 38 -19 58l-115 123h-15l-109 -123c-18 -21 -19 -33 -19 -58v-45h277v45z" />
    <glyph glyph-name="Oslash" unicode="&#xd8;" horiz-adv-x="567" 
d="M489 122c0 -71 -50 -122 -119 -122h-173c-69 0 -119 51 -119 122v336c0 71 50 122 119 122h173c69 0 119 -51 119 -122v-336zM436 116v348c0 7 -1 13 -9 38l-249 -449h200c33 0 58 31 58 63zM391 527h-201c-33 0 -59 -31 -59 -63v-348c0 -7 1 -15 10 -39z" />
    <glyph glyph-name="infinity" unicode="&#x221e;" horiz-adv-x="735" 
d="M657 257c0 -73 -50 -126 -119 -126h-36c-45 0 -91 58 -138 122c-12 16 -23 32 -34 47c-12 15 -23 29 -33 40c-22 24 -44 43 -67 43h-39c-32 0 -62 -27 -62 -62v-68c0 -42 31 -68 63 -62l106 21l13 -54l-103 -23c-62 -14 -130 47 -130 115v67c0 73 49 122 119 122h46
c48 0 96 -58 143 -123c23 -31 45 -63 65 -87c20 -23 40 -42 60 -42h33c32 0 62 27 62 62v79c0 35 -31 62 -64 54l-101 -23l-10 56l99 24c63 15 127 -38 127 -115v-67z" />
    <glyph glyph-name="plusminus" unicode="&#xb1;" horiz-adv-x="547" 
d="M469 352h-170v-176h-53v176h-168v55h168v173h53v-173h170v-55zM469 0h-391v46h391v-46z" />
    <glyph glyph-name="lessequal" unicode="&#x2264;" horiz-adv-x="412" 
d="M295 187l-37 -39l-180 186v49l180 186l37 -39l-161 -164v-15zM334 0h-256v46h256v-46z" />
    <glyph glyph-name="greaterequal" unicode="&#x2265;" horiz-adv-x="412" 
d="M334 334l-180 -186l-37 39l161 164v15l-161 164l37 39l180 -186v-49zM334 0h-256v46h256v-46z" />
    <glyph glyph-name="yen" unicode="&#xa5;" horiz-adv-x="543" 
d="M465 528v-59c0 -40 -6 -60 -31 -85l-104 -105h61v-30h-82l-10 -10v-73h92v-30h-92v-84h-55v84h-88v30h88v73l-10 10h-78v30h57l-104 105c-25 25 -31 45 -31 85v59h53v-56c0 -25 1 -35 19 -55l110 -122h21l111 122c18 20 19 30 19 55v56h54z" />
    <glyph glyph-name="mu" unicode="&#xb5;" horiz-adv-x="540" 
d="M512 3h-43c-49 0 -76 35 -76 73v30l-63 -70c-12 -14 -37 -30 -66 -30l-48 -1c-17 0 -31 4 -40 13l-47 48v-154h-51v498h51v-280l47 -53c13 -14 28 -21 44 -21h32c30 0 39 2 60 26l79 88v240h51v-310c0 -34 14 -46 49 -46h21v-51z" />
    <glyph glyph-name="partialdiff" unicode="&#x2202;" horiz-adv-x="523" 
d="M460 143c0 -86 -59 -143 -141 -143h-122c-69 0 -119 51 -119 122v36c0 70 50 111 120 122l209 34v39c0 96 -75 174 -164 174h-53v53h56c116 0 214 -95 214 -236v-107v-94zM407 137v125l-219 -34c-30 -5 -57 -30 -57 -64v-48c0 -32 26 -63 58 -63h138c41 0 80 38 80 84z
" />
    <glyph glyph-name="summation" unicode="&#x2211;" horiz-adv-x="485" 
d="M407 0h-329v46l163 235v18l-163 235v46h329v-52h-262l159 -228v-21l-159 -226h262v-53z" />
    <glyph glyph-name="product" unicode="&#x220f;" horiz-adv-x="524" 
d="M466 0h-16c-76 0 -116 49 -116 107v423h-150v-530h-53v530h-73v50h408v-50h-79v-423c0 -34 26 -57 59 -57h20v-50z" />
    <glyph glyph-name="pi" unicode="&#x3c0;" horiz-adv-x="524" 
d="M466 0h-16c-76 0 -116 49 -116 108v251h-150v-359h-53v359h-73v51h408v-51h-79v-251c0 -34 26 -57 59 -57h20v-51z" />
    <glyph glyph-name="integral" unicode="&#x222b;" horiz-adv-x="463" 
d="M385 181c0 -71 -52 -120 -121 -120h-27v-148h-37v148h-122v464h122v135h37v-135h25c69 0 123 -49 123 -120v-20c0 -70 -55 -93 -55 -93s55 -20 55 -83v-28zM332 390v22c0 31 -25 66 -59 66h-146v-161h136c52 0 69 24 69 73zM332 174v21c0 46 -13 76 -64 76h-141v-164h146
c34 0 59 35 59 67z" />
    <glyph glyph-name="ordfeminine" unicode="&#xaa;" horiz-adv-x="394" 
d="M316 327v-202h-175c-50 0 -83 40 -83 84c0 41 33 76 82 76h136v37c0 35 -16 48 -52 48h-116v40h128c44 0 80 -38 80 -83zM316 0h-238v53h238v-53zM276 164v86h-138c-20 0 -41 -16 -41 -43c0 -23 17 -43 39 -43h140z" />
    <glyph glyph-name="ordmasculine" unicode="&#xba;" horiz-adv-x="404" 
d="M336 213c0 -50 -37 -88 -85 -88h-98c-49 0 -85 38 -85 88v109c0 50 36 88 85 88h98c48 0 85 -38 85 -88v-109zM320 0h-238v53h238v-53zM296 205v125c0 22 -17 40 -38 40h-112c-21 0 -38 -18 -38 -40v-125c0 -22 17 -40 38 -40h112c21 0 38 18 38 40z" />
    <glyph glyph-name="Omega" unicode="&#x2126;" horiz-adv-x="556" 
d="M481 314c0 -89 -107 -102 -107 -160c0 -22 19 -42 40 -42h61v-47h-60c-47 0 -92 42 -92 89c0 79 102 86 102 157v86c0 30 -24 62 -56 62h-181c-33 0 -57 -32 -57 -62v-86c0 -71 102 -78 102 -157c0 -47 -45 -89 -91 -89h-61v47h60c22 0 41 20 41 42
c0 59 -107 75 -107 160v72c0 71 49 128 122 128h162c73 0 122 -57 122 -128v-72z" />
    <glyph glyph-name="ae" unicode="&#xe6;" horiz-adv-x="779" 
d="M701 286v-111h-292v-65c0 -33 27 -59 58 -59h181v-51h-185c-19 0 -64 18 -87 51c-22 -32 -60 -51 -92 -51h-107c-72 0 -119 57 -119 120c0 58 48 111 117 111l181 1v52c0 52 -25 72 -78 72h-146v54h164c32 0 63 -16 87 -49c21 32 57 49 92 49h107c69 0 119 -52 119 -124z
M648 223v72c0 33 -26 61 -58 61h-123c-33 0 -58 -27 -58 -61v-72h239zM356 183h-184c-30 0 -62 -25 -62 -67c0 -34 26 -65 59 -65h114c33 0 73 23 73 68v64z" />
    <glyph glyph-name="oslash" unicode="&#xf8;" horiz-adv-x="521" 
d="M453 126c0 -72 -52 -126 -121 -126h-143c-69 0 -121 54 -121 126v158c0 72 52 126 121 126h143c69 0 121 -54 121 -126v-158zM400 114v182c0 19 -9 37 -30 54l-161 -297h133c32 0 58 28 58 61zM323 357h-143c-33 0 -59 -28 -59 -61v-182c0 -23 13 -44 39 -58z" />
    <glyph glyph-name="questiondown" unicode="&#xbf;" horiz-adv-x="537" 
d="M303 507h-71v73h71v-73zM459 142v-13c0 -72 -48 -129 -117 -129h-145c-69 0 -119 51 -119 122v40c0 53 37 87 78 120l30 24c9 8 19 16 26 24c16 16 28 35 28 58v32h55v-37c0 -46 -36 -80 -77 -114c-11 -8 -21 -16 -30 -23c-10 -8 -19 -16 -27 -24
c-15 -16 -28 -34 -28 -56v-48c0 -32 26 -63 59 -63h153c33 0 59 31 59 63v24h55z" />
    <glyph glyph-name="exclamdown" unicode="&#xa1;" horiz-adv-x="255" 
d="M162 507h-71v73h71v-73zM172 138v-138h-89v138l17 269h55z" />
    <glyph glyph-name="logicalnot" unicode="&#xac;" horiz-adv-x="538" 
d="M460 155h-42v113h-340v55h382v-168z" />
    <glyph glyph-name="radical" unicode="&#x221a;" horiz-adv-x="706" 
d="M628 421h-146l-133 -421h-66l-100 239h-105v44h140l98 -234l129 419h183v-47z" />
    <glyph glyph-name="florin" unicode="&#x192;" horiz-adv-x="557" 
d="M559 529v-23h-55v30c0 33 -27 60 -59 60h-81c-33 0 -59 -27 -59 -60v-219h112v-54h-112v-236c0 -70 -48 -115 -118 -115h-66c-70 0 -123 49 -123 119v23h55v-30c0 -33 27 -60 59 -60h82c32 0 58 27 58 60v239h-84v54h84v216c0 70 48 115 118 115h66
c70 0 123 -49 123 -119z" />
    <glyph glyph-name="approxequal" unicode="&#x2248;" horiz-adv-x="469" 
d="M408 437l-108 -100c-15 -14 -32 -12 -48 5l-63 67c-8 8 -16 13 -27 2l-79 -74l-22 27l108 100c15 14 32 12 48 -5l63 -66c8 -9 16 -14 28 -3l78 74zM408 152l-108 -100c-15 -14 -32 -13 -48 5l-63 66c-8 9 -16 14 -27 3l-79 -74l-22 27l108 100c15 14 32 12 48 -5l63 -66
c8 -9 16 -14 28 -3l78 74z" />
    <glyph glyph-name="Delta" unicode="&#x2206;" horiz-adv-x="613" 
d="M531 0h-449l224 580zM450 53l-144 375l-143 -375h287z" />
    <glyph glyph-name="guillemotleft" unicode="&#xab;" horiz-adv-x="658" 
d="M576 43l-37 -39l-168 175v50l168 175l37 -39l-149 -154v-14zM283 43l-37 -39l-168 175v50l168 175l37 -39l-149 -154v-14z" />
    <glyph glyph-name="guillemotright" unicode="&#xbb;" horiz-adv-x="658" 
d="M580 179l-168 -175l-37 39l149 154v14l-149 154l37 39l168 -175v-50zM287 179l-168 -175l-37 39l149 154v14l-149 154l37 39l168 -175v-50z" />
    <glyph glyph-name="ellipsis" unicode="&#x2026;" horiz-adv-x="699" 
d="M621 10c0 -6 -4 -10 -10 -10h-75c-6 0 -10 4 -10 10v75c0 6 4 10 10 10h75c6 0 10 -4 10 -10v-75zM397 10c0 -6 -4 -10 -10 -10h-75c-6 0 -10 4 -10 10v75c0 6 4 10 10 10h75c6 0 10 -4 10 -10v-75zM173 10c0 -6 -4 -10 -10 -10h-75c-6 0 -10 4 -10 10v75c0 6 4 10 10 10
h75c6 0 10 -4 10 -10v-75z" />
    <glyph glyph-name="Agrave" unicode="&#xc0;" 
d="M461 359v-359h-55v198h-284v-198h-55v359c0 39 7 61 31 86l132 135h68l132 -135c24 -25 31 -47 31 -86zM406 353c0 25 0 38 -19 58l-115 121h-14l-117 -121c-19 -20 -19 -33 -19 -58v-108h284v108zM296 657h-46l-55 142h46z" />
    <glyph glyph-name="Atilde" unicode="&#xc3;" 
d="M461 359v-359h-55v198h-284v-198h-55v359c0 39 7 61 31 86l132 135h68l132 -135c24 -25 31 -47 31 -86zM406 353c0 25 0 38 -19 58l-115 121h-14l-117 -121c-19 -20 -19 -33 -19 -58v-108h284v108zM405 725l-70 -77c-12 -13 -29 -13 -42 1l-48 49c-7 7 -13 8 -20 0
l-47 -52l-23 23l69 75c13 14 29 14 43 0l47 -49c7 -7 14 -9 21 0l47 53z" />
    <glyph glyph-name="Otilde" unicode="&#xd5;" horiz-adv-x="567" 
d="M479 122c0 -71 -50 -122 -119 -122h-174c-69 0 -119 51 -119 122v336c0 71 50 122 119 122h174c69 0 119 -51 119 -122v-336zM426 116v348c0 32 -26 63 -59 63h-188c-33 0 -59 -31 -59 -63v-348c0 -32 26 -63 59 -63h188c33 0 59 31 59 63zM405 725l-70 -77
c-12 -13 -29 -13 -42 1l-48 49c-7 7 -13 8 -20 0l-47 -52l-23 23l69 75c13 14 29 14 43 0l47 -49c7 -7 14 -9 21 0l47 53z" />
    <glyph glyph-name="OE" unicode="&#x152;" horiz-adv-x="816" 
d="M738 0h-309v49c-25 -34 -54 -49 -79 -49h-153c-69 0 -119 51 -119 122v336c0 71 50 122 119 122h153c25 0 53 -13 79 -46v46h309v-52h-269v-212h207v-53h-207v-210h269v-53zM416 116v348c0 32 -25 63 -58 63h-168c-33 0 -59 -31 -59 -63v-348c0 -32 26 -63 58 -63h169
c33 0 58 31 58 63z" />
    <glyph glyph-name="oe" unicode="&#x153;" horiz-adv-x="810" 
d="M732 175h-294v-63c0 -34 26 -61 58 -61h183v-51h-175c-36 0 -69 17 -94 50c-23 -32 -58 -50 -94 -50h-117c-69 0 -121 54 -121 126v158c0 72 52 126 121 126h117c37 0 74 -17 93 -52c24 35 59 52 95 52h109c69 0 119 -52 119 -124v-111zM679 223v72c0 33 -26 61 -58 61
h-124c-33 0 -59 -28 -59 -61v-72h241zM384 114v182c0 33 -26 61 -58 61h-136c-33 0 -59 -28 -59 -61v-182c0 -33 26 -61 58 -61h137c32 0 58 28 58 61z" />
    <glyph glyph-name="endash" unicode="&#x2013;" horiz-adv-x="281" 
d="M262 0h-243v54h243v-54z" />
    <glyph glyph-name="emdash" unicode="&#x2014;" horiz-adv-x="339" 
d="M355 0h-371v54h371v-54z" />
    <glyph glyph-name="quotedblleft" unicode="&#x201c;" horiz-adv-x="436" 
d="M360 591l-47 -81l-1 -13h34c6 0 11 -4 11 -10v-67c0 -6 -5 -10 -10 -10h-75c-6 0 -11 4 -11 10v59c0 11 3 20 13 35l66 92zM176 591l-47 -81v-13h34c6 0 10 -4 10 -10v-67c0 -6 -4 -10 -10 -10h-75c-6 0 -10 4 -10 10v59c0 11 3 20 13 35l66 92z" />
    <glyph glyph-name="quotedblright" unicode="&#x201d;" horiz-adv-x="436" 
d="M358 530c0 -11 -3 -20 -13 -35l-66 -92l-20 15l47 81l1 13h-34c-6 0 -11 4 -11 10v67c0 6 5 10 10 10h75c6 0 11 -4 11 -10v-59zM174 530c0 -11 -3 -20 -13 -35l-66 -92l-19 15l47 81v13h-34c-6 0 -10 4 -10 10v67c0 6 4 10 10 10h75c6 0 10 -4 10 -10v-59z" />
    <glyph glyph-name="quoteleft" unicode="&#x2018;" horiz-adv-x="252" 
d="M176 591l-47 -81v-13h34c6 0 10 -4 10 -10v-67c0 -6 -4 -10 -10 -10h-75c-6 0 -10 4 -10 10v59c0 11 3 20 13 35l66 92z" />
    <glyph glyph-name="quoteright" unicode="&#x2019;" horiz-adv-x="252" 
d="M174 530c0 -11 -3 -20 -13 -35l-66 -92l-19 15l47 81v13h-34c-6 0 -10 4 -10 10v67c0 6 4 10 10 10h75c6 0 10 -4 10 -10v-59z" />
    <glyph glyph-name="divide" unicode="&#xf7;" horiz-adv-x="547" 
d="M305 420h-65v68h65v-68zM469 260h-391v55h391v-55zM305 84h-65v68h65v-68z" />
    <glyph glyph-name="lozenge" unicode="&#x25ca;" horiz-adv-x="656" 
d="M575 256l-247 -252l-246 252l246 253zM500 256l-172 176l-172 -176l172 -176z" />
    <glyph glyph-name="ydieresis" unicode="&#xff;" horiz-adv-x="523" 
d="M435 410v-375c0 -71 -50 -123 -119 -123h-165v54h172c33 0 59 27 59 61v47h-196c-69 0 -119 51 -119 123v213h53v-222c0 -33 27 -60 59 -60h203v282h53zM374 477h-58v59h58v-59zM188 477h-58v59h58v-59z" />
    <glyph glyph-name="Ydieresis" unicode="&#x178;" horiz-adv-x="543" 
d="M455 580l-1 -143c0 -40 -6 -59 -30 -85l-135 -144v-208h-55v208l-136 144c-24 26 -31 45 -31 85v143h53v-140c0 -25 1 -35 19 -55l111 -121h21l110 121c18 20 19 30 19 55v140h55zM386 663h-58v59h58v-59zM200 663h-58v59h58v-59z" />
    <glyph glyph-name="fraction" unicode="&#x2044;" horiz-adv-x="433" 
d="M402 654l-318 -765l-53 25l318 765z" />
    <glyph glyph-name="guilsinglleft" unicode="&#x2039;" horiz-adv-x="365" 
d="M283 123l-37 -39l-168 175v50l168 175l37 -39l-149 -154v-14z" />
    <glyph glyph-name="guilsinglright" unicode="&#x203a;" horiz-adv-x="365" 
d="M287 259l-168 -175l-37 39l149 154v14l-149 154l37 39l168 -175v-50z" />
    <glyph glyph-name="fi" unicode="&#xfb01;" horiz-adv-x="692" 
d="M634 0h-223v48h84v217h-300v-265h-53v265h-84v52h84v147c0 71 48 116 118 116h86c70 0 123 -49 123 -120v-23h-55v30c0 33 -26 60 -59 60h-101c-33 0 -59 -27 -59 -60v-150h353v-269h86v-48z" />
    <glyph glyph-name="fl" unicode="&#xfb02;" horiz-adv-x="687" 
d="M634 0h-223v48h85v479h-242c-32 0 -60 -26 -60 -60l1 -150h130v-52h-130v-265h-53v265h-84v52h84v147c0 71 48 116 118 116h289v-532h85v-48z" />
    <glyph glyph-name="daggerdbl" unicode="&#x2021;" horiz-adv-x="370" 
d="M292 287h-87v-117h-41v117h-86v41h86v124h-86v40h86v88h41v-88h87v-40h-87v-124h87v-41z" />
    <glyph glyph-name="periodcentered" unicode="&#xb7;" horiz-adv-x="251" 
d="M173 257c0 -6 -4 -10 -10 -10h-75c-6 0 -10 4 -10 10v75c0 6 4 10 10 10h75c6 0 10 -4 10 -10v-75z" />
    <glyph glyph-name="quotesinglbase" unicode="&#x201a;" horiz-adv-x="256" 
d="M178 24c0 -11 -3 -20 -13 -35l-66 -92l-19 15l47 81v13h-34c-6 0 -10 4 -10 10v67c0 6 4 10 10 10h75c6 0 10 -4 10 -10v-59z" />
    <glyph glyph-name="quotedblbase" unicode="&#x201e;" horiz-adv-x="436" 
d="M358 24c0 -11 -3 -20 -13 -35l-66 -92l-20 15l47 81l1 13h-34c-6 0 -11 4 -11 10v67c0 6 5 10 10 10h75c6 0 11 -4 11 -10v-59zM174 24c0 -11 -3 -20 -13 -35l-66 -92l-19 15l47 81v13h-34c-6 0 -10 4 -10 10v67c0 6 4 10 10 10h75c6 0 10 -4 10 -10v-59z" />
    <glyph glyph-name="perthousand" unicode="&#x2030;" horiz-adv-x="944" 
d="M866 48c0 -37 -29 -67 -65 -67h-72c-37 0 -66 30 -66 67v74c0 37 29 67 66 67h72c36 0 65 -30 65 -67v-74zM281 438c0 -38 -29 -68 -65 -68h-72c-37 0 -66 30 -66 68v73c0 38 29 68 66 68h72c36 0 65 -30 65 -68v-73zM551 586l-411 -627l-46 35l410 627zM548 48
c0 -37 -29 -67 -65 -67h-73c-36 0 -65 30 -65 67v74c0 37 29 67 65 67h72c37 0 66 -30 66 -67v-74zM823 45v80c0 11 -9 20 -20 20h-77c-11 0 -20 -9 -20 -20v-80c0 -11 9 -20 20 -20h77c11 0 20 9 20 20zM238 435v79c0 12 -9 21 -20 21h-77c-11 0 -20 -9 -20 -21v-79
c0 -12 9 -21 20 -21h77c11 0 20 9 20 21zM505 45v80c0 11 -9 20 -20 20h-77c-11 0 -20 -9 -20 -20v-80c0 -11 9 -20 20 -20h77c11 0 20 9 20 20z" />
    <glyph glyph-name="Acircumflex" unicode="&#xc2;" 
d="M461 359v-359h-55v198h-284v-198h-55v359c0 39 7 61 31 86l132 135h68l132 -135c24 -25 31 -47 31 -86zM406 353c0 25 0 38 -19 58l-115 121h-14l-117 -121c-19 -20 -19 -33 -19 -58v-108h284v108zM376 664l-31 -21l-78 74h-10l-77 -74l-32 21l94 95h40z" />
    <glyph glyph-name="Ecircumflex" unicode="&#xca;" horiz-adv-x="485" 
d="M397 0h-330v580h330v-52h-276v-212h214v-53h-214l-1 -210h277v-53zM347 664l-32 -21l-77 74h-10l-78 -74l-31 21l94 95h40z" />
    <glyph glyph-name="Aacute" unicode="&#xc1;" 
d="M461 359v-359h-55v198h-284v-198h-55v359c0 39 7 61 31 86l132 135h68l132 -135c24 -25 31 -47 31 -86zM406 353c0 25 0 38 -19 58l-115 121h-14l-117 -121c-19 -20 -19 -33 -19 -58v-108h284v108zM319 799l-61 -141h-45l61 141h45z" />
    <glyph glyph-name="Edieresis" unicode="&#xcb;" horiz-adv-x="485" 
d="M397 0h-330v580h330v-52h-276v-212h214v-53h-214l-1 -210h277v-53zM350 663h-58v59h58v-59zM164 663h-58v59h58v-59z" />
    <glyph glyph-name="Egrave" unicode="&#xc8;" horiz-adv-x="485" 
d="M397 0h-330v580h330v-52h-276v-212h214v-53h-214l-1 -210h277v-53zM252 657h-46l-55 142h46z" />
    <glyph glyph-name="Iacute" unicode="&#xcd;" horiz-adv-x="379" 
d="M290 0h-223v48h85v484h-85v48h223v-48h-84v-484h84v-48zM242 800l-61 -141h-46l61 141h46z" />
    <glyph glyph-name="Icircumflex" unicode="&#xce;" horiz-adv-x="379" 
d="M290 0h-223v48h85v484h-85v48h223v-48h-84v-484h84v-48zM292 664l-32 -21l-77 74h-10l-78 -74l-32 21l94 95h41z" />
    <glyph glyph-name="Idieresis" unicode="&#xcf;" horiz-adv-x="379" 
d="M290 0h-223v48h85v484h-85v48h223v-48h-84v-484h84v-48zM303 663h-58v59h58v-59zM117 663h-58v59h58v-59z" />
    <glyph glyph-name="Igrave" unicode="&#xcc;" horiz-adv-x="379" 
d="M290 0h-223v48h85v484h-85v48h223v-48h-84v-484h84v-48zM208 656h-45l-55 142h45z" />
    <glyph glyph-name="Oacute" unicode="&#xd3;" horiz-adv-x="567" 
d="M479 122c0 -71 -50 -122 -119 -122h-174c-69 0 -119 51 -119 122v336c0 71 50 122 119 122h174c69 0 119 -51 119 -122v-336zM426 116v348c0 32 -26 63 -59 63h-188c-33 0 -59 -31 -59 -63v-348c0 -32 26 -63 59 -63h188c33 0 59 31 59 63zM348 801l-61 -142h-46l61 142
h46z" />
    <glyph glyph-name="Ocircumflex" unicode="&#xd4;" horiz-adv-x="567" 
d="M479 122c0 -71 -50 -122 -119 -122h-174c-69 0 -119 51 -119 122v336c0 71 50 122 119 122h174c69 0 119 -51 119 -122v-336zM426 116v348c0 32 -26 63 -59 63h-188c-33 0 -59 -31 -59 -63v-348c0 -32 26 -63 59 -63h188c33 0 59 31 59 63zM386 664l-31 -21l-78 74h-10
l-77 -74l-32 21l94 95h40z" />
    <glyph glyph-name="apple" horiz-adv-x="739" 
d="M689 67h-3v9l-3 -7h-2l-3 7v-9h-3v12h4l3 -7l2 7h5v-12zM673 76h-4v-9h-3v9h-4v3h11v-3zM651 74c0 -5 -5 -10 -10 -10c-6 0 -11 5 -11 11c0 5 5 10 11 10c5 0 10 -5 10 -11zM552 256c0 -29 -7 -44 -28 -54l-161 -82v202l131 66c26 14 58 2 58 -36v-96zM619 46
c0 -5 -4 -9 -10 -9c-5 0 -9 4 -9 9s4 10 9 10c6 0 10 -5 10 -10zM493 470c25 -14 24 -45 -7 -61l-126 -63c-9 -5 -9 -9 -9 -16v-217l-201 102v197c0 21 5 30 22 39c16 9 102 53 124 64c41 21 72 17 110 -1c24 -12 65 -32 87 -44zM589 23l-10 -1l-9 23h-2h-6v-22h-9v51h17
c6 0 18 0 18 -14c0 -7 -5 -11 -9 -13zM542 48c0 -17 -7 -26 -20 -26c-5 0 -9 2 -12 5c-5 4 -7 11 -7 21c0 11 2 18 6 22c4 3 8 5 13 5s9 -2 12 -5c5 -4 8 -12 8 -22zM497 74l-17 -51h-8l-17 51h10l11 -36l11 36h10zM444 23h-9v22h-16v-22h-10v51h10v-21h16v21h9v-51zM398 36
c0 -12 -12 -13 -18 -13h-20v6h3v38h-3v7h19c5 0 17 -1 17 -12c0 0 0 -11 -9 -12c11 -2 11 -14 11 -14zM349 38l-7 -12h-6l6 12l-6 10l2 2h4zM337 38l-7 -12h-6l6 12l-6 10l2 2h4zM313 35c-3 -9 -9 -13 -19 -13c-4 0 -9 2 -12 5c-4 4 -6 11 -6 21c0 11 2 18 7 22
c3 3 8 5 12 5c10 0 15 -6 17 -13l-9 -2c-1 5 -3 8 -8 8c-7 0 -9 -6 -9 -19s2 -20 10 -20c4 0 8 4 9 9zM265 23h-10v22h-16v-22h-9v51h9v-21h16v21h10v-51zM219 59c0 -15 -15 -15 -20 -15h-6v-21h-9v51h17c5 0 18 -1 18 -15zM172 23l-9 -1l-9 23h-2h-6v-22h-10v51h17
c7 0 18 0 18 -14c0 -7 -4 -11 -9 -13zM125 25l-3 -2l-3 3c-4 -4 -12 -4 -12 -4c-5 0 -9 2 -13 5c-4 4 -6 11 -6 21c0 11 3 18 7 22c3 3 8 5 13 5c9 0 15 -5 17 -13l-9 -2c-1 5 -4 8 -9 8c-7 0 -9 -6 -9 -19s2 -20 10 -20c0 0 5 0 8 4v10h-9v6h18v-24zM77 69c0 0 0 -9 -9 -12
l-4 1v3c2 1 5 3 5 3s2 2 2 5h-4v10h10v-10zM63 69c0 0 0 -9 -9 -12l-4 1v3c2 1 5 3 5 3s2 2 1 5h-3v10h10v-10zM646 74c0 4 -2 6 -5 6c-4 0 -6 -2 -6 -6c0 -3 2 -5 6 -5c3 0 5 2 5 5zM578 60c0 7 -6 8 -10 8h-6v-16h7c4 0 9 2 9 8zM532 48c0 14 -3 20 -10 20s-9 -6 -9 -20
s3 -19 9 -19s10 5 10 19zM386 60c0 6 -5 7 -8 7h-6v-14h7c3 0 7 1 7 7zM388 37c0 7 -7 9 -9 9h-7v-17h6c5 0 10 1 10 8zM209 59c0 7 -6 9 -10 9h-6v-17h7c4 0 9 2 9 8zM161 60c0 7 -5 8 -9 8h-6v-16h7c4 0 8 2 8 8z" />
    <glyph glyph-name="Ograve" unicode="&#xd2;" horiz-adv-x="567" 
d="M479 122c0 -71 -50 -122 -119 -122h-174c-69 0 -119 51 -119 122v336c0 71 50 122 119 122h174c69 0 119 -51 119 -122v-336zM426 116v348c0 32 -26 63 -59 63h-188c-33 0 -59 -31 -59 -63v-348c0 -32 26 -63 59 -63h188c33 0 59 31 59 63zM305 657h-46l-55 142h46z" />
    <glyph glyph-name="Uacute" unicode="&#xda;" horiz-adv-x="547" 
d="M459 580v-458c0 -71 -50 -122 -119 -122h-154c-69 0 -119 51 -119 122v458h57v-464c0 -32 26 -63 59 -63h160c33 0 59 31 59 63v464h57zM334 800l-61 -141h-46l61 141h46z" />
    <glyph glyph-name="Ucircumflex" unicode="&#xdb;" horiz-adv-x="547" 
d="M459 580v-458c0 -71 -50 -122 -119 -122h-154c-69 0 -119 51 -119 122v458h57v-464c0 -32 26 -63 59 -63h160c33 0 59 31 59 63v464h57zM376 664l-31 -21l-78 74h-10l-77 -74l-32 21l94 95h40z" />
    <glyph glyph-name="Ugrave" unicode="&#xd9;" horiz-adv-x="547" 
d="M459 580v-458c0 -71 -50 -122 -119 -122h-154c-69 0 -119 51 -119 122v458h57v-464c0 -32 26 -63 59 -63h160c33 0 59 31 59 63v464h57zM293 657h-45l-55 141h45z" />
    <glyph glyph-name="dotlessi" unicode="&#x131;" horiz-adv-x="359" 
d="M301 0h-223v48h84v307h-84v50h137v-357h86v-48z" />
    <glyph glyph-name="circumflex" unicode="&#x2c6;" 
d="M387 664l-32 -21l-78 74h-9l-78 -74l-32 21l94 95h41z" />
    <glyph glyph-name="tilde" unicode="&#x2dc;" 
d="M416 725l-71 -77c-12 -13 -28 -13 -42 1l-48 49c-7 7 -13 8 -20 0l-47 -52l-22 23l69 75c12 14 28 14 42 0l48 -49c7 -7 13 -9 20 0l48 53z" />
    <glyph glyph-name="macron" unicode="&#xaf;" 
d="M374 677h-211v41h211v-41z" />
    <glyph glyph-name="breve" unicode="&#x2d8;" 
d="M390 708c-9 -14 -47 -63 -114 -63c-68 0 -106 49 -115 63l29 24c10 -13 41 -47 85 -47c45 0 76 34 86 47z" />
    <glyph glyph-name="dotaccent" unicode="&#x2d9;" 
d="M310 658h-73v72h73v-72z" />
    <glyph glyph-name="ring" unicode="&#x2da;" 
d="M344 679c0 -26 -20 -46 -45 -46h-49c-26 0 -46 20 -46 46v50c0 26 20 46 45 46h50c25 0 45 -20 45 -46v-50zM313 677v54c0 7 -5 13 -12 13h-53c-7 0 -13 -6 -13 -13v-54c0 -7 6 -13 13 -13h53c7 0 12 6 12 13z" />
    <glyph glyph-name="cedilla" unicode="&#xb8;" horiz-adv-x="547" 
d="M314 -33c8 -55 -30 -101 -93 -101h-45v43h43c37 0 54 30 48 59l-7 39h47z" />
    <glyph glyph-name="hungarumlaut" unicode="&#x2dd;" 
d="M407 786l-50 -123h-45l50 123h45zM275 786l-50 -123h-45l50 123h45z" />
    <glyph glyph-name="ogonek" unicode="&#x2db;" horiz-adv-x="547" 
d="M315 -134h-44c-63 0 -102 46 -93 101l6 40h47l-7 -39c-5 -29 11 -59 48 -59h43v-43z" />
    <glyph glyph-name="caron" unicode="&#x2c7;" 
d="M387 737l-94 -95h-41l-94 95l32 21l78 -74h10l77 74z" />
    <glyph glyph-name="Eth" unicode="&#xd0;" horiz-adv-x="556" 
d="M478 120c0 -71 -50 -120 -119 -120h-274v273h-45v52h45v255h274c69 0 119 -49 119 -120v-340zM423 114v352c0 32 -26 61 -59 61h-226v-202h158v-52h-158v-220h226c33 0 59 29 59 61z" />
    <glyph glyph-name="onehalf" unicode="&#xbd;" horiz-adv-x="500" 
 />
    <glyph glyph-name="onequarter" unicode="&#xbc;" horiz-adv-x="500" 
 />
    <glyph glyph-name="onesuperior" unicode="&#xb9;" horiz-adv-x="500" 
 />
    <glyph glyph-name="threequarters" unicode="&#xbe;" horiz-adv-x="500" 
 />
    <glyph glyph-name="threesuperior" unicode="&#xb3;" horiz-adv-x="500" 
 />
    <glyph glyph-name="twosuperior" unicode="&#xb2;" horiz-adv-x="500" 
 />
    <glyph glyph-name="Euro" unicode="&#x20ac;" horiz-adv-x="529" 
d="M451 106v-54h-184c-69 0 -119 52 -119 123v31h-70v33h70v102h-70v32h70v38c0 71 50 123 119 123h184v-55h-189c-33 0 -59 -31 -59 -64v-42h110v-32h-110v-102h110v-33h-110v-36c0 -33 26 -64 59 -64h189z" />
    <glyph glyph-name="uni00A0" unicode="&#xa0;" horiz-adv-x="350" 
 />
    <glyph glyph-name="CR" horiz-adv-x="500" 
 />
    </font>
</defs>
</svg>
