<?xml version="1.0" encoding="UTF-8"?>
<svg id="b" data-name="Layer 2" xmlns="http://www.w3.org/2000/svg" width="24.138" height="30" viewBox="0 0 24.138 30">
  <g id="c" data-name="Layer 1">
    <g>
      <path d="m1.014,22.281c-.112-1.058.473-1.733,1.53-1.733h1.913c1.013,0,1.553.563,1.868,1.351.787,2.003,2.408,2.813,5.514,2.813,4.052,0,5.807-1.486,5.807-4.187,0-3.038-2.228-4.479-6.684-4.479-1.059,0-1.778-.698-1.756-1.733l.022-1.463c0-.743.226-1.103.743-1.666l5.626-6.054H4.007c-.99,0-1.553-.54-1.553-1.53v-1.756c0-.99.562-1.53,1.553-1.53h15.777c.99,0,1.53.54,1.53,1.53v2.161c0,.788-.202,1.373-.743,1.958l-5.873,6.077c5.852.63,8.439,4.074,8.439,8.598,0,5.762-4.096,9.047-11.344,9.047-6.369,0-10.263-2.453-10.78-7.404Z"/>
      <rect width="24.138" height="30" fill="none"/>
    </g>
  </g>
</svg>