<?xml version="1.0" encoding="UTF-8"?>
<svg id="b" data-name="Layer 2" xmlns="http://www.w3.org/2000/svg" width="24.552" height="30" viewBox="0 0 24.552 30">
  <g id="c" data-name="Layer 1">
    <g>
      <path d="m1,27.852V2.126c0-.99.54-1.53,1.53-1.53h3.15c.9,0,1.328.428,1.711,1.305l4.794,11.344h.18L17.159,1.901c.383-.877.811-1.305,1.711-1.305h3.15c.99,0,1.531.54,1.531,1.53v25.726c0,1.013-.541,1.553-1.531,1.553h-2.205c-.99,0-1.553-.54-1.553-1.553V11.241h-.271l-3.219,7.99c-.359.877-.787,1.283-1.688,1.283h-1.599c-.922,0-1.35-.405-1.71-1.283l-3.219-7.99h-.27v16.61c0,1.013-.541,1.553-1.554,1.553h-2.205c-.99,0-1.53-.54-1.53-1.553Z"/>
      <rect width="24.552" height="30" fill="none"/>
    </g>
  </g>
</svg>