<?xml version="1.0" encoding="UTF-8"?>
<svg id="b" data-name="Layer 2" xmlns="http://www.w3.org/2000/svg" width="24.53" height="30" viewBox="0 0 24.53 30">
  <g id="c" data-name="Layer 1">
    <g>
      <path d="m1,19.198c-.022-3.871,1.44-7.675,4.996-12.042L10.791,1.305c.584-.698,1.26-.99,2.183-.99h2.655c1.531,0,1.891.99.924,2.093l-5.808,6.819c.788-.203,1.711-.315,2.769-.315,6.438,0,10.016,4.479,10.016,10.24,0,6.032-3.804,10.533-11.366,10.533S1.023,25.139,1,19.198Zm11.208,5.537c3.624,0,5.808-2.116,5.808-5.582,0-3.443-2.184-5.537-5.808-5.537-3.601,0-5.762,2.093-5.762,5.537,0,3.466,2.161,5.582,5.762,5.582Z"/>
      <rect width="24.53" height="30" fill="none"/>
    </g>
  </g>
</svg>