<?xml version="1.0" encoding="UTF-8"?>
<svg id="b" data-name="Layer 2" xmlns="http://www.w3.org/2000/svg" width="23.516" height="30" viewBox="0 0 23.516 30">
  <g id="c" data-name="Layer 1">
    <g>
      <path d="m2.553,10.476c-.99,0-1.553-.54-1.553-1.553v-1.981c0-.99.562-1.553,1.553-1.553,2.902,0,5.356-1.081,7.156-3.736.496-.72,1.035-1.058,1.869-1.058h2.902c.99,0,1.553.54,1.553,1.53v22.462h4.93c.99,0,1.553.54,1.553,1.53v1.733c0,1.013-.562,1.553-1.553,1.553H2.777c-.99,0-1.553-.54-1.553-1.553v-1.733c0-.99.562-1.53,1.553-1.53h7.585V6.627c-1.53,2.903-3.826,3.849-7.81,3.849Z"/>
      <rect width="23.516" height="30" fill="none"/>
    </g>
  </g>
</svg>