<?xml version="1.0" encoding="UTF-8"?>
<svg id="b" data-name="Layer 2" xmlns="http://www.w3.org/2000/svg" width="24.326" height="30" viewBox="0 0 24.326 30">
  <g id="c" data-name="Layer 1">
    <g>
      <path d="m1,17.161v-4.366C1,4.805,4.691.033,12.163.033s11.163,4.771,11.163,12.761v4.366c0,8.012-3.691,12.806-11.163,12.806S1,25.173,1,17.161Zm6.145,3.916l7.719-14.967c-.742-.36-1.643-.54-2.7-.54-3.917,0-5.649,2.453-5.649,7.742v3.309c0,1.823.203,3.286.631,4.456Zm5.019,3.331c3.916,0,5.649-2.498,5.649-7.787v-3.309c0-1.801-.203-3.264-.607-4.411l-7.721,14.967c.743.36,1.621.54,2.679.54Z"/>
      <rect width="24.326" height="30" fill="none"/>
    </g>
  </g>
</svg>