<?xml version="1.0" encoding="UTF-8"?>
<svg id="b" data-name="Layer 2" xmlns="http://www.w3.org/2000/svg" width="24.943" height="30" viewBox="0 0 24.943 30">
  <g id="c" data-name="Layer 1">
    <g>
      <path d="m17.739,28.369l-5.267-8.463-5.267,8.463c-.45.72-1.013,1.035-1.846,1.035h-3.017c-1.237,0-1.71-.788-1.035-1.846l7.968-12.784L1.601,2.441c-.675-1.058-.18-1.846,1.035-1.846h3.038c.833,0,1.373.315,1.823,1.035l4.975,7.99,4.974-7.99c.45-.72,1.013-1.035,1.846-1.035h2.993c1.238,0,1.733.788,1.058,1.846l-7.675,12.334,7.968,12.784c.675,1.058.202,1.846-1.035,1.846h-3.017c-.832,0-1.396-.315-1.845-1.035Z"/>
      <rect width="24.943" height="30" fill="none"/>
    </g>
  </g>
</svg>