<?xml version="1.0" encoding="UTF-8"?>
<svg id="b" data-name="Layer 2" xmlns="http://www.w3.org/2000/svg" width="26.461" height="30" viewBox="0 0 26.461 30">
  <g id="c" data-name="Layer 1">
    <g>
      <path d="m3.924,25.848L1.021,2.351c-.135-1.147.383-1.755,1.463-1.755h2.139c1.035,0,1.598.495,1.71,1.576l1.958,19.558,2.746-17.488c.202-1.35.743-1.845,1.891-1.845h.585c1.148,0,1.688.495,1.891,1.845l2.746,17.488,1.958-19.558c.112-1.081.675-1.576,1.71-1.576h2.139c1.08,0,1.62.608,1.485,1.755l-2.926,23.497c-.293,2.566-.923,3.556-3.219,3.556h-1.08c-2.296,0-2.903-.968-3.286-3.534l-1.71-11.276-1.711,11.276c-.383,2.566-.99,3.534-3.286,3.534h-1.08c-2.296,0-2.926-.99-3.219-3.556Z"/>
      <rect width="26.461" height="30" fill="none"/>
    </g>
  </g>
</svg>