<?xml version="1.0" encoding="UTF-8"?>
<svg id="b" data-name="Layer 2" xmlns="http://www.w3.org/2000/svg" width="26.276" height="30" viewBox="0 0 26.276 30">
  <g id="c" data-name="Layer 1">
    <g>
      <path d="m1.075,27.671L6.566,5.12C7.376,1.766,8.772.596,11.698.596h2.881c2.926,0,4.321,1.17,5.132,4.524l5.491,22.552c.271,1.08-.202,1.733-1.306,1.733h-2.812c-.923,0-1.531-.45-1.711-1.328l-1.013-4.546H7.916l-1.013,4.546c-.18.878-.788,1.328-1.71,1.328h-2.813c-1.104,0-1.576-.653-1.306-1.733Zm16.16-9.16l-2.431-10.961c-.315-1.396-.698-1.643-1.509-1.643h-.314c-.811,0-1.193.248-1.508,1.643l-2.431,10.961h8.192Z"/>
      <rect width="26.276" height="30" fill="none"/>
    </g>
  </g>
</svg>