<?xml version="1.0" encoding="UTF-8"?>
<svg id="b" data-name="Layer 2" xmlns="http://www.w3.org/2000/svg" width="23.584" height="30" viewBox="0 0 23.584 30">
  <g id="c" data-name="Layer 1">
    <g>
      <rect width="23.584" height="30" fill="none"/>
      <path d="m19.455.033H6.087c-1.081,0-1.688.585-1.688,1.666v1.891c0,1.08.607,1.666,1.688,1.666h9.835c.495,0,.788.292.788.788v11.501c0,4.794-1.53,6.797-5.087,6.797-3.421,0-4.861-1.846-4.996-4.839-.067-1.351-.788-2.408-2.386-2.408h-.878c-1.575,0-2.363,1.058-2.363,2.993,0,6.234,3.849,9.88,10.578,9.88,6.955,0,11.006-3.961,11.006-12.244V3.139c0-1.891-1.238-3.106-3.129-3.106Z"/>
    </g>
  </g>
</svg>