<?xml version="1.0" encoding="UTF-8"?>
<svg id="b" data-name="Layer 2" xmlns="http://www.w3.org/2000/svg" width="22.189" height="30" viewBox="0 0 22.189 30">
  <g id="c" data-name="Layer 1">
    <g>
      <path d="m1,26.298V3.702C1,1.811,2.238.596,4.129.596h15.462c.99,0,1.553.54,1.553,1.53v2.161c0,.991-.563,1.531-1.553,1.531H7.662c-.495,0-.788.292-.788.788v5.649h12.649c.99,0,1.553.54,1.553,1.553v2.138c0,.99-.563,1.53-1.553,1.53H6.874v5.919c0,.495.293.788.788.788h11.974c.99,0,1.553.54,1.553,1.531v2.138c0,1.013-.563,1.553-1.553,1.553H4.129c-1.891,0-3.129-1.215-3.129-3.106Z"/>
      <rect width="22.189" height="30" fill="none"/>
    </g>
  </g>
</svg>