<?xml version="1.0" encoding="UTF-8"?>
<svg id="b" data-name="Layer 2" xmlns="http://www.w3.org/2000/svg" width="22.481" height="30" viewBox="0 0 22.481 30">
  <g id="c" data-name="Layer 1">
    <g>
      <path d="m1,27.852V3.702C1,1.811,2.238.596,4.129.596h15.822c.99,0,1.53.54,1.53,1.53v2.161c0,.991-.54,1.531-1.53,1.531H7.662c-.495,0-.788.292-.788.788v7.495h13.077c.99,0,1.53.563,1.53,1.553v2.138c0,.99-.54,1.553-1.53,1.553H6.874v8.508c0,1.013-.54,1.553-1.53,1.553h-2.791c-1.013,0-1.553-.54-1.553-1.553Z"/>
      <rect width="22.481" height="30" fill="none"/>
    </g>
  </g>
</svg>