<?xml version="1.0" encoding="UTF-8"?>
<svg id="b" data-name="Layer 2" xmlns="http://www.w3.org/2000/svg" width="24.228" height="30" viewBox="0 0 24.228 30">
  <g id="c" data-name="Layer 1">
    <g>
      <path d="m1.014,22.281c-.112-1.058.45-1.733,1.53-1.733h1.891c1.035,0,1.576.563,1.891,1.351.788,2.003,2.477,2.813,5.604,2.813,3.961,0,5.807-1.193,5.807-4.457,0-3.241-1.846-4.344-5.356-4.344h-6.91c-2.025,0-3.128-1.328-2.926-3.331L3.58,2.812c.181-1.643,1.171-2.498,2.859-2.498h12.783c.99,0,1.53.54,1.53,1.53v1.756c0,.99-.54,1.53-1.53,1.53h-10.061c-.721,0-.9.18-.99.9l-.54,5.109h6.257c5.784,0,9.34,2.903,9.34,8.958,0,6.595-4.23,9.588-11.298,9.588-6.279,0-10.398-2.476-10.916-7.404Z"/>
      <rect width="24.228" height="30" fill="none"/>
    </g>
  </g>
</svg>