<?xml version="1.0" encoding="UTF-8"?>
<svg id="b" data-name="Layer 2" xmlns="http://www.w3.org/2000/svg" width="23.921" height="30" viewBox="0 0 23.921 30">
  <g id="c" data-name="Layer 1">
    <g>
      <path d="m1,26.298V3.702C1,1.811,2.237.596,4.128.596h8.53c6.729,0,8.958,3.264,8.958,7.18,0,2.903-1.193,5.401-4.614,6.189v.45c4.366.652,5.919,3.218,5.919,7.089,0,4.997-2.678,7.9-10.69,7.9H4.128c-1.891,0-3.128-1.215-3.128-3.106Zm11.118-14.224c3.038,0,3.983-1.103,3.983-3.309s-.99-2.948-3.983-2.948h-4.456c-.495,0-.788.292-.788.788v5.469h5.244Zm-4.456,12.108h4.703c3.624,0,4.885-1.08,4.885-3.579,0-2.408-1.238-3.624-4.885-3.624h-5.491v6.415c0,.495.293.788.788.788Z"/>
      <rect width="23.921" height="30" fill="none"/>
    </g>
  </g>
</svg>