<?xml version="1.0" encoding="UTF-8"?>
<svg id="b" data-name="Layer 2" xmlns="http://www.w3.org/2000/svg" width="23.089" height="30" viewBox="0 0 23.089 30">
  <g id="c" data-name="Layer 1">
    <g>
      <path d="m1,27.852v-2.611c0-.788.158-1.306.676-1.936L15.72,5.817H2.53c-.99,0-1.53-.54-1.53-1.531v-2.161c0-.99.54-1.53,1.53-1.53h18.006c.99,0,1.553.54,1.553,1.53v2.633c0,.788-.18,1.306-.697,1.913L7.347,24.183h13.189c.99,0,1.553.54,1.553,1.531v2.138c0,1.013-.563,1.553-1.553,1.553H2.53c-.99,0-1.53-.54-1.53-1.553Z"/>
      <rect width="23.089" height="30" fill="none"/>
    </g>
  </g>
</svg>