<?xml version="1.0" encoding="UTF-8"?>
<svg id="b" data-name="Layer 2" xmlns="http://www.w3.org/2000/svg" width="25.109" height="30" viewBox="0 0 25.109 30">
  <g id="c" data-name="Layer 1">
    <g>
      <path d="m1,27.852V2.126c0-.99.541-1.53,1.531-1.53h2.79c1.013,0,1.554.54,1.554,1.53v12.154L16.687,1.519c.473-.63,1.058-.923,1.868-.923h3.421c1.306,0,1.733.878.9,1.891l-8.891,11.073,9.769,13.977c.72,1.036.314,1.868-.968,1.868h-3.017c-.81,0-1.417-.292-1.867-.968l-7.383-10.556-3.646,4.546v5.424c0,1.013-.541,1.553-1.554,1.553h-2.79c-.99,0-1.531-.54-1.531-1.553Z"/>
      <rect width="25.109" height="30" fill="none"/>
    </g>
  </g>
</svg>