<?xml version="1.0" encoding="UTF-8"?>
<svg id="b" data-name="Layer 2" xmlns="http://www.w3.org/2000/svg" width="23.382" height="30" viewBox="0 0 23.382 30">
  <g id="c" data-name="Layer 1">
    <g>
      <path d="m1,28.133v-2.093c0-12.334,15.891-9.701,15.891-16.678,0-2.25-1.599-3.938-5.154-3.938-3.061,0-5.154,1.238-5.334,3.961-.068.9-.586,1.463-1.531,1.463h-2.385c-.945,0-1.486-.788-1.486-1.756C1,3.623,4.871.314,11.804.314c6.616,0,10.466,3.083,10.466,8.575,0,10.916-15.395,8.71-15.395,15.305v.675h13.953c.991,0,1.554.54,1.554,1.53v1.733c0,1.013-.562,1.553-1.554,1.553H2.553c-1.012,0-1.553-.54-1.553-1.553Z"/>
      <rect width="23.382" height="30" fill="none"/>
    </g>
  </g>
</svg>