<?xml version="1.0" encoding="UTF-8"?>
<svg id="b" data-name="Layer 2" xmlns="http://www.w3.org/2000/svg" width="24.574" height="30" viewBox="0 0 24.574 30">
  <g id="c" data-name="Layer 1">
    <g>
      <rect width="24.574" height="30" fill="none"/>
      <path d="m1,14.865C1,4.152,4.218.033,13.873.033c3.916,0,8.17.675,8.17,2.948v1.26c0,1.036-.585,1.531-1.62,1.418-1.058-.135-3.286-.405-5.582-.405-6.234,0-8.147,1.868-8.147,9.61,0,8.373,2.318,9.881,7.585,9.881,3.398,0,4.118-.63,4.118-2.746v-4.321h-4.32c-.99,0-1.553-.54-1.553-1.553v-1.463c0-1.013.562-1.553,1.553-1.553h7.967c.99,0,1.531.54,1.531,1.53v9.746c0,3.871-3.85,5.582-9.813,5.582C4.443,29.967,1,25.893,1,14.865Z"/>
    </g>
  </g>
</svg>