<?xml version="1.0" encoding="UTF-8"?>
<svg id="b" data-name="Layer 2" xmlns="http://www.w3.org/2000/svg" width="24.597" height="30" viewBox="0 0 24.597 30">
  <g id="c" data-name="Layer 1">
    <g>
      <path d="m1,15.067C1,4.309,4.421.033,12.298.033s11.299,4.276,11.299,15.034c0,4.816-.631,8.328-2.499,10.488l1.801,2.543c.721,1.058.315,1.868-.968,1.868h-2.453c-.833,0-1.418-.315-1.891-.968l-6.685-9.453c-.742-1.058-.314-1.891.945-1.891h2.476c.811,0,1.418.315,1.891.968l1.306,1.868c.405-1.351.585-3.106.585-5.424,0-7.81-2.138-9.408-5.807-9.408-3.443,0-5.694,1.418-5.694,9.43,0,7.315,1.868,9.093,3.871,9.093.721,0,1.418.135,1.418,1.576,0,1.553-.81,3.646-3.601,3.646-4.097,0-7.292-4.411-7.292-14.337Z"/>
      <rect width="24.597" height="30" fill="none"/>
    </g>
  </g>
</svg>