<?xml version="1.0" encoding="UTF-8"?>
<svg id="b" data-name="Layer 2" xmlns="http://www.w3.org/2000/svg" width="22.706" height="30" viewBox="0 0 22.706 30">
  <g id="c" data-name="Layer 1">
    <g>
      <path d="m1,27.852v-2.138c0-.991.54-1.531,1.553-1.531h5.852V5.817H2.553c-1.013,0-1.553-.54-1.553-1.531v-2.161c0-.99.54-1.53,1.553-1.53h17.622c.991,0,1.531.54,1.531,1.53v2.161c0,.991-.54,1.531-1.531,1.531h-5.874v18.365h5.874c.991,0,1.531.54,1.531,1.531v2.138c0,1.013-.54,1.553-1.531,1.553H2.553c-1.013,0-1.553-.54-1.553-1.553Z"/>
      <rect width="22.706" height="30" fill="none"/>
    </g>
  </g>
</svg>