<?xml version="1.0" encoding="UTF-8"?>
<svg id="b" data-name="Layer 2" xmlns="http://www.w3.org/2000/svg" width="26.276" height="30" viewBox="0 0 26.276 30">
  <g id="c" data-name="Layer 1">
    <g>
      <path d="m6.566,24.88L1.074,2.306c-.27-1.058.203-1.71,1.306-1.71h2.813c.923,0,1.53.45,1.711,1.328l4.568,20.526c.315,1.396.698,1.643,1.508,1.643h.315c.811,0,1.192-.248,1.508-1.643L19.373,1.924c.18-.878.787-1.328,1.71-1.328h2.813c1.103,0,1.575.653,1.306,1.71l-5.492,22.574c-.81,3.354-2.205,4.524-5.131,4.524h-2.881c-2.927,0-4.321-1.17-5.132-4.524Z"/>
      <rect width="26.276" height="30" fill="none"/>
    </g>
  </g>
</svg>