<?xml version="1.0" encoding="UTF-8"?>
<svg id="b" data-name="Layer 2" xmlns="http://www.w3.org/2000/svg" width="23.584" height="30" viewBox="0 0 23.584 30">
  <g id="c" data-name="Layer 1">
    <g>
      <path d="m2.756,28.864c-1.08-.36-1.508-.9-1.508-1.913v-1.868c0-1.035.63-1.598,1.665-1.418,1.44.248,3.602.968,7.788.945,4.681,0,6.144-.923,6.144-3.804,0-2.116-.72-3.038-3.578-3.398l-4.614-.607c-5.086-.653-7.652-3.106-7.652-8.283C1,3.612,3.363.033,11.961.033c3.826,0,6.189.72,7.338,1.103,1.103.36,1.53.923,1.53,1.936v1.846c0,1.08-.631,1.666-1.688,1.418-1.418-.292-3.511-.968-7.044-.968-4.052,0-5.38.855-5.38,3.331,0,1.845.721,2.768,3.579,3.151l4.704.607c5.019.653,7.584,3.083,7.584,8.395,0,5.604-2.948,9.115-11.928,9.115-3.895,0-6.752-.698-7.9-1.103Z"/>
      <rect width="23.584" height="30" fill="none"/>
    </g>
  </g>
</svg>