<?xml version="1.0" encoding="UTF-8"?>
<svg id="b" data-name="Layer 2" xmlns="http://www.w3.org/2000/svg" width="23.066" height="30" viewBox="0 0 23.066 30">
  <g id="c" data-name="Layer 1">
    <g>
      <path d="m14.977,28.234L6.289,9.688v18.163c0,1.013-.563,1.553-1.554,1.553h-2.183c-.99,0-1.553-.54-1.553-1.553V2.126c0-.99.562-1.53,1.553-1.53h3.736c.854,0,1.44.36,1.8,1.148l8.688,18.523V2.126c0-.99.562-1.53,1.553-1.53h2.183c.99,0,1.554.54,1.554,1.53v25.726c0,1.013-.563,1.553-1.554,1.553h-3.735c-.855,0-1.44-.36-1.801-1.17Z"/>
      <rect width="23.066" height="30" fill="none"/>
    </g>
  </g>
</svg>