<?xml version="1.0" encoding="UTF-8"?>
<svg id="b" data-name="Layer 2" xmlns="http://www.w3.org/2000/svg" width="24.53" height="30" viewBox="0 0 24.53 30">
  <g id="c" data-name="Layer 1">
    <g>
      <path d="m23.529,10.802c.021,3.871-1.441,7.675-4.997,12.041l-4.794,5.852c-.586.698-1.261.99-2.184.99h-2.655c-1.53,0-1.891-.99-.923-2.093l5.807-6.819c-.787.203-1.711.315-2.769.315-6.437,0-10.015-4.479-10.015-10.24C1,4.815,4.803.314,12.365.314s11.141,4.546,11.164,10.488Zm-11.209,5.582c3.602,0,5.762-2.093,5.762-5.537,0-3.466-2.16-5.582-5.762-5.582-3.623,0-5.807,2.116-5.807,5.582,0,3.443,2.184,5.537,5.807,5.537Z"/>
      <rect width="24.53" height="30" fill="none"/>
    </g>
  </g>
</svg>