<?xml version="1.0" encoding="UTF-8"?>
<svg id="b" data-name="Layer 2" xmlns="http://www.w3.org/2000/svg" width="25.88" height="30" viewBox="0 0 25.88 30">
  <g id="c" data-name="Layer 1">
    <g>
      <path d="m15.629,27.874v-3.714H2.531c-.99,0-1.531-.54-1.531-1.53v-2.363c0-.563.09-.99.338-1.53L9.058,1.901c.428-.922,1.035-1.305,2.025-1.305h2.229c1.327,0,1.845.855,1.306,2.048l-7.697,16.88h8.709v-4.974c0-1.013.541-1.553,1.531-1.553h2.611c.99,0,1.529.54,1.529,1.553v4.974h2.049c.968,0,1.53.54,1.53,1.53v1.576c0,.99-.563,1.53-1.53,1.53h-2.049v3.714c0,.99-.539,1.53-1.529,1.53h-2.611c-.99,0-1.531-.54-1.531-1.53Z"/>
      <rect width="25.88" height="30" fill="none"/>
    </g>
  </g>
</svg>