<?xml version="1.0" encoding="UTF-8"?>
<svg id="b" data-name="Layer 2" xmlns="http://www.w3.org/2000/svg" width="24.305" height="30" viewBox="0 0 24.305 30">
  <g id="c" data-name="Layer 1">
    <g>
      <rect width="24.305" height="30" fill="none"/>
      <path d="m1,15.135C1,5.592,3.836.033,12.591.033h.675c6.369,0,10.039,2.971,10.039,7.787,0,2.476-1.081,3.511-3.062,3.511-1.665,0-2.183-.743-2.341-1.868-.359-2.791-2.115-3.781-4.906-3.781h-.495c-4.682,0-5.807,2.791-5.807,9.25,0,7,1.372,9.7,7.899,9.7,2.386,0,4.906-.337,6.369-.607,1.014-.203,1.621.427,1.621,1.463v1.688c0,2.273-5.177,2.791-8.373,2.791C3.363,29.967,1,24.025,1,15.135Z"/>
    </g>
  </g>
</svg>