<?xml version="1.0" standalone="no"?>
<!DOCTYPE svg PUBLIC "-//W3C//DTD SVG 20010904//EN"
 "http://www.w3.org/TR/2001/REC-SVG-20010904/DTD/svg10.dtd">
<svg version="1.0" xmlns="http://www.w3.org/2000/svg"
 width="2251.000000pt" height="2251.000000pt" viewBox="0 0 2251.000000 2251.000000"
 preserveAspectRatio="xMidYMid meet">

<g transform="translate(0.000000,2251.000000) scale(0.100000,-0.100000)"
fill="#000000" stroke="#000000">
<path d="M11920 18094 c-17 -10 -42 -13 -79 -10 -45 4 -60 1 -85 -17 -25 -18
-43 -22 -90 -20 -47 2 -73 -4 -126 -27 -38 -17 -84 -30 -103 -30 -143 0 -334
-95 -382 -190 -22 -43 -35 -55 -117 -101 -125 -70 -195 -118 -252 -173 -26
-25 -64 -55 -86 -66 -21 -11 -62 -47 -92 -80 -29 -34 -96 -94 -149 -135 -59
-46 -103 -89 -115 -112 -13 -26 -30 -40 -51 -47 -47 -13 -185 -160 -330 -351
-45 -60 -74 -88 -114 -109 -95 -51 -110 -66 -144 -140 -23 -49 -45 -81 -74
-104 -22 -18 -41 -39 -41 -47 0 -19 -59 -85 -76 -85 -8 0 -29 -30 -48 -67 -19
-38 -46 -79 -60 -92 -14 -14 -26 -33 -26 -44 0 -10 -24 -67 -54 -125 -44 -87
-56 -122 -64 -186 -9 -64 -16 -87 -42 -120 -17 -23 -38 -53 -47 -67 l-17 -26
-58 61 c-32 34 -83 103 -114 153 -43 73 -64 98 -100 119 -50 29 -64 49 -64 91
0 22 -14 42 -56 83 -55 54 -194 224 -245 301 -14 21 -42 56 -62 79 -21 22 -37
46 -37 53 0 18 -132 67 -181 67 -23 0 -72 -9 -108 -20 -80 -24 -183 -104 -210
-166 -20 -43 -113 -154 -142 -168 -9 -5 -23 -22 -30 -38 -6 -16 -27 -40 -45
-54 -23 -18 -42 -48 -64 -104 -33 -81 -61 -118 -113 -148 -17 -10 -66 -72
-117 -147 -48 -71 -104 -150 -125 -175 -21 -25 -55 -82 -76 -126 -30 -63 -47
-87 -74 -103 -26 -15 -43 -38 -64 -83 -31 -69 -165 -224 -238 -278 -32 -24
-44 -40 -49 -68 -7 -39 -33 -92 -45 -92 -8 0 -130 -143 -202 -237 -27 -35 -65
-72 -90 -85 -28 -16 -43 -31 -45 -47 -2 -14 -14 -33 -27 -43 -25 -19 -133
-186 -178 -273 -17 -34 -52 -73 -107 -119 -58 -50 -88 -84 -107 -122 -28 -57
-216 -270 -303 -343 -33 -28 -60 -62 -73 -90 -10 -25 -29 -59 -42 -76 -12 -16
-28 -47 -35 -68 -13 -42 -118 -165 -175 -205 -26 -19 -39 -39 -50 -76 -12 -41
-33 -68 -113 -150 -53 -56 -122 -134 -152 -175 -30 -41 -69 -89 -86 -107 -30
-32 -32 -39 -38 -140 -5 -69 -3 -144 5 -211 10 -76 10 -112 2 -133 -9 -23 -8
-30 4 -34 12 -5 14 -16 8 -53 -4 -25 -12 -54 -18 -64 -9 -14 -5 -25 17 -58 27
-39 27 -41 17 -109 -6 -40 -11 -220 -11 -423 0 -280 4 -376 17 -459 9 -58 16
-130 16 -160 0 -78 -11 -208 -17 -219 -3 -4 -1 -23 4 -42 26 -89 69 -449 69
-574 0 -86 5 -149 15 -187 15 -55 16 -133 13 -698 0 -19 7 -53 16 -75 10 -25
16 -71 17 -121 0 -44 5 -107 11 -139 7 -41 7 -92 0 -178 -9 -90 -9 -123 0
-134 9 -10 9 -33 -1 -98 -11 -73 -11 -92 3 -147 14 -57 14 -65 0 -87 -12 -19
-14 -39 -9 -90 10 -94 36 -131 141 -198 27 -18 61 -43 75 -57 14 -14 46 -34
73 -45 26 -11 73 -38 105 -59 31 -22 75 -48 97 -59 22 -11 53 -27 69 -36 21
-12 35 -13 48 -6 25 13 142 -32 183 -72 17 -16 37 -29 45 -29 8 0 25 -11 39
-24 46 -42 237 -116 326 -126 70 -8 98 -18 220 -79 77 -39 159 -73 181 -76 23
-4 66 -22 95 -41 30 -19 72 -39 94 -45 72 -18 96 -31 112 -63 9 -17 21 -34 27
-38 6 -5 74 -29 151 -54 85 -28 160 -59 190 -80 37 -25 61 -34 91 -34 24 0 47
-6 54 -15 22 -26 93 -62 200 -100 58 -21 121 -46 141 -56 21 -10 70 -27 110
-39 76 -21 149 -60 227 -122 75 -60 105 -78 133 -78 15 0 32 -7 39 -15 8 -10
30 -15 62 -15 42 0 71 -11 187 -70 75 -38 143 -70 151 -70 28 0 135 -58 164
-89 17 -17 38 -31 47 -31 10 0 34 -11 54 -24 19 -14 57 -29 83 -35 68 -14 218
-73 307 -120 42 -23 86 -41 97 -41 11 0 73 -23 138 -51 100 -43 125 -50 157
-44 28 4 56 -1 106 -20 37 -14 89 -30 114 -36 26 -5 86 -28 133 -51 47 -22
116 -51 155 -64 38 -13 81 -35 95 -48 14 -13 50 -29 80 -36 30 -7 75 -22 100
-33 46 -20 217 -69 326 -93 69 -15 114 -33 114 -46 0 -13 39 -25 139 -42 63
-11 113 -27 159 -51 212 -112 369 -161 435 -137 18 7 53 12 76 12 23 0 75 11
114 25 40 13 113 35 162 48 96 26 310 99 354 121 14 7 43 16 64 20 23 4 54 22
78 43 36 33 47 37 147 51 88 12 114 20 148 44 24 17 67 35 108 43 45 10 94 30
149 63 45 27 114 60 152 72 39 12 89 33 112 46 23 13 53 24 66 24 14 0 42 7
62 16 21 9 71 24 111 34 92 24 168 62 195 99 32 43 85 68 189 86 52 10 106 23
120 31 15 7 56 22 93 34 37 12 106 45 154 74 94 57 103 60 262 102 72 19 120
38 155 62 37 26 67 38 111 43 151 19 255 39 309 58 89 32 93 30 101 -37 16
-130 45 -281 65 -337 13 -37 25 -107 31 -185 6 -69 19 -167 30 -219 10 -51 19
-116 19 -143 0 -34 8 -63 24 -91 13 -23 31 -73 40 -111 10 -38 29 -98 44 -132
25 -58 30 -64 69 -73 79 -20 78 -20 103 79 12 49 35 117 51 150 46 98 50 128
54 414 4 250 6 277 25 322 13 29 20 61 17 79 -3 17 1 41 8 55 7 14 16 52 20
85 4 33 13 89 21 124 10 42 14 103 12 174 l-3 110 59 24 c33 12 69 32 81 43
16 15 30 19 48 15 16 -4 37 -1 54 9 15 8 55 22 87 31 33 9 95 35 139 56 43 22
106 49 139 59 33 10 70 28 83 40 15 14 25 18 30 11 12 -20 40 -11 110 36 62
43 75 48 120 47 53 -2 101 -21 126 -50 8 -9 43 -30 79 -46 36 -16 79 -40 97
-54 22 -17 44 -24 76 -24 32 0 49 -6 63 -21 28 -31 68 -49 109 -49 25 0 35 -4
35 -16 0 -13 7 -15 38 -9 23 4 68 -2 122 -14 47 -12 114 -21 150 -21 80 0 125
26 166 96 49 84 30 170 -48 214 -21 12 -53 39 -70 62 -75 92 -91 108 -115 114
-22 6 -92 71 -101 94 -1 4 32 17 73 29 119 36 193 68 228 98 18 16 58 41 89
56 82 40 93 61 83 166 -9 101 -9 146 0 221 5 39 1 89 -14 167 -18 100 -19 116
-6 146 8 19 12 42 10 53 -2 10 -14 62 -25 114 -20 88 -21 103 -10 210 17 154
4 344 -29 451 -8 25 -8 45 -2 62 5 14 7 27 4 30 -2 3 -9 72 -14 152 -9 138 -8
149 10 179 17 28 19 44 14 121 -8 130 -3 140 163 308 29 29 62 72 74 97 13 25
33 59 45 75 13 17 33 50 45 75 12 25 36 60 54 78 30 32 31 36 31 121 0 79 -3
92 -28 130 -37 56 -80 81 -139 81 -38 0 -68 -10 -143 -50 -52 -27 -98 -50
-101 -50 -4 0 1 11 9 24 17 26 14 46 -17 118 -12 29 -14 43 -5 65 16 41 39
198 39 267 0 33 -9 93 -21 134 l-21 75 26 51 c33 66 45 166 22 185 -22 18 -20
36 8 114 23 65 23 65 4 71 -13 3 -18 10 -15 19 3 8 3 18 -1 21 -3 4 -7 48 -8
99 -3 119 -17 263 -27 273 -4 4 0 15 9 25 18 20 18 22 -15 143 -21 73 -21 80
-5 103 15 24 15 31 -1 112 -18 87 -45 131 -81 131 -16 0 -19 16 -4 25 20 12 9
51 -22 80 -62 59 -131 151 -158 210 -15 33 -39 71 -54 84 -14 14 -26 31 -26
39 0 8 -26 42 -58 77 -31 34 -73 90 -92 124 -62 109 -118 194 -134 203 -21 12
-46 61 -61 119 -7 25 -35 79 -62 120 -27 41 -57 95 -67 121 -10 26 -28 56 -40
65 -12 10 -39 41 -60 68 -21 28 -45 54 -52 58 -8 4 -14 16 -14 26 0 9 -7 26
-15 37 -8 10 -24 38 -35 62 -10 23 -24 41 -31 40 -13 -4 -75 131 -84 184 -4
29 -15 44 -54 72 -36 25 -51 44 -56 68 -12 54 -50 120 -94 163 -34 32 -41 46
-41 76 0 33 -9 48 -78 121 -88 93 -192 242 -192 274 0 12 -11 29 -24 38 -15
10 -23 22 -20 33 3 10 -8 43 -24 73 -16 30 -33 66 -37 80 -11 34 -123 200
-135 200 -6 0 -35 25 -65 55 -50 50 -55 58 -55 100 0 42 -5 50 -76 127 -57 62
-88 107 -124 180 -61 123 -190 318 -233 351 -25 19 -44 50 -71 117 -21 50 -54
115 -73 143 -20 29 -42 74 -50 100 -11 38 -29 63 -83 114 -38 36 -71 76 -74
88 -7 28 -81 139 -137 206 -25 31 -41 62 -45 89 -4 23 -17 54 -29 68 -37 45
-85 125 -85 143 0 22 -82 97 -114 105 -15 3 -41 3 -59 0 -22 -4 -40 -1 -52 9
-24 17 -108 20 -138 3 -56 -30 -192 -169 -258 -265 -79 -113 -129 -170 -165
-184 -14 -5 -29 -20 -34 -33 -5 -14 -23 -44 -40 -68 -18 -24 -38 -58 -45 -75
-8 -18 -20 -33 -26 -33 -7 0 -25 -11 -39 -25 l-27 -26 3 94 c1 52 5 108 9 126
12 55 -14 162 -46 192 -15 14 -42 50 -59 80 -18 30 -45 70 -60 89 -28 36 -141
108 -261 167 -36 18 -89 48 -116 66 l-50 34 -169 6 c-93 3 -236 2 -319 -2 -97
-5 -156 -4 -166 2 -11 7 -46 7 -105 -1 -49 -6 -92 -7 -96 -4 -3 4 5 41 18 82
13 41 30 102 38 136 12 57 12 62 -6 73 -22 13 -24 50 -3 77 19 25 19 104 0
130 -8 12 -28 24 -45 27 -16 4 -30 12 -30 18 0 9 -28 77 -37 88 -1 2 -10 -2
-19 -10 -14 -11 -18 -10 -32 8 -29 36 -64 47 -182 55 -63 4 -128 10 -145 12
-17 3 -41 -2 -55 -10z m169 -290 l50 -6 10 -49 c10 -44 8 -58 -14 -121 -14
-39 -25 -81 -25 -93 0 -21 -6 -31 -119 -196 -97 -143 -130 -181 -151 -174 -13
4 -34 -13 -80 -65 -34 -38 -68 -70 -75 -70 -8 0 -57 -45 -111 -100 -77 -80
-106 -102 -145 -115 -43 -15 -49 -20 -49 -45 0 -21 -6 -31 -22 -36 -27 -8
-200 -171 -316 -298 -50 -54 -124 -120 -183 -162 -55 -39 -139 -110 -187 -158
-227 -225 -213 -208 -198 -231 12 -17 23 -20 66 -17 60 3 117 30 333 155 78
45 167 95 197 110 30 15 93 61 140 102 47 41 99 83 117 93 17 9 60 39 95 67
35 27 90 63 122 80 48 24 62 37 71 65 8 24 28 46 65 72 29 21 61 51 71 68 10
16 23 30 29 30 5 0 41 29 79 65 37 36 72 65 77 65 5 0 59 27 119 61 61 34 133
70 162 81 28 10 79 41 113 68 71 57 117 74 255 95 55 8 136 22 180 30 110 20
125 19 181 -11 42 -23 62 -27 147 -28 l97 -2 43 -42 c23 -23 57 -47 75 -53 21
-7 43 -26 58 -51 14 -21 40 -56 59 -77 44 -48 65 -98 65 -152 0 -23 5 -70 11
-104 11 -55 10 -66 -6 -96 -10 -19 -27 -52 -39 -74 -13 -25 -22 -62 -23 -100
-2 -50 -12 -82 -53 -170 -28 -60 -66 -127 -84 -150 -18 -22 -36 -52 -39 -67
-4 -14 -28 -50 -53 -80 -40 -47 -45 -57 -41 -90 6 -44 -13 -74 -67 -107 -19
-12 -52 -49 -73 -84 -58 -91 -236 -323 -302 -391 -41 -43 -77 -68 -137 -96
-45 -21 -85 -43 -88 -49 -4 -6 -16 -11 -27 -11 -15 0 -19 -7 -19 -30 0 -20 -6
-33 -17 -37 -10 -4 -39 -24 -64 -45 -25 -21 -54 -38 -65 -38 -11 0 -31 -12
-45 -26 -13 -15 -55 -48 -94 -74 -196 -133 -305 -219 -305 -241 0 -5 -9 -9
-20 -9 -11 0 -37 -16 -58 -35 -22 -19 -56 -40 -78 -47 -42 -14 -43 -20 -27
-88 11 -45 41 -51 91 -17 22 15 60 28 92 32 30 4 71 18 91 31 21 13 84 35 141
49 57 15 123 38 147 53 83 51 136 81 171 97 19 9 60 40 90 70 30 29 97 92 147
140 86 80 96 86 130 83 35 -3 37 -1 51 40 11 34 33 59 104 120 93 79 104 86
150 96 22 5 35 21 64 79 50 101 92 141 178 171 124 44 220 70 247 68 16 -2 39
8 62 26 59 47 112 49 241 7 60 -19 115 -35 123 -35 8 0 63 -48 123 -107 93
-93 109 -114 114 -148 4 -22 13 -63 21 -91 13 -43 13 -61 1 -131 -11 -57 -21
-88 -38 -105 -35 -36 -136 -181 -194 -277 -33 -54 -65 -93 -90 -110 -32 -22
-43 -38 -59 -88 -22 -68 -52 -106 -106 -134 -23 -11 -41 -30 -47 -48 -6 -16
-19 -32 -30 -35 -11 -4 -27 -18 -36 -31 -9 -14 -45 -43 -80 -65 -54 -34 -67
-48 -87 -95 -20 -46 -28 -55 -50 -55 -15 0 -32 -7 -39 -15 -23 -28 -90 -29
-165 0 -70 26 -71 26 -285 21 -118 -3 -231 -10 -250 -15 -19 -6 -53 -11 -75
-11 -34 0 -47 6 -76 36 -59 62 -58 62 -175 -10 -58 -37 -113 -66 -123 -66 -9
0 -57 -20 -105 -45 -70 -36 -99 -45 -140 -45 -103 -1 -186 -17 -224 -44 -101
-72 -157 -106 -172 -106 -9 0 -25 -8 -34 -19 -9 -10 -95 -71 -190 -135 -96
-64 -205 -144 -242 -177 -88 -78 -130 -99 -194 -99 -28 0 -78 -8 -111 -17 -52
-14 -72 -15 -139 -5 -156 22 -196 61 -245 235 -7 27 -20 58 -28 70 -10 15 -13
39 -10 73 3 27 0 80 -5 117 -12 74 -1 127 25 127 11 0 13 7 8 30 -6 29 -3 44
77 280 15 47 28 100 28 117 0 58 45 163 84 195 23 19 39 44 47 71 17 65 32 87
117 181 78 84 130 169 167 269 10 26 24 47 31 47 7 0 58 43 112 95 55 52 105
95 112 95 7 0 43 31 80 69 37 38 91 81 119 95 28 15 76 49 106 76 30 28 59 50
64 50 6 0 11 15 13 33 2 26 8 33 29 35 15 2 45 19 68 39 36 30 47 35 76 30 33
-5 34 -5 24 20 -11 29 -5 43 20 43 45 0 224 122 236 162 4 11 20 41 36 66 33
52 38 77 13 68 -9 -4 -22 -2 -29 4 -16 13 -162 -36 -230 -78 -27 -17 -97 -49
-155 -72 -140 -55 -178 -79 -242 -149 -45 -50 -74 -70 -174 -120 -116 -58
-124 -65 -223 -170 -57 -62 -137 -135 -181 -166 -44 -31 -106 -86 -137 -121
-32 -36 -95 -90 -139 -120 -45 -30 -98 -67 -118 -83 -21 -17 -58 -37 -84 -46
-26 -10 -90 -36 -142 -60 -86 -38 -261 -95 -294 -95 -7 0 -34 -12 -59 -26 -42
-23 -58 -25 -164 -27 -74 -1 -125 2 -138 10 -11 6 -55 51 -97 100 -57 64 -94
120 -139 208 -60 116 -62 123 -67 211 -3 66 0 106 11 140 9 27 15 69 14 94 -3
65 56 201 105 246 21 19 38 41 38 50 0 8 18 36 39 62 21 26 50 70 64 98 15 28
44 69 67 90 31 30 40 45 40 72 0 28 3 32 19 27 16 -5 21 1 26 27 11 47 130
180 182 202 32 13 53 33 83 79 23 34 68 89 101 122 33 33 118 119 188 192 90
92 144 139 182 158 30 16 92 64 139 110 47 46 94 85 105 89 12 3 38 26 58 51
35 41 42 45 84 45 52 0 101 33 147 99 16 22 44 49 62 60 19 11 38 31 43 44 5
13 29 36 53 50 50 30 164 130 228 200 24 27 55 54 69 62 56 28 339 89 461 99
46 3 102 1 189 -10z m2531 -1032 c0 -9 14 -37 31 -62 16 -25 39 -63 51 -85 11
-22 45 -73 75 -113 30 -41 61 -89 69 -107 7 -18 27 -43 44 -55 16 -12 33 -33
36 -48 9 -38 47 -103 78 -131 17 -16 26 -35 26 -54 0 -23 10 -39 41 -66 93
-82 121 -112 116 -123 -18 -51 -18 -58 2 -58 37 0 174 -181 286 -379 44 -78
77 -126 91 -131 13 -5 25 -21 29 -40 4 -20 37 -61 99 -123 89 -88 95 -96 121
-175 27 -82 45 -112 69 -112 24 0 63 -50 84 -108 17 -46 31 -64 66 -89 41 -29
47 -40 71 -115 24 -78 29 -86 71 -111 37 -22 50 -39 78 -99 18 -40 43 -82 55
-92 11 -11 21 -24 21 -31 0 -7 27 -50 61 -96 71 -98 114 -179 125 -233 3 -21
19 -52 33 -70 15 -17 58 -80 97 -141 38 -60 79 -118 92 -129 13 -10 53 -79 90
-154 99 -201 101 -203 147 -253 42 -45 57 -79 70 -151 4 -25 15 -44 34 -57 18
-13 31 -33 35 -54 8 -43 46 -102 141 -221 41 -52 75 -103 75 -113 0 -10 12
-40 25 -68 14 -27 25 -56 25 -62 0 -7 9 -13 19 -13 23 0 59 -43 67 -79 11 -48
66 -146 99 -176 31 -28 34 -37 45 -130 7 -55 19 -115 27 -133 13 -29 13 -42
-3 -113 -14 -67 -15 -84 -4 -104 10 -20 11 -33 2 -64 -16 -52 -15 -111 2 -130
7 -9 22 -53 34 -99 16 -66 18 -91 10 -120 -6 -20 -12 -68 -13 -107 -2 -38 -8
-90 -14 -115 -5 -25 -10 -71 -11 -103 0 -33 -7 -74 -16 -94 -15 -30 -15 -42
-4 -103 8 -42 10 -94 6 -137 -3 -37 -10 -129 -15 -204 -5 -74 -15 -163 -21
-197 -7 -34 -10 -98 -8 -142 5 -79 4 -82 -23 -105 -16 -13 -52 -31 -81 -41
-29 -9 -84 -32 -123 -51 -38 -18 -91 -36 -118 -39 -39 -5 -53 -13 -73 -40 -14
-18 -41 -38 -59 -44 -21 -7 -54 -35 -86 -71 -64 -74 -87 -86 -207 -110 -89
-18 -162 -49 -162 -70 0 -12 -47 -35 -90 -44 -19 -4 -57 -24 -85 -45 -50 -37
-136 -90 -148 -90 -3 0 1 21 9 48 36 119 89 428 89 527 1 80 6 118 28 190 23
72 30 121 38 248 5 87 11 162 14 167 2 4 9 61 15 126 6 66 20 165 31 222 l21
104 -26 27 c-24 25 -25 28 -9 43 22 23 27 125 16 359 -10 206 -16 226 -88 282
l-36 29 -20 -26 c-11 -14 -29 -26 -40 -26 -37 0 -58 -20 -73 -69 -20 -67 -30
-85 -92 -158 -52 -60 -54 -66 -54 -121 0 -42 -10 -80 -35 -142 -19 -47 -35
-95 -35 -108 0 -12 -18 -42 -40 -66 -60 -65 -100 -161 -100 -238 0 -50 -6 -76
-30 -125 -17 -34 -33 -63 -38 -65 -7 -3 -25 -50 -77 -200 -13 -37 -30 -77 -38
-90 -8 -13 -17 -52 -20 -86 -4 -46 -11 -70 -26 -86 -11 -12 -25 -44 -30 -72
-8 -42 -43 -127 -98 -241 -9 -19 -13 -42 -9 -58 5 -18 0 -37 -13 -58 -10 -18
-25 -60 -31 -94 -8 -38 -26 -83 -46 -115 -30 -45 -34 -61 -34 -116 0 -40 -7
-80 -20 -110 -10 -26 -24 -67 -30 -92 -22 -90 -31 -110 -49 -110 -27 0 -98 56
-117 92 -9 17 -37 52 -63 77 -31 31 -63 78 -94 143 -43 88 -51 98 -85 109 -50
16 -67 33 -104 101 -17 32 -35 58 -39 58 -19 0 -6 25 51 101 56 75 65 95 90
195 5 23 22 59 37 80 14 22 32 67 40 102 7 35 24 78 37 95 31 41 44 75 61 162
7 38 41 137 75 218 73 175 80 221 84 527 2 160 7 221 21 276 18 67 18 74 2
155 -9 46 -17 99 -17 117 0 18 -7 44 -17 58 -12 19 -14 32 -7 52 18 50 -41
337 -105 514 -12 32 -21 76 -21 99 0 36 -6 46 -40 78 -25 23 -50 59 -65 96
-13 33 -33 70 -44 81 -13 13 -21 35 -21 56 0 22 -10 45 -30 70 -17 20 -44 67
-61 105 -39 87 -139 243 -156 243 -24 0 -13 26 28 65 22 22 47 52 55 67 27 51
194 283 255 353 33 38 74 99 92 134 29 59 32 74 37 195 4 102 9 136 23 156 24
34 21 57 -8 76 -19 12 -32 40 -56 118 -42 138 -44 142 -76 158 -17 9 -27 21
-26 33 3 36 -17 63 -80 109 -66 47 -85 54 -102 37 -6 -6 -38 -4 -85 5 -103 19
-123 18 -181 -12 l-50 -27 -58 18 -58 17 -46 -27 c-26 -14 -55 -38 -65 -52
l-19 -26 -11 31 c-9 27 -8 33 7 42 10 5 21 24 25 43 4 21 24 50 56 82 74 72
113 176 116 306 1 53 5 116 9 141 11 75 -74 344 -151 475 -13 23 -52 77 -85
118 -65 81 -111 109 -254 156 -33 11 -66 22 -73 24 -9 3 -3 17 17 45 17 23 37
63 46 89 8 26 29 61 45 76 23 22 27 31 18 42 -24 29 30 83 82 83 13 0 20 7 20
20 0 11 24 47 54 79 39 43 58 73 70 114 12 41 33 76 82 133 37 43 73 93 80
110 20 47 82 96 106 83 10 -5 18 -17 18 -27z m-4840 -2277 c0 -18 -1 -18 74
-5 38 6 64 6 71 0 7 -5 15 -7 18 -3 7 7 237 13 237 6 0 -2 -18 -40 -40 -84
-22 -44 -48 -108 -56 -142 -9 -34 -29 -93 -44 -132 -15 -38 -32 -86 -37 -105
l-9 -35 -39 65 c-21 36 -61 99 -89 140 -28 41 -81 125 -118 185 -73 119 -73
123 0 124 22 1 32 -4 32 -14z m4994 -140 c86 -18 149 -54 169 -97 29 -61 21
-312 -12 -369 -10 -19 -22 -56 -26 -83 -9 -68 -14 -76 -42 -76 -21 0 -29 -10
-51 -59 -14 -33 -37 -66 -53 -77 -15 -10 -46 -42 -68 -70 -23 -29 -49 -55 -59
-57 -9 -3 -28 -8 -43 -11 -15 -3 -31 -17 -40 -36 l-14 -30 -105 94 c-83 76
-108 93 -121 85 -25 -13 -24 -13 -52 29 -29 45 -116 93 -290 162 -102 40 -161
81 -154 105 2 5 22 19 45 30 33 17 53 39 98 110 94 151 138 188 270 229 45 14
99 39 121 55 46 33 97 61 133 72 43 13 222 9 294 -6z m-1728 -636 c6 -5 40
-16 75 -23 109 -23 163 -38 193 -53 15 -8 39 -12 52 -9 13 4 24 2 24 -3 0 -5
39 -12 88 -16 l87 -7 66 -65 67 -65 35 13 c33 12 38 10 103 -31 38 -23 90 -62
116 -86 26 -24 52 -44 59 -44 20 0 154 -107 193 -154 20 -25 45 -46 54 -46 10
0 22 -10 27 -22 6 -12 24 -26 40 -31 50 -16 85 -46 85 -73 0 -13 9 -43 20 -67
25 -53 157 -217 175 -217 8 0 11 -8 8 -19 -6 -25 33 -95 61 -111 11 -6 28 -25
36 -43 9 -20 24 -33 38 -35 30 -5 38 -23 52 -122 16 -116 27 -146 60 -170 35
-25 46 -62 56 -188 3 -51 11 -95 15 -98 5 -3 9 -22 9 -43 0 -45 25 -134 50
-177 11 -20 15 -36 9 -45 -12 -19 -11 -86 1 -109 6 -12 6 -21 1 -25 -15 -8 -1
-75 25 -125 29 -54 30 -87 5 -114 -15 -16 -22 -46 -30 -121 -11 -99 -9 -244 4
-264 3 -6 -6 -48 -20 -94 -14 -46 -25 -98 -25 -117 0 -19 -22 -100 -49 -180
-28 -80 -55 -164 -61 -187 -6 -23 -33 -75 -60 -115 -28 -40 -50 -81 -50 -91 0
-36 -32 -94 -81 -143 -27 -28 -53 -63 -57 -79 -10 -37 -20 -39 -60 -15 -24 15
-43 41 -67 93 -39 85 -51 97 -125 129 -30 14 -69 41 -87 61 -70 80 -142 97
-229 53 -57 -29 -78 -72 -78 -166 -1 -55 3 -71 27 -105 15 -22 27 -52 27 -68
0 -15 6 -38 14 -50 8 -12 22 -52 31 -89 13 -50 24 -71 42 -84 23 -15 25 -21
20 -66 -6 -45 -4 -53 18 -69 13 -11 31 -39 40 -63 l17 -44 -39 -74 c-37 -71
-40 -73 -87 -85 -36 -9 -63 -25 -95 -57 -25 -24 -63 -51 -84 -60 -21 -8 -56
-31 -78 -50 -22 -18 -67 -43 -100 -56 -33 -12 -74 -34 -92 -50 -22 -19 -66
-38 -137 -58 -167 -49 -222 -58 -267 -44 -33 10 -41 9 -65 -8 -16 -12 -43 -20
-65 -20 -21 0 -101 -9 -178 -21 -89 -13 -141 -17 -143 -10 -2 6 -23 8 -51 4
-28 -3 -64 0 -86 7 -31 10 -39 10 -46 -1 -7 -11 -12 -12 -26 -1 -36 25 -69 33
-116 30 -38 -2 -48 0 -53 14 -6 20 -107 55 -268 93 -143 33 -213 62 -261 106
l-42 39 -8 118 c-8 139 -9 206 -1 329 6 87 5 93 -16 107 -21 15 -22 18 -8 63
7 27 13 62 13 78 -5 165 -14 318 -18 325 -3 4 0 53 7 108 9 80 9 144 -3 314
-7 117 -14 281 -14 363 0 144 1 152 28 202 27 53 32 79 21 121 -5 16 -12 21
-24 17 -32 -10 -70 64 -70 137 0 17 -8 33 -21 40 -31 20 -198 270 -254 383
-47 93 -53 102 -103 128 -38 21 -58 40 -74 70 -38 76 -167 266 -188 277 -16 9
-18 15 -10 31 13 23 10 27 -48 96 l-44 53 40 62 c22 35 45 80 52 100 6 21 25
48 42 60 54 41 90 82 142 163 35 54 70 94 111 125 33 26 74 68 91 94 62 93
155 183 224 215 36 17 90 49 120 71 30 21 80 48 112 59 38 13 72 34 105 68 83
81 111 101 135 96 16 -3 31 4 47 21 20 22 34 26 77 26 35 0 56 5 61 14 4 8 46
23 93 34 47 12 101 28 120 36 29 13 72 14 259 10 128 -2 230 -9 237 -15z
m3274 -2623 c0 -2 -13 -33 -30 -68 -33 -70 -37 -119 -19 -225 9 -53 8 -75 -5
-128 -9 -36 -21 -111 -27 -167 -8 -82 -18 -120 -51 -197 -38 -91 -40 -99 -34
-165 5 -50 12 -76 26 -91 l20 -22 -30 -44 c-16 -24 -30 -57 -30 -74 0 -16 -9
-43 -20 -60 -15 -22 -20 -47 -20 -96 0 -37 -7 -86 -15 -110 -12 -32 -15 -78
-13 -179 2 -131 1 -139 -25 -191 -24 -47 -26 -59 -17 -89 5 -19 10 -56 10 -81
0 -46 8 -59 50 -84 10 -5 35 -23 55 -40 55 -43 141 -47 238 -10 117 44 192 86
210 117 16 27 20 29 61 23 40 -6 46 -5 61 19 10 14 25 26 35 26 10 0 20 7 23
15 4 8 39 31 79 51 40 20 89 49 109 65 20 16 41 29 45 29 5 0 23 17 40 37 28
33 39 38 104 49 57 10 86 22 141 58 49 33 79 46 104 46 30 0 35 3 35 23 0 29
19 47 86 80 29 15 61 38 72 54 17 23 26 27 71 26 29 0 55 -3 58 -6 5 -6 -21
-92 -36 -116 -5 -8 -26 -17 -47 -20 -36 -6 -40 -9 -50 -51 -9 -38 -16 -47 -47
-59 -25 -9 -37 -20 -37 -33 0 -10 -27 -54 -59 -96 -33 -42 -62 -91 -66 -108
-9 -47 -133 -210 -199 -262 -9 -7 -16 -24 -16 -37 0 -18 -14 -35 -52 -64 -86
-64 -213 -212 -243 -283 -17 -43 -44 -67 -108 -98 -41 -20 -53 -31 -59 -57 -5
-19 -15 -33 -23 -33 -9 0 -15 -9 -15 -23 0 -21 -89 -106 -183 -174 -76 -56
-89 -140 -36 -246 17 -34 38 -66 45 -70 7 -4 18 -26 24 -47 16 -59 60 -103
150 -149 60 -31 87 -53 109 -85 17 -24 52 -57 78 -74 65 -42 100 -80 116 -127
14 -41 51 -68 110 -80 22 -4 32 -16 48 -53 27 -62 91 -127 161 -163 31 -16 68
-43 82 -61 14 -18 51 -64 81 -103 53 -67 54 -70 33 -78 -17 -6 -26 -2 -42 16
-14 16 -48 32 -101 46 -43 13 -97 32 -120 43 -59 30 -176 112 -204 142 -14 14
-31 26 -38 26 -27 0 -77 33 -143 95 -58 54 -79 67 -140 86 -53 16 -94 38 -158
87 -48 35 -109 75 -137 88 -27 12 -75 41 -105 65 -30 23 -71 48 -90 56 -19 8
-54 24 -78 35 -36 17 -54 19 -109 13 -59 -6 -72 -12 -114 -48 -31 -27 -51 -53
-54 -72 -4 -16 -15 -56 -26 -87 -15 -47 -18 -74 -13 -145 6 -78 4 -99 -20
-176 -15 -48 -26 -106 -25 -130 1 -23 -7 -76 -19 -117 -31 -115 -38 -203 -18
-231 20 -30 20 -65 0 -120 -18 -50 -29 -125 -44 -318 -9 -107 -16 -144 -35
-181 -18 -36 -25 -68 -28 -133 -2 -48 -9 -93 -16 -101 -8 -10 -10 -23 -5 -38
16 -44 17 -85 6 -261 l-7 -119 -23 25 c-18 19 -25 43 -33 118 -22 201 -42 335
-61 403 -15 54 -18 87 -13 137 3 39 1 77 -5 94 -6 15 -15 62 -20 104 -6 42
-17 105 -25 141 -22 101 -45 278 -45 353 0 37 -7 84 -15 103 -11 27 -12 41 -4
56 8 15 8 36 -1 80 -7 32 -10 61 -7 64 2 3 -6 16 -19 29 -29 29 -30 48 -4 73
17 16 19 24 10 46 -5 15 -9 62 -8 105 3 71 1 80 -25 110 -18 22 -27 44 -27 67
0 50 -45 123 -86 140 -28 12 -45 12 -116 -2 -46 -8 -111 -27 -145 -40 -34 -14
-90 -29 -125 -35 -62 -10 -108 -31 -108 -48 0 -5 -14 -12 -30 -16 -17 -4 -50
-21 -74 -40 -40 -30 -76 -45 -186 -75 -26 -7 -57 -25 -75 -44 -16 -18 -58 -45
-93 -60 -60 -26 -64 -27 -82 -11 -18 17 -21 15 -62 -30 -41 -45 -158 -115
-192 -115 -35 0 -20 20 56 76 44 32 116 98 160 145 53 58 88 89 107 92 23 5
37 21 72 84 39 69 53 84 116 126 51 33 79 59 93 87 12 23 28 40 38 40 10 1 26
20 40 50 28 59 116 139 220 199 97 56 101 65 91 176 -12 131 -36 236 -79 355
-21 58 -41 123 -45 145 -4 22 -31 101 -61 176 -30 76 -54 146 -54 157 0 11 -6
35 -14 53 -7 19 -12 48 -9 65 6 41 -33 172 -63 207 -13 16 -24 37 -24 46 0 10
-13 35 -29 55 -29 36 -68 132 -58 142 10 10 126 -56 132 -75 7 -23 107 -122
158 -157 24 -16 40 -36 44 -55 3 -19 12 -29 23 -29 16 0 52 -45 133 -165 19
-27 53 -63 77 -80 23 -16 73 -60 110 -97 54 -55 73 -68 98 -68 19 0 40 -8 52
-20 30 -30 85 -26 129 8 19 15 45 29 56 32 30 8 103 166 126 275 11 50 40 153
64 230 24 77 53 176 64 221 11 45 40 126 65 180 29 65 50 128 60 186 8 48 28
118 44 155 17 37 35 85 41 106 19 73 94 252 112 267 9 8 20 38 24 65 4 28 17
75 30 105 12 30 36 87 53 125 16 39 43 92 60 119 17 27 43 84 57 127 17 49 32
79 41 79 8 0 14 -2 14 -4z m1330 -2220 c6 -117 6 -183 0 -191 -5 -7 -6 -15 -2
-19 9 -10 29 -215 41 -421 5 -88 15 -178 21 -200 9 -28 10 -65 4 -125 -5 -47
-8 -126 -7 -176 l2 -91 -127 -61 c-147 -71 -203 -92 -244 -92 -19 0 -39 -10
-56 -27 l-27 -28 -30 50 c-25 41 -40 54 -82 70 -70 29 -77 36 -130 137 -42 83
-48 90 -72 85 -37 -7 -101 72 -101 124 0 41 -8 50 -87 95 l-54 30 21 26 c11
14 20 31 20 36 0 6 8 13 18 16 10 4 26 23 35 44 26 58 76 108 123 121 41 11
64 40 64 81 0 20 63 84 104 107 11 6 23 24 26 39 4 21 23 42 70 77 48 35 72
62 92 101 17 33 49 73 83 101 30 26 55 56 55 66 0 11 4 19 10 19 5 0 24 28 41
63 20 39 56 85 98 125 l66 64 7 -34 c4 -18 12 -114 18 -212z m-3320 118 c12
-36 35 -81 51 -99 32 -36 95 -189 109 -266 6 -31 45 -116 100 -219 49 -92 90
-177 90 -189 0 -27 -54 -88 -100 -111 -31 -16 -39 -27 -49 -64 -9 -35 -23 -55
-67 -93 -77 -67 -239 -233 -276 -283 -17 -23 -42 -46 -55 -51 -13 -5 -30 -24
-38 -44 -9 -19 -42 -56 -77 -85 -35 -29 -97 -88 -140 -132 -58 -62 -81 -80
-96 -76 -14 4 -24 -1 -32 -18 -7 -12 -31 -38 -54 -56 -23 -18 -52 -45 -64 -60
-13 -15 -47 -42 -76 -59 -53 -32 -92 -79 -112 -137 -17 -47 -40 -70 -102 -100
-79 -39 -102 -70 -102 -142 0 -48 5 -64 24 -87 23 -26 29 -28 103 -28 54 1 90
7 118 20 22 10 44 17 49 16 18 -4 72 23 107 55 24 20 52 34 80 39 85 14 175
43 213 69 29 20 51 26 90 26 28 0 60 6 72 13 64 37 163 85 189 91 17 4 40 16
51 27 12 11 62 35 111 53 117 44 170 72 183 96 7 12 21 20 37 20 17 0 40 13
63 34 19 19 78 52 133 76 54 24 115 54 135 68 38 25 102 56 107 50 1 -2 14
-55 28 -118 25 -108 54 -430 42 -450 -3 -4 2 -25 11 -45 25 -61 14 -80 -70
-120 -41 -19 -80 -35 -88 -35 -7 0 -44 -11 -83 -24 -151 -51 -236 -76 -261
-76 -29 0 -178 -77 -237 -123 -34 -27 -40 -28 -67 -17 -41 17 -78 8 -146 -36
-31 -20 -93 -48 -138 -61 -45 -14 -95 -34 -113 -44 -20 -13 -34 -16 -38 -9
-11 18 -51 11 -90 -15 -47 -32 -135 -77 -349 -176 -92 -44 -194 -95 -226 -114
-47 -29 -67 -35 -112 -35 -52 0 -56 -2 -74 -35 -10 -19 -21 -35 -24 -36 -3 0
-25 -2 -50 -4 -56 -4 -121 -32 -183 -79 -38 -29 -51 -34 -67 -26 -32 17 -57
11 -99 -24 -30 -25 -55 -37 -89 -41 -48 -6 -51 -7 -95 -38 -14 -10 -69 -29
-122 -42 -65 -16 -130 -42 -198 -78 -56 -30 -134 -66 -174 -81 -39 -15 -90
-40 -112 -57 -57 -41 -78 -39 -84 9 -2 20 1 48 7 62 10 21 14 113 6 130 -2 3
-4 39 -6 80 -2 41 -5 107 -7 145 -2 48 1 77 10 92 12 18 12 50 2 200 -13 187
-13 204 -5 293 17 193 18 256 2 269 -20 17 -20 39 -1 84 22 53 19 84 -11 112
-25 23 -26 26 -16 92 5 37 16 83 23 100 11 27 11 40 0 75 -8 24 -14 63 -13 88
0 25 0 61 1 80 0 19 0 64 -1 100 -1 36 2 103 5 149 3 47 3 89 -1 95 -3 6 -7
38 -8 71 -1 33 -6 77 -12 97 -8 31 -6 44 10 75 17 32 19 42 9 72 -21 65 -25
219 -7 287 13 49 15 91 9 216 -3 85 -3 171 1 191 6 33 9 36 26 27 10 -5 42
-15 72 -21 29 -6 73 -21 98 -34 25 -12 78 -27 117 -34 40 -6 96 -20 124 -31
28 -12 54 -18 57 -15 3 3 18 -7 33 -21 27 -26 29 -26 67 -11 51 21 248 15 270
-7 14 -13 19 -13 43 1 27 16 29 16 52 -5 22 -21 28 -22 73 -11 27 6 73 20 102
31 43 17 70 20 137 16 64 -3 85 -1 89 9 4 8 23 13 56 13 31 0 52 5 55 13 3 7
24 12 53 12 33 0 56 7 79 23 19 14 46 22 70 22 42 0 58 9 150 86 61 52 63 53
115 48 52 -5 55 -4 158 64 58 38 133 95 168 126 34 31 67 56 72 56 6 0 47 29
92 65 45 36 83 65 84 65 1 0 12 -30 24 -66z m1850 -1673 c55 -20 96 -43 125
-70 23 -21 61 -51 84 -66 22 -15 41 -31 41 -35 0 -15 -27 -28 -115 -56 -49
-16 -102 -36 -116 -46 -22 -14 -178 -58 -208 -58 -5 0 -6 12 -4 28 15 88 65
338 69 344 3 5 13 4 23 -2 10 -5 55 -23 101 -39z"/>
</g>
</svg>
