<?xml version="1.0" standalone="no"?>
<!DOCTYPE svg PUBLIC "-//W3C//DTD SVG 20010904//EN"
 "http://www.w3.org/TR/2001/REC-SVG-20010904/DTD/svg10.dtd">
<svg version="1.0" xmlns="http://www.w3.org/2000/svg"
 width="512.000000pt" height="512.000000pt" viewBox="0 0 512.000000 512.000000"
 preserveAspectRatio="xMidYMid meet">

<g transform="translate(0.000000,512.000000) scale(0.100000,-0.100000)"
fill="white" stroke="none">
<path d="M2370 5114 c-19 -2 -78 -9 -130 -15 -791 -90 -1522 -586 -1924 -1305
-146 -262 -252 -587 -297 -914 -20 -143 -18 -527 4 -670 85 -554 315 -1030
678 -1408 76 -78 99 -92 157 -92 33 0 1114 185 1237 211 49 11 68 29 1052
1013 885 885 1003 1006 1012 1042 23 88 43 64 -538 646 -502 502 -539 537
-578 543 -31 5 -53 2 -85 -13 -32 -15 -291 -269 -1035 -1013 -978 -981 -991
-995 -1001 -1044 -6 -27 -43 -237 -83 -465 -39 -228 -75 -419 -79 -423 -19
-21 -219 320 -293 498 -241 581 -217 1269 62 1840 227 463 584 820 1046 1046
844 411 1847 257 2538 -391 303 -284 542 -695 640 -1101 49 -201 61 -309 61
-539 0 -230 -12 -338 -61 -539 -114 -471 -400 -919 -780 -1222 -378 -301 -830
-472 -1312 -495 -160 -8 -199 -22 -231 -84 -25 -50 -25 -90 0 -140 40 -79 110
-92 360 -69 784 72 1480 492 1916 1155 603 915 540 2139 -153 2999 -409 507
-974 829 -1633 930 -100 15 -472 28 -550 19z m795 -1454 l140 -140 -870 -870
-870 -870 -142 142 -143 143 867 867 c478 478 870 868 873 868 3 0 68 -63 145
-140z m500 -500 l140 -140 -870 -870 -870 -870 -142 142 -143 143 867 867
c478 478 870 868 873 868 3 0 68 -63 145 -140z m-2200 -1700 c159 -159 287
-291 285 -293 -6 -5 -704 -127 -707 -124 -4 5 122 707 127 707 3 0 135 -130
295 -290z"/>
</g>
</svg>
