<svg width="24" height="24" viewBox="0 0 24 24" fill="none" xmlns="http://www.w3.org/2000/svg">
<path fill-rule="evenodd" clip-rule="evenodd" d="M12.3399 1.27525L21.9399 5.75525C22.2215 5.88669 22.4016 6.16938 22.4016 6.4802V17.5202C22.4016 17.831 22.2215 18.1137 21.9399 18.2451L12.3399 22.7251C12.1254 22.8252 11.8777 22.8252 11.6633 22.7251L2.06325 18.2451C1.78159 18.1137 1.60156 17.831 1.60156 17.5202V6.4802C1.60156 6.16938 1.78159 5.88669 2.06325 5.75525L11.6633 1.27525C11.8777 1.17518 12.1254 1.17518 12.3399 1.27525ZM11.2016 11.0894V20.744L3.20156 17.0107V7.68945L11.2016 11.0894ZM20.8016 17.0107V7.68945L12.8016 11.0894V20.744L20.8016 17.0107ZM19.6366 6.44604L12.0016 2.88302L4.36651 6.44604L12.0016 9.69094L19.6366 6.44604Z" fill="#7DD934"/>
</svg>
