<?xml version="1.0" standalone="no"?>
<!DOCTYPE svg PUBLIC "-//W3C//DTD SVG 20010904//EN"
 "http://www.w3.org/TR/2001/REC-SVG-20010904/DTD/svg10.dtd">
<svg version="1.0" xmlns="http://www.w3.org/2000/svg"
 width="512.000000pt" height="512.000000pt" viewBox="0 0 512.000000 512.000000"
 preserveAspectRatio="xMidYMid meet">

<g transform="translate(0.000000,512.000000) scale(0.100000,-0.100000)"
fill="white" stroke="none">
<path d="M2751 4793 c-17 -14 -28 -49 -51 -164 -72 -356 -184 -622 -324 -763
-137 -139 -405 -254 -765 -326 -158 -32 -181 -45 -181 -100 0 -55 23 -68 181
-100 358 -72 626 -186 765 -324 138 -139 252 -407 324 -765 32 -158 45 -181
100 -181 55 0 68 23 100 180 62 307 154 548 268 703 79 109 259 221 474 296
101 35 348 97 428 107 64 8 100 38 100 82 0 57 -22 70 -181 102 -409 82 -698
219 -822 388 -53 71 -119 202 -162 317 -42 112 -109 371 -120 460 -6 41 -15
66 -31 82 -28 28 -73 30 -103 6z m71 -512 c59 -198 191 -438 300 -543 104
-101 312 -212 500 -270 43 -12 78 -25 78 -28 0 -3 -39 -18 -88 -34 -256 -84
-450 -204 -567 -351 -67 -84 -161 -271 -207 -412 -18 -56 -36 -102 -39 -103
-4 0 -12 20 -18 44 -19 78 -106 279 -155 363 -103 173 -214 273 -400 363 -106
51 -284 120 -311 120 -27 0 -16 17 15 24 54 10 263 96 347 142 180 98 301 226
393 418 51 108 120 285 120 311 0 33 16 12 32 -44z"/>
<path d="M1889 4382 c-37 -19 -51 -53 -37 -92 12 -34 165 -187 198 -199 63
-22 122 43 95 105 -16 37 -162 180 -196 193 -20 7 -35 6 -60 -7z"/>
<path d="M3644 4385 c-16 -7 -68 -53 -116 -102 -99 -102 -110 -132 -63 -178
46 -47 76 -36 181 66 51 51 97 104 102 119 23 63 -41 122 -104 95z"/>
<path d="M1712 2937 c-53 -20 -103 -67 -125 -116 -16 -35 -22 -76 -27 -177 -6
-120 -9 -135 -35 -180 -16 -27 -80 -103 -143 -168 -120 -124 -201 -238 -252
-351 -42 -94 -58 -153 -75 -284 -8 -63 -21 -124 -29 -136 -8 -11 -62 -59 -121
-105 -178 -140 -160 -116 -159 -212 1 -65 9 -105 33 -178 108 -321 383 -573
677 -620 124 -20 130 -17 294 150 l145 148 225 110 225 111 280 6 c155 4 428
2 610 -4 303 -10 367 -15 538 -39 165 -24 331 55 389 186 46 104 32 247 -31
322 l-29 35 57 27 c129 62 193 153 193 276 0 222 -171 312 -567 299 -371 -12
-769 -88 -1201 -227 -273 -88 -368 -98 -445 -47 -41 26 -79 98 -79 146 0 18
13 76 30 127 81 253 81 549 -1 720 -33 70 -99 136 -165 165 -55 25 -167 33
-212 16z m172 -176 c42 -27 81 -101 97 -186 15 -80 5 -322 -16 -400 -9 -33
-27 -95 -41 -138 -29 -96 -30 -145 -3 -233 18 -57 31 -77 83 -130 53 -52 73
-65 130 -83 123 -38 225 -24 511 69 594 193 1268 275 1483 180 55 -24 78 -72
62 -128 -24 -89 -94 -122 -357 -168 -403 -70 -671 -138 -1008 -256 -307 -107
-575 -221 -848 -360 -171 -87 -224 -126 -345 -255 l-109 -115 -82 21 c-45 11
-108 34 -139 51 -178 95 -342 308 -387 504 -9 37 -15 72 -13 76 2 4 48 43 103
87 175 140 183 154 210 349 17 122 46 213 97 304 43 78 78 120 193 240 176
182 215 263 215 442 0 94 9 133 34 151 19 13 93 1 130 -22z m2060 -1410 c65
-36 89 -79 83 -149 -5 -64 -28 -99 -87 -129 -49 -25 -121 -30 -207 -14 -83 16
-320 30 -642 37 -167 3 -298 10 -290 14 31 18 381 130 509 164 109 28 367 84
510 109 38 7 70 -1 124 -32z"/>
<path d="M3465 2775 c-47 -46 -36 -76 66 -181 51 -51 104 -97 119 -102 38 -14
85 8 98 45 15 45 -4 77 -105 176 -102 98 -132 109 -178 62z"/>
</g>
</svg>
