<?xml version="1.0" encoding="UTF-8"?>
<svg fill="white" id="b" data-name="Layer 2" xmlns="http://www.w3.org/2000/svg" width="4096" height="4450" viewBox="0 0 4096 4450">
  <g id="c" data-name="b">
    <g >
      <path d="m4061.368,973.966l-399.374-821.834c-18.724-38.52-57.336-63.415-100.149-64.566L296.362.042c-64.831-1.737-118.223,50.54-117.844,115.393l9.205,1592.536c.336,57.812-3.697,115.563-12.069,172.765L1.21,3073.2c-4.821,32.948,4.903,66.367,26.662,91.582l488.104,565.779c22.849,26.485,56.53,41.106,91.478,39.711l3213.002-128.27c58.52-2.336,105.885-48.351,109.922-106.774l164.806-2387.058c4.14-60.026-7.517-120.088-33.812-174.206l-.003.004Zm-776.188,1912.867c-1.093,28.351-22.739,51.636-50.925,54.808l-292.847,32.927c-28.509,3.206-55.003-15.134-62.044-42.944l-109.888-434.166c-6.417-25.343-29.153-43.152-55.297-43.304l-128.197-.757c-20.019-.119-38.655,10.203-49.169,27.239l-285.318,462.196c-14.569,23.603-39.051,39.332-66.581,42.773l-209.02,26.134c-33.449,4.183-67.402-.946-98.125-14.822l-113.249-51.147c-21.295-9.614-35.528-30.198-37.015-53.51l-25.609-401.395c-1.96-30.793-27.923-54.518-58.771-53.709l-142.705,3.737c-22.275.586-42.205,14.01-51.108,34.441l-207.851,476.909c-9.119,20.928-29.779,34.46-52.607,34.46h-82.566c-1.997,0-3.999.064-6.002.195l-105.354,6.921c-52.634,3.453-104.206-15.943-141.514-53.239l-80.362-80.319c-13.03-13.03-19.011-31.526-16.083-49.722l165.652-1027.688c5.028-31.196,1.905-63.164-9.08-92.794l-102.069-275.5c-14.071-37.974-15.158-79.541-3.102-118.201l152.597-489.124c9.843-31.544,40.083-52.179,73.047-49.844l810.367,57.443c31.684,2.25,59.934,20.745,74.665,48.879l261.557,499.547c12.923,24.687,45.545,30.768,66.498,12.401l128.45-112.605c16.306-14.291,27.01-33.898,30.213-55.339l58.029-388.438c5.541-37.079,38.871-63.521,76.234-60.481l514.968,41.872c35.327,2.876,65.826,25.868,78.301,59.04l184.406,490.192c16.16,42.95,23.563,88.697,21.792,134.55l-54.317,1402.375-.003.009Z"/>
      <g>
        <path d="m1872.511,3891.996l-340.214.527c-10.743.017-21.127,3.866-29.288,10.859l-42.865,36.734c-10.306,8.833-16.087,21.833-15.74,35.402l10.88,426.741c.355,13.895,11.176,25.263,25.04,26.303l126.061,9.429c15.701,1.173,29.087-11.248,29.087-26.993v-104.498c0-8.607,6.08-16.018,14.52-17.697l121.66-24.222c7.399-1.473,13.102-7.395,14.293-14.845l15.667-97.892c1.58-9.887-5.185-19.17-15.081-20.686l-113.632-17.444c-8.833-1.357-15.342-8.975-15.308-17.911l.086-20.887c.038-9.626,7.626-17.526,17.243-17.954l198.42-8.833c9.643-.428,17.243-8.371,17.243-18.026v-120.063c0-9.976-8.097-18.061-18.074-18.044h0Z"/>
        <path d="m2572.643,3902.94l-101.351-8.243c-18.93-1.537-35.813,11.857-38.618,30.637l-11.039,73.883c-1.263,8.448-5.481,16.177-11.904,21.807l-3.653,3.203c-17.573,15.402-44.925,10.302-55.762-10.396l-46.064-87.975c-5.806-11.086-16.939-18.373-29.42-19.26l-177.915-12.614c-16.699-1.182-32.02,9.27-37.004,25.25l-31.484,100.91c-4.158,13.33-3.781,27.661,1.066,40.75l21.431,57.843c3.785,10.216,4.864,21.238,3.13,31.994l-38.352,237.942c-1.846,11.441,1.918,23.075,10.118,31.266l14.832,14.824c7.348,7.347,17.508,11.167,27.879,10.486l29.69-1.948c.788-.051,1.576-.077,2.364-.077h5.579c14.357,0,27.348-8.508,33.086-21.671l39.992-91.764c5.601-12.846,18.129-21.289,32.139-21.657h.167c19.397-.514,35.728,14.408,36.961,33.775l4.192,65.696c.852,13.33,8.992,25.096,21.161,30.594l19.054,8.607c6.055,2.732,12.743,3.742,19.333,2.92l47.738-5.969c10.846-1.357,20.493-7.553,26.23-16.853l60.567-98.114c6.615-10.713,18.331-17.204,30.923-17.132l2.368.013c16.442.098,30.739,11.295,34.773,27.232l18.271,72.179c4.427,17.491,21.088,29.022,39.02,27.01l34.546-3.884c17.727-1.995,31.339-16.639,32.028-34.469l12.846-331.731c.325-8.409-1.032-16.802-3.995-24.681l-44.06-117.125c-4.916-13.072-16.935-22.133-30.855-23.263l-.008.004Z"/>
      </g>
    </g>
  </g>
</svg>