<?xml version="1.0" encoding="UTF-8"?>
<svg fill="white" id="b" data-name="Layer 2" xmlns="http://www.w3.org/2000/svg" width="4096" height="4450" viewBox="0 0 4096 4450">
  <g id="c" data-name="b">
    <g >
      <path d="m4061.368,973.966l-399.374-821.834c-18.724-38.52-57.336-63.415-100.149-64.566L296.362.042c-64.831-1.737-118.223,50.54-117.844,115.393l9.205,1592.536c.336,57.812-3.697,115.563-12.069,172.765L1.21,3073.2c-4.821,32.948,4.903,66.367,26.662,91.582l488.104,565.779c22.849,26.485,56.53,41.106,91.478,39.711l3213.002-128.27c58.52-2.336,105.885-48.351,109.922-106.774l164.806-2387.058c4.14-60.026-7.517-120.088-33.812-174.206l-.003.004Zm-776.188,1912.867c-1.093,28.351-22.739,51.636-50.925,54.808l-292.847,32.927c-28.509,3.206-55.003-15.134-62.044-42.944l-109.888-434.166c-6.417-25.343-29.153-43.152-55.297-43.304l-128.197-.757c-20.019-.119-38.655,10.203-49.169,27.239l-285.318,462.196c-14.569,23.603-39.051,39.332-66.581,42.773l-209.02,26.134c-33.449,4.183-67.402-.946-98.125-14.822l-113.249-51.147c-21.295-9.614-35.528-30.198-37.015-53.51l-25.609-401.395c-1.96-30.793-27.923-54.518-58.771-53.709l-142.705,3.737c-22.275.586-42.205,14.01-51.108,34.441l-207.851,476.909c-9.119,20.928-29.779,34.46-52.607,34.46h-82.566c-1.997,0-3.999.064-6.002.195l-105.354,6.921c-52.634,3.453-104.206-15.943-141.514-53.239l-80.362-80.319c-13.03-13.03-19.011-31.526-16.083-49.722l165.652-1027.688c5.028-31.196,1.905-63.164-9.08-92.794l-102.069-275.5c-14.071-37.974-15.158-79.541-3.102-118.201l152.597-489.124c9.843-31.544,40.083-52.179,73.047-49.844l810.367,57.443c31.684,2.25,59.934,20.745,74.665,48.879l261.557,499.547c12.923,24.687,45.545,30.768,66.498,12.401l128.45-112.605c16.306-14.291,27.01-33.898,30.213-55.339l58.029-388.438c5.541-37.079,38.871-63.521,76.234-60.481l514.968,41.872c35.327,2.876,65.826,25.868,78.301,59.04l184.406,490.192c16.16,42.95,23.563,88.697,21.792,134.55l-54.317,1402.375-.003.009Z"/>
    </g>
  </g>
</svg>