<svg width="18" height="20" viewBox="0 0 18 20" fill="none" xmlns="http://www.w3.org/2000/svg">
<path fill-rule="evenodd" clip-rule="evenodd" d="M2.41628 8.2195V17.0453C2.41628 17.4515 2.74557 17.7808 3.15177 17.7808H14.9195C15.3257 17.7808 15.655 17.4515 15.655 17.0453V8.2195C15.655 7.81331 15.3257 7.48402 14.9195 7.48402H13.0808C12.6746 7.48402 12.3453 7.15473 12.3453 6.74853C12.3453 6.34234 12.6746 6.01305 13.0808 6.01305H14.9195C16.1381 6.01305 17.126 7.00091 17.126 8.2195V17.0453C17.126 18.2639 16.1381 19.2518 14.9195 19.2518H3.15177C1.93318 19.2518 0.945313 18.2639 0.945313 17.0453L0.945313 8.2195C0.945312 7.00091 1.93318 6.01305 3.15176 6.01305H4.99047C5.39667 6.01305 5.72596 6.34234 5.72596 6.74853C5.72596 7.15473 5.39667 7.48402 4.99047 7.48402H3.15176C2.74557 7.48402 2.41628 7.81331 2.41628 8.2195ZM6.19402 4.64231C5.93552 4.90081 5.5164 4.90081 5.2579 4.64231C4.9994 4.38381 4.9994 3.96469 5.2579 3.70619L8.56758 0.396514C8.69171 0.272377 8.86008 0.202637 9.03564 0.202637C9.21119 0.202637 9.37956 0.272377 9.5037 0.396514L12.8134 3.70619C13.0719 3.96469 13.0719 4.38381 12.8134 4.64231C12.5549 4.90081 12.1358 4.90081 11.8773 4.64231L9.77112 2.53618L9.77112 12.6323C9.77112 13.0385 9.44183 13.3678 9.03564 13.3678C8.62944 13.3678 8.30015 13.0385 8.30015 12.6323L8.30015 2.53618L6.19402 4.64231Z" fill="#1D0045"/>
</svg>
