<?xml version="1.0" standalone="no"?>
<!DOCTYPE svg PUBLIC "-//W3C//DTD SVG 20010904//EN"
 "http://www.w3.org/TR/2001/REC-SVG-20010904/DTD/svg10.dtd">
<svg version="1.0" xmlns="http://www.w3.org/2000/svg"
 width="512.000000pt" height="512.000000pt" viewBox="0 0 512.000000 512.000000"
 preserveAspectRatio="xMidYMid meet">

<g transform="translate(0.000000,512.000000) scale(0.100000,-0.100000)"
fill="#fff" stroke="none">
<path d="M3394 4828 c-254 -257 -294 -301 -321 -359 -44 -92 -63 -173 -63
-270 0 -173 55 -302 184 -437 l80 -83 -767 -767 -767 -767 -293 293 c-270 270
-295 292 -327 292 -32 0 -56 -22 -323 -287 -159 -159 -323 -328 -365 -378
-297 -352 -446 -783 -429 -1240 8 -217 43 -392 119 -589 30 -77 31 -79 85
-102 81 -36 265 -89 378 -110 153 -28 470 -26 627 4 316 60 611 200 853 404
50 42 219 206 378 365 265 267 287 291 287 323 0 32 -22 57 -292 327 l-293
293 767 767 767 767 83 -80 c135 -129 264 -184 437 -184 97 0 180 19 271 63
56 27 104 69 358 321 231 229 292 295 292 316 0 37 -1373 1410 -1411 1410 -20
0 -86 -61 -315 -292z m941 -498 l620 -621 -240 -238 c-217 -215 -247 -241
-317 -276 -67 -33 -88 -38 -168 -43 -113 -6 -196 14 -278 68 -76 50 -723 702
-750 755 -40 81 -55 152 -50 250 3 83 8 101 43 171 35 72 60 101 273 317 130
130 238 237 241 237 3 0 285 -279 626 -620z m-1702 -1903 c-756 -755 -955
-950 -985 -959 -106 -32 -206 63 -183 174 6 27 181 207 958 985 l952 953 102
-102 103 -103 -947 -948z m-1251 -124 l257 -257 -143 -146 c-157 -160 -176
-192 -176 -299 0 -146 135 -281 281 -281 107 0 139 19 299 176 l146 143 259
-260 260 -260 -295 -292 c-168 -167 -332 -320 -380 -356 -211 -156 -448 -258
-713 -308 -145 -27 -447 -25 -597 5 -135 28 -293 77 -314 98 -19 18 -69 171
-90 274 -55 269 -45 560 30 817 53 184 149 376 266 535 51 70 631 668 647 668
3 0 122 -116 263 -257z"/>
<path d="M3547 4483 c-76 -76 -148 -156 -160 -178 -30 -56 -30 -164 0 -220 27
-49 655 -676 703 -701 51 -27 162 -25 215 3 61 32 315 294 315 324 0 18 -104
128 -443 466 -338 339 -448 443 -466 443 -18 0 -62 -37 -164 -137z m533 -408
l365 -365 -103 -102 c-99 -100 -103 -103 -147 -103 l-45 0 -322 323 -323 322
0 45 c0 43 3 48 100 145 55 55 102 100 105 100 3 0 169 -164 370 -365z"/>
<path d="M521 1311 c-32 -32 -63 -174 -76 -346 -12 -149 25 -416 62 -457 22
-24 75 -23 97 1 23 26 23 47 1 156 -28 131 -25 336 5 475 28 128 28 149 0 172
-29 23 -65 23 -89 -1z"/>
</g>
</svg>
