<svg width="24" height="24" viewBox="0 0 24 24" fill="none" xmlns="http://www.w3.org/2000/svg">
<path fill-rule="evenodd" clip-rule="evenodd" d="M12.4 2.4001V21.6001C12.4 21.9057 12.226 22.1845 11.9515 22.3188C11.677 22.453 11.35 22.4192 11.1088 22.2316L5.15408 17.6001H2.4C1.07451 17.6001 0 16.5256 0 15.2001V8.8001C0 7.47462 1.07452 6.4001 2.4 6.4001H5.15408L11.1088 1.76862C11.35 1.58103 11.677 1.54721 11.9515 1.68145C12.226 1.81569 12.4 2.09456 12.4 2.4001ZM5.91972 7.83159C5.7793 7.94081 5.60647 8.0001 5.42857 8.0001H2.4C1.95817 8.0001 1.6 8.35828 1.6 8.8001V15.2001C1.6 15.6419 1.95817 16.0001 2.4 16.0001H5.42857C5.60647 16.0001 5.7793 16.0594 5.91972 16.1686L10.8 19.9644V4.03582L5.91972 7.83159ZM17.3327 6.33529C19.6092 9.75686 19.6092 14.2433 17.3327 17.6649C17.137 17.9591 16.7397 18.039 16.4454 17.8432C16.1511 17.6474 16.0713 17.2501 16.2671 16.9558C18.2578 13.9637 18.2578 10.0364 16.2671 7.04432C16.0713 6.75004 16.1511 6.35275 16.4454 6.15696C16.7397 5.96117 17.137 6.04101 17.3327 6.33529ZM19.3835 2.21427C19.1139 2.44277 19.0805 2.84662 19.309 3.11629C23.6438 8.23191 23.6438 15.7683 19.309 20.8839C19.0805 21.1536 19.1139 21.5574 19.3835 21.7859C19.6532 22.0144 20.057 21.9811 20.2855 21.7114C25.0249 16.1183 25.0249 7.88189 20.2855 2.2888C20.057 2.01913 19.6532 1.98576 19.3835 2.21427Z" fill="#B999FA"/>
</svg>
