<?xml version="1.0" standalone="no"?>
<!DOCTYPE svg PUBLIC "-//W3C//DTD SVG 20010904//EN"
 "http://www.w3.org/TR/2001/REC-SVG-20010904/DTD/svg10.dtd">
<svg version="1.0" xmlns="http://www.w3.org/2000/svg"
 width="512.000000pt" height="512.000000pt" viewBox="0 0 512.000000 512.000000"
 preserveAspectRatio="xMidYMid meet">

<g transform="translate(0.000000,512.000000) scale(0.100000,-0.100000)"
fill="white" stroke="none">
<path d="M651 4896 c-33 -18 -50 -53 -51 -101 0 -55 -25 -148 -57 -215 -71
-147 -266 -270 -429 -270 -46 0 -87 -22 -102 -55 -34 -74 15 -145 102 -145
248 0 486 -237 486 -485 0 -47 19 -84 51 -101 75 -38 149 11 149 101 0 248
238 485 486 485 88 0 138 74 100 149 -17 32 -54 51 -101 51 -247 0 -485 238
-485 485 0 89 -77 141 -149 101z m78 -489 c21 -34 137 -149 181 -180 l25 -17
-25 -17 c-32 -22 -171 -161 -193 -193 l-17 -25 -17 25 c-22 32 -161 171 -193
193 l-25 17 25 17 c44 31 160 146 181 180 11 18 24 33 29 33 5 0 18 -15 29
-33z"/>
<path d="M2209 4595 c-36 -20 -46 -53 -53 -175 -49 -870 -736 -1557 -1606
-1606 -123 -7 -156 -17 -175 -55 -19 -35 -19 -63 0 -98 19 -38 52 -48 175 -55
427 -24 808 -195 1110 -496 301 -302 472 -683 496 -1110 7 -123 17 -156 55
-175 35 -19 63 -19 98 0 39 19 48 52 55 183 13 230 73 454 181 668 36 71 65
141 65 156 0 17 -12 41 -29 60 -37 42 -96 46 -135 9 -27 -26 -133 -233 -163
-318 -10 -29 -20 -53 -23 -53 -3 0 -23 46 -44 102 -46 116 -144 291 -231 411
-77 106 -286 315 -392 392 -121 88 -303 190 -415 233 -54 20 -98 39 -98 42 0
3 44 22 98 42 120 46 299 147 418 236 118 88 294 264 383 384 94 126 188 291
237 417 21 55 41 101 44 101 3 0 23 -46 44 -102 46 -116 144 -291 231 -410 82
-112 269 -300 387 -387 126 -95 291 -188 417 -237 55 -21 101 -41 101 -44 0
-3 -24 -13 -52 -23 -86 -30 -293 -136 -319 -163 -37 -39 -33 -98 9 -135 19
-17 44 -29 60 -29 15 0 85 29 155 65 212 107 438 168 669 181 131 7 164 16
183 55 19 35 19 63 1 98 -19 35 -55 51 -117 51 -78 0 -235 19 -334 41 -323 71
-610 231 -845 469 -293 297 -462 679 -486 1100 -7 123 -17 156 -55 175 -35 19
-66 18 -100 0z"/>
<path d="M2741 2266 c-87 -48 -50 -186 49 -186 51 0 100 49 100 99 0 75 -83
124 -149 87z"/>
<path d="M4069 2195 c-34 -18 -46 -52 -53 -145 -10 -136 -52 -261 -125 -372
-139 -213 -362 -345 -611 -364 -41 -3 -88 -10 -103 -16 -30 -12 -57 -53 -57
-88 0 -35 27 -76 57 -88 15 -6 62 -13 103 -16 250 -19 471 -151 611 -364 73
-111 115 -236 125 -372 7 -94 19 -127 55 -145 35 -19 63 -19 98 0 36 18 48 51
55 145 19 253 158 483 374 617 116 72 280 123 398 123 98 0 150 70 110 149
-18 34 -54 51 -111 51 -24 0 -76 6 -117 14 -362 70 -627 364 -654 726 -7 94
-19 127 -55 145 -35 19 -66 18 -100 0z m110 -622 c85 -135 215 -258 354 -334
l48 -26 -93 -59 c-118 -74 -237 -193 -308 -306 -30 -48 -58 -88 -61 -88 -4 0
-23 29 -44 65 -79 134 -194 250 -335 337 -39 24 -70 46 -70 49 0 4 29 23 65
44 135 79 261 205 340 340 21 36 40 65 44 65 3 0 30 -39 60 -87z"/>
</g>
</svg>
