<svg width="24" height="24" viewBox="0 0 24 24" fill="none" xmlns="http://www.w3.org/2000/svg">
<path fill-rule="evenodd" clip-rule="evenodd" d="M11.2111 2.15986V5.63564C11.2111 6.07747 11.5693 6.43564 12.0111 6.43564C12.4529 6.43564 12.8111 6.07747 12.8111 5.63564V2.99478C17.429 3.3997 21.0511 7.27679 21.0511 11.9999C21.0511 16.9925 17.0037 21.0399 12.0111 21.0399C7.01844 21.0399 2.97109 16.9925 2.97109 11.9999C2.97109 9.76969 3.77764 7.72996 5.11592 6.15335C5.40184 5.8165 5.36056 5.31166 5.02372 5.02574C4.68687 4.73982 4.18203 4.7811 3.89611 5.11794C2.32162 6.97283 1.37109 9.37637 1.37109 11.9999C1.37109 17.8762 6.13478 22.6399 12.0111 22.6399C17.8874 22.6399 22.6511 17.8762 22.6511 11.9999C22.6511 6.12355 17.8874 1.35986 12.0111 1.35986C11.5693 1.35986 11.2111 1.71804 11.2111 2.15986ZM6.76894 7.31569C6.65483 7.15662 6.67267 6.93833 6.8111 6.7999C6.94952 6.66148 7.16782 6.64364 7.32688 6.75775L12.9402 10.7847C13.7108 11.3375 13.8016 12.4494 13.1311 13.1199C12.4606 13.7904 11.3487 13.6996 10.7959 12.929L6.76894 7.31569Z" fill="#7DD934"/>
</svg>
