<svg width="24" height="24" viewBox="0 0 24 24" fill="none" xmlns="http://www.w3.org/2000/svg">
<path fill-rule="evenodd" clip-rule="evenodd" d="M6.20215 7.20039C6.20215 9.845 7.97213 12.0762 10.3921 12.774C8.48168 13.0068 6.84306 13.6825 5.60866 14.8991C4.0376 16.4474 3.24219 18.7524 3.24219 21.7603C3.24219 22.18 3.58245 22.5203 4.00219 22.5203C4.42192 22.5203 4.76219 22.18 4.76219 21.7603C4.76219 19.0083 5.48672 17.1533 6.6756 15.9817C7.86672 14.8078 9.64493 14.2004 12.0021 14.2004C14.3592 14.2004 16.1375 14.8078 17.3287 15.9817C18.5176 17.1533 19.2421 19.0083 19.2421 21.7603C19.2421 22.18 19.5823 22.5203 20.0021 22.5203C20.4218 22.5203 20.7621 22.1801 20.7621 21.7603C20.7621 18.7524 19.9667 16.4474 18.3956 14.8991C17.1612 13.6826 15.5226 13.0068 13.6121 12.774C16.0321 12.0762 17.8021 9.84501 17.8021 7.20039C17.8021 3.99714 15.2054 1.40039 12.0021 1.40039C8.7989 1.40039 6.20215 3.99714 6.20215 7.20039ZM12.0021 2.92039C14.3659 2.92039 16.2821 4.83661 16.2821 7.20039C16.2821 9.56417 14.3659 11.4804 12.0021 11.4804C9.63837 11.4804 7.72215 9.56417 7.72215 7.20039C7.72215 4.83661 9.63837 2.92039 12.0021 2.92039Z" fill="#1D0045"/>
</svg>
