<?xml version="1.0" encoding="UTF-8"?>
<svg id="b" data-name="Layer 2" xmlns="http://www.w3.org/2000/svg" width="4096" height="4096" xmlns:xlink="http://www.w3.org/1999/xlink" viewBox="0 0 4096 4096">
  <defs>
    <linearGradient id="d" x1="0" y1="4096" x2="4096" y2="0" gradientUnits="userSpaceOnUse">
      <stop offset="0" stop-color="#000"/>
      <stop offset="1" stop-color="#282828"/>
    </linearGradient>
    <linearGradient id="g" x1="932.786" y1="3124.038" x2="3096.739" y2="960.084" gradientUnits="userSpaceOnUse">
      <stop offset="0" stop-color="#4d4d4d"/>
      <stop offset="1" stop-color="#000"/>
    </linearGradient>
    <linearGradient id="h" x1="966.564" y1="3090.26" x2="3062.932" y2="993.892" gradientUnits="userSpaceOnUse">
      <stop offset="0" stop-color="#1a1a1a"/>
      <stop offset="1" stop-color="#2d2d2d"/>
    </linearGradient>
    <linearGradient id="k" x1="3466.918" y1="3036.756" x2="2761.457" y2="2331.295" gradientTransform="translate(-1066.187 5368.051) scale(1 -1)" gradientUnits="userSpaceOnUse">
      <stop offset="0" stop-color="#1a1a1a"/>
      <stop offset="1" stop-color="#333"/>
    </linearGradient>
    <clipPath id="l">
      <path d="m1507.445,2537.662h1081.109c24.81,0,44.953,20.143,44.953,44.953v202.821c0,24.81-20.143,44.953-44.953,44.953h-1081.109c-24.81,0-44.952-20.142-44.952-44.952v-202.822c0-24.81,20.142-44.952,44.952-44.952Z" transform="translate(4096.001 5368.051) rotate(-180)" fill="none"/>
    </clipPath>
    <clipPath id="n">
      <path d="m2701.815,2307.054c-.927,23.922-19.193,43.577-42.982,46.252l-123.702,13.908c-24.058,2.705-46.418-12.772-52.358-36.242l-50.795-200.69c-5.413-21.388-24.6-36.414-46.663-36.545l-43.628-.257c-16.895-.099-32.62,8.612-41.495,22.989l-145.518,235.728c-7.703,12.48-20.647,20.796-35.2,22.615l-110.515,13.818c-17.687,2.21-35.64-.501-51.883-7.837l-51.63-23.317c-16.332-7.377-27.257-23.17-28.397-41.054l-11.852-185.807c-1.657-25.986-23.567-46.011-49.598-45.329l-46.532,1.22c-18.8.492-35.614,11.823-43.127,29.063l-100.563,230.741c-7.698,17.662-25.131,29.08-44.396,29.08h-31.807c-1.059,0-2.118.034-3.174.104l-55.705,3.658c-27.831,1.828-55.097-8.428-74.823-28.145l-35.944-35.93c-11-10.995-16.05-26.603-13.575-41.958l86.112-534.234c2.658-16.495,1.005-33.397-4.798-49.063l-53.969-145.665c-7.439-20.077-8.015-42.055-1.638-62.496l80.68-258.614c5.203-16.678,21.193-27.59,38.621-26.354l428.463,30.373c16.75,1.187,31.689,10.967,39.478,25.844l123.158,235.22c14.544,27.777,51.247,34.622,74.826,13.953l43.382-38.028c8.62-7.556,14.28-17.924,15.973-29.261l30.682-205.378c2.93-19.603,20.55-33.583,40.307-31.977l272.278,22.14h0c18.678,1.52,34.805,13.679,41.402,31.218l103.557,275.277c4.545,12.083,6.63,24.951,6.13,37.851l-28.78,743.125Z" fill="none"/>
    </clipPath>
    <clipPath id="o">
      <rect x="1364.089" y="1195.351" width="1367.83" height="1195.278" fill="none"/>
    </clipPath>
  </defs>
  <g id="c" data-name="Layer 1">
    <g>
      <rect id="e" data-name="BACK" width="4096" height="4096" fill="url(#d)"/>
      <g id="f" data-name="LINES_1">
        <path d="m3039.83,1335.834l-159.752-493.109c-26.433-81.592-100.907-138.071-186.603-141.516l-1436.67-57.756c-77.702-3.124-142.317,59.186-142.017,136.949l4.39,1138.908c.162,41.953-1.797,83.888-5.87,125.643l-82.433,845.214c-5.513,56.544,6.745,113.4,35.07,162.648l171.693,298.516c38.73,67.34,112.227,106.969,189.77,102.326l1431.557-85.718c69.7-4.173,125.018-60.262,128.228-130.012l78.643-1708.666c3.015-65.514-5.793-131.036-26.007-193.427Z" fill="#fff"/>
        <path d="m1251.212,643.34c1.853,0,3.724.037,5.592.112l1436.67,57.756c85.697,3.445,160.17,59.924,186.603,141.516l159.752,493.109c20.213,62.391,29.022,127.913,26.007,193.427l-78.643,1708.666c-3.21,69.75-58.528,125.838-128.228,130.012l-1431.557,85.718c-4.108.246-8.202.368-12.283.368-72.947,0-140.809-38.921-177.487-102.693l-171.693-298.516c-28.325-49.248-40.583-106.104-35.07-162.648l82.433-845.214c4.073-41.755,6.032-83.69,5.87-125.642l-4.39-1138.908c-.293-75.893,61.235-137.062,136.424-137.062m0-47.787c-24.87,0-49.035,4.903-71.823,14.573-22.004,9.337-41.743,22.687-58.669,39.679-16.908,16.972-30.165,36.736-39.405,58.74-9.593,22.846-14.409,47.084-14.312,72.04l4.39,1138.908c.155,40.188-1.744,80.837-5.645,120.819l-82.433,845.215c-3.224,33.066-1.309,66.297,5.693,98.771,7.002,32.475,18.95,63.543,35.514,92.341l171.693,298.516c22.152,38.516,54.2,70.614,92.678,92.824,38.345,22.132,81.996,33.831,126.233,33.831,5.022,0,10.115-.152,15.137-.453l1431.559-85.718c45.508-2.725,88.201-22.101,120.215-54.56,32.013-32.459,50.798-75.415,52.894-120.956l78.643-1708.666c3.29-71.497-6.225-142.27-28.283-210.353l-159.752-493.109c-15.996-49.374-46.309-92.049-87.663-123.411-41.354-31.362-90.623-49.04-142.482-51.125l-1436.67-57.756c-2.499-.1-5.025-.151-7.512-.151h0Z" fill="url(#g)"/>
       
      </g>
      <path id="i" data-name="CARD" d="m3039.83,1335.834l-159.752-493.109c-26.433-81.592-100.907-138.071-186.603-141.516l-1436.67-57.756c-77.702-3.124-142.317,59.186-142.017,136.949l4.39,1138.908c.162,41.953-1.797,83.887-5.87,125.642l-82.433,845.213c-5.513,56.545,6.745,113.4,35.07,162.648l171.693,298.517c38.73,67.34,112.227,106.968,189.77,102.325l1431.557-85.718c69.7-4.173,125.018-60.262,128.228-130.012l78.643-1708.665c3.015-65.514-5.793-131.036-26.007-193.427Z" fill="url(#h)"/>
      <path id="j" data-name="OUTLINE_C" d="m3039.83,1335.834l-159.752-493.109c-26.433-81.592-100.907-138.071-186.603-141.516l-1436.67-57.756c-77.702-3.124-142.317,59.186-142.017,136.949l4.39,1138.908c.162,41.953-1.797,83.887-5.87,125.642l-82.433,845.213c-5.513,56.545,6.745,113.4,35.07,162.648l171.693,298.517c38.73,67.34,112.227,106.968,189.77,102.325l1431.557-85.718c69.7-4.173,125.018-60.262,128.228-130.012l78.643-1708.665c3.015-65.514-5.793-131.036-26.007-193.427Z" fill="none" stroke="#2d2d2d" stroke-miterlimit="10" stroke-width="6.827"/>
      <g>
        <path d="m1801.271,3004.267v-58.002c0-2.406,1.382-3.737,3.789-3.737h9.061c2.201,0,3.328,1.075,4.198,3.226l9.01,22.985h.512l9.01-22.985c.87-2.15,1.997-3.226,4.198-3.226h9.061c2.406,0,3.789,1.331,3.789,3.737v58.002c0,2.457-1.382,3.788-3.789,3.788h-7.013c-2.458,0-3.789-1.331-3.789-3.788v-31.944h-.614l-4.863,14.18c-.819,2.253-1.945,3.175-4.147,3.175h-4.146c-2.252,0-3.379-.922-4.198-3.175l-4.863-14.18h-.614v31.944c0,2.457-1.331,3.788-3.789,3.788h-7.013c-2.406,0-3.789-1.331-3.789-3.788Z" fill="#414042"/>
        <path d="m1867.01,3004.267v-7.014c0-2.406,1.331-3.737,3.788-3.737h11.467v-36.449h-11.467c-2.457,0-3.788-1.331-3.788-3.737v-7.064c0-2.406,1.331-3.737,3.788-3.737h39.521c2.457,0,3.788,1.331,3.788,3.737v7.064c0,2.406-1.331,3.737-3.788,3.737h-11.467v36.449h11.467c2.457,0,3.788,1.331,3.788,3.737v7.014c0,2.457-1.331,3.788-3.788,3.788h-39.521c-2.457,0-3.788-1.331-3.788-3.788Z" fill="#414042"/>
        <path d="m1958.807,3005.137l-14.949-34.453v33.583c0,2.457-1.382,3.788-3.788,3.788h-7.116c-2.406,0-3.737-1.331-3.737-3.788v-58.002c0-2.406,1.331-3.737,3.737-3.737h10.904c2.099,0,3.584.922,4.403,2.867l14.948,34.504v-33.634c0-2.406,1.382-3.737,3.789-3.737h7.116c2.406,0,3.737,1.331,3.737,3.737v58.002c0,2.457-1.331,3.788-3.737,3.788h-10.904c-2.15,0-3.583-.922-4.402-2.918Z" fill="#414042"/>
        <path d="m1993.318,2999.966v-49.35c0-4.966,3.123-8.089,8.088-8.089h34.453c2.406,0,3.788,1.331,3.788,3.737v7.064c0,2.406-1.382,3.737-3.788,3.737h-24.214c-1.126,0-1.792.665-1.792,1.792v9.01h25.853c2.406,0,3.789,1.331,3.789,3.737v7.013c0,2.458-1.382,3.789-3.789,3.789h-25.853v9.316c0,1.127.666,1.792,1.792,1.792h24.317c2.406,0,3.788,1.331,3.788,3.737v7.014c0,2.457-1.382,3.788-3.788,3.788h-34.556c-4.966,0-8.088-3.123-8.088-8.089Z" fill="#414042"/>
        <path d="m2089.467,3005.29l-6.502-14.385h-11.16v13.361c0,2.457-1.382,3.788-3.788,3.788h-9.01c-2.406,0-3.789-1.331-3.789-3.788v-53.65c0-4.966,3.175-8.089,8.141-8.089h18.736c18.48,0,24.368,8.396,24.368,24.215,0,9.829-2.355,16.894-8.754,20.732l7.423,16.126c1.178,2.56.103,4.454-2.765,4.454h-8.447c-2.099,0-3.635-.87-4.453-2.765Zm-8.652-28.924c6.911,0,9.829-2.201,9.829-9.624,0-7.577-2.918-9.676-9.829-9.676h-7.218c-1.126,0-1.792.665-1.792,1.792v17.508h9.01Z" fill="#414042"/>
        <path d="m2134.166,3004.267v-47.2h-15.256c-2.405,0-3.736-1.331-3.736-3.737v-7.064c0-2.406,1.331-3.737,3.736-3.737h47.099c2.405,0,3.788,1.331,3.788,3.737v7.064c0,2.406-1.383,3.737-3.788,3.737h-15.256v47.2c0,2.457-1.383,3.788-3.788,3.788h-9.011c-2.405,0-3.788-1.331-3.788-3.788Z" fill="#414042"/>
        <path d="m2177.841,3003.856l10.751-49.811c1.894-8.55,5.426-11.519,12.593-11.519h8.498c7.168,0,10.7,2.969,12.594,11.519l10.751,49.811c.614,2.662-.563,4.198-3.276,4.198h-9.112c-2.253,0-3.687-1.178-4.096-3.327l-1.536-8.498h-19.146l-1.536,8.498c-.409,2.149-1.843,3.327-4.096,3.327h-9.112c-2.713,0-3.891-1.536-3.276-4.198Zm34.606-21.552l-3.891-21.245c-.614-3.226-1.331-3.737-2.765-3.737h-.716c-1.434,0-2.15.512-2.765,3.737l-3.891,21.245h14.026Z" fill="#414042"/>
        <path d="m2242.096,2975.035c0-22.781,5.426-33.788,29.896-33.788,9.215,0,18.992,1.588,18.992,7.833v3.788c0,2.509-1.433,3.737-3.941,3.532-1.843-.153-6.911-.614-11.877-.614-14.999,0-17.047,4.659-17.047,19.249,0,16.433,3.174,19.761,14.487,19.761,5.836,0,7.576-.769,7.576-5.99v-6.757h-8.344c-2.406,0-3.788-1.331-3.788-3.84v-4.863c0-2.509,1.382-3.84,3.788-3.84h19.044c2.405,0,3.736,1.331,3.736,3.737v22.729c0,8.652-7.781,13.362-23.19,13.362-23.549,0-29.333-10.7-29.333-34.3Z" fill="#414042"/>
      </g>
      <g>
        <g>
          <path d="m1507.445,2537.662h1081.109c24.81,0,44.953,20.143,44.953,44.953v202.821c0,24.81-20.143,44.953-44.953,44.953h-1081.109c-24.81,0-44.952-20.142-44.952-44.952v-202.822c0-24.81,20.142-44.952,44.952-44.952Z" transform="translate(4096.001 5368.051) rotate(-180)" fill="url(#k)"/>
          <g clip-path="url(#l)">
           
          </g>
          <path d="m1507.445,2537.662h1081.109c24.81,0,44.953,20.143,44.953,44.953v202.821c0,24.81-20.143,44.953-44.953,44.953h-1081.109c-24.81,0-44.952-20.142-44.952-44.952v-202.822c0-24.81,20.142-44.952,44.952-44.952Z" transform="translate(4096.001 5368.051) rotate(-180)" fill="none" stroke="#373737" stroke-miterlimit="10" stroke-width="6.827"/>
        </g>
        <g>
          <g>
            <path d="m1865.644,2727.838l-20.82-85.584c-1.024-4.01.768-6.484,4.949-6.484h10.666c3.498,0,5.802,1.707,6.484,5.034l17.322,77.818c1.194,5.29,2.645,6.229,5.717,6.229h1.195c3.071,0,4.522-.939,5.717-6.229l17.321-77.818c.683-3.327,2.986-5.034,6.485-5.034h10.666c4.181,0,5.973,2.475,4.949,6.484l-20.82,85.584c-3.072,12.713-8.362,17.15-19.455,17.15h-10.922c-11.092,0-16.383-4.438-19.455-17.15Z" fill="#58595b"/>
            <path d="m1956.268,2739.101v-8.106c0-3.754,2.048-5.802,5.888-5.802h22.185v-69.627h-22.185c-3.84,0-5.888-2.048-5.888-5.802v-8.191c0-3.755,2.048-5.803,5.888-5.803h66.811c3.754,0,5.802,2.048,5.802,5.803v8.191c0,3.754-2.048,5.802-5.802,5.802h-22.27v69.627h22.27c3.754,0,5.802,2.048,5.802,5.802v8.106c0,3.84-2.048,5.888-5.802,5.888h-66.811c-3.84,0-5.888-2.048-5.888-5.888Z" fill="#58595b"/>
            <path d="m2058.922,2733.213v-85.668c0-7.168,4.693-11.775,11.86-11.775h32.339c25.513,0,33.961,12.372,33.961,27.22,0,11.007-4.522,20.479-17.492,23.465v1.706c16.553,2.475,22.44,12.202,22.44,26.878,0,18.943-10.153,29.95-40.53,29.95h-30.718c-7.167,0-11.86-4.607-11.86-11.775Zm42.151-53.927c11.52,0,15.104-4.181,15.104-12.543s-3.755-11.178-15.104-11.178h-16.895c-1.877,0-2.986,1.109-2.986,2.986v20.734h19.881Zm-16.895,45.906h17.833c13.738,0,18.517-4.096,18.517-13.567,0-9.13-4.693-13.737-18.517-13.737h-20.819v24.318c0,1.877,1.109,2.986,2.986,2.986Z" fill="#58595b"/>
            <path d="m2167.209,2733.213v-85.668c0-7.168,4.692-11.775,11.86-11.775h58.619c3.755,0,5.888,2.048,5.888,5.803v8.191c0,3.754-2.133,5.802-5.888,5.802h-45.223c-1.878,0-2.987,1.109-2.987,2.986v21.417h47.954c3.755,0,5.888,2.048,5.888,5.888v8.106c0,3.754-2.133,5.802-5.888,5.802h-47.954v22.441c0,1.877,1.109,2.986,2.987,2.986h45.394c3.755,0,5.888,2.048,5.888,5.802v8.106c0,3.84-2.133,5.888-5.888,5.888h-58.79c-7.168,0-11.86-4.607-11.86-11.775Z" fill="#58595b"/>
          </g>
          <g>
            <path d="m1865.644,2727.838l-20.82-85.584c-1.024-4.01.768-6.484,4.949-6.484h10.666c3.498,0,5.802,1.707,6.484,5.034l17.322,77.818c1.194,5.29,2.645,6.229,5.717,6.229h1.195c3.071,0,4.522-.939,5.717-6.229l17.321-77.818c.683-3.327,2.986-5.034,6.485-5.034h10.666c4.181,0,5.973,2.475,4.949,6.484l-20.82,85.584c-3.072,12.713-8.362,17.15-19.455,17.15h-10.922c-11.092,0-16.383-4.438-19.455-17.15Z" fill="#58595b"/>
            <path d="m1956.268,2739.101v-8.106c0-3.754,2.048-5.802,5.888-5.802h22.185v-69.627h-22.185c-3.84,0-5.888-2.048-5.888-5.802v-8.191c0-3.755,2.048-5.803,5.888-5.803h66.811c3.754,0,5.802,2.048,5.802,5.803v8.191c0,3.754-2.048,5.802-5.802,5.802h-22.27v69.627h22.27c3.754,0,5.802,2.048,5.802,5.802v8.106c0,3.84-2.048,5.888-5.802,5.888h-66.811c-3.84,0-5.888-2.048-5.888-5.888Z" fill="#58595b"/>
            <path d="m2058.922,2733.213v-85.668c0-7.168,4.693-11.775,11.86-11.775h32.339c25.513,0,33.961,12.372,33.961,27.22,0,11.007-4.522,20.479-17.492,23.465v1.706c16.553,2.475,22.44,12.202,22.44,26.878,0,18.943-10.153,29.95-40.53,29.95h-30.718c-7.167,0-11.86-4.607-11.86-11.775Zm42.151-53.927c11.52,0,15.104-4.181,15.104-12.543s-3.755-11.178-15.104-11.178h-16.895c-1.877,0-2.986,1.109-2.986,2.986v20.734h19.881Zm-16.895,45.906h17.833c13.738,0,18.517-4.096,18.517-13.567,0-9.13-4.693-13.737-18.517-13.737h-20.819v24.318c0,1.877,1.109,2.986,2.986,2.986Z" fill="#58595b"/>
            <path d="m2167.209,2733.213v-85.668c0-7.168,4.692-11.775,11.86-11.775h58.619c3.755,0,5.888,2.048,5.888,5.803v8.191c0,3.754-2.133,5.802-5.888,5.802h-45.223c-1.878,0-2.987,1.109-2.987,2.986v21.417h47.954c3.755,0,5.888,2.048,5.888,5.888v8.106c0,3.754-2.133,5.802-5.888,5.802h-47.954v22.441c0,1.877,1.109,2.986,2.987,2.986h45.394c3.755,0,5.888,2.048,5.888,5.802v8.106c0,3.84-2.133,5.888-5.888,5.888h-58.79c-7.168,0-11.86-4.607-11.86-11.775Z" fill="#58595b"/>
          </g>
          <g>
            <path d="m1865.644,2727.838l-20.82-85.584c-1.024-4.01.768-6.484,4.949-6.484h10.666c3.498,0,5.802,1.707,6.484,5.034l17.322,77.818c1.194,5.29,2.645,6.229,5.717,6.229h1.195c3.071,0,4.522-.939,5.717-6.229l17.321-77.818c.683-3.327,2.986-5.034,6.485-5.034h10.666c4.181,0,5.973,2.475,4.949,6.484l-20.82,85.584c-3.072,12.713-8.362,17.15-19.455,17.15h-10.922c-11.092,0-16.383-4.438-19.455-17.15Z" fill="#58595b"/>
            <path d="m1956.268,2739.101v-8.106c0-3.754,2.048-5.802,5.888-5.802h22.185v-69.627h-22.185c-3.84,0-5.888-2.048-5.888-5.802v-8.191c0-3.755,2.048-5.803,5.888-5.803h66.811c3.754,0,5.802,2.048,5.802,5.803v8.191c0,3.754-2.048,5.802-5.802,5.802h-22.27v69.627h22.27c3.754,0,5.802,2.048,5.802,5.802v8.106c0,3.84-2.048,5.888-5.802,5.888h-66.811c-3.84,0-5.888-2.048-5.888-5.888Z" fill="#58595b"/>
            <path d="m2058.922,2733.213v-85.668c0-7.168,4.693-11.775,11.86-11.775h32.339c25.513,0,33.961,12.372,33.961,27.22,0,11.007-4.522,20.479-17.492,23.465v1.706c16.553,2.475,22.44,12.202,22.44,26.878,0,18.943-10.153,29.95-40.53,29.95h-30.718c-7.167,0-11.86-4.607-11.86-11.775Zm42.151-53.927c11.52,0,15.104-4.181,15.104-12.543s-3.755-11.178-15.104-11.178h-16.895c-1.877,0-2.986,1.109-2.986,2.986v20.734h19.881Zm-16.895,45.906h17.833c13.738,0,18.517-4.096,18.517-13.567,0-9.13-4.693-13.737-18.517-13.737h-20.819v24.318c0,1.877,1.109,2.986,2.986,2.986Z" fill="#58595b"/>
            <path d="m2167.209,2733.213v-85.668c0-7.168,4.692-11.775,11.86-11.775h58.619c3.755,0,5.888,2.048,5.888,5.803v8.191c0,3.754-2.133,5.802-5.888,5.802h-45.223c-1.878,0-2.987,1.109-2.987,2.986v21.417h47.954c3.755,0,5.888,2.048,5.888,5.888v8.106c0,3.754-2.133,5.802-5.888,5.802h-47.954v22.441c0,1.877,1.109,2.986,2.987,2.986h45.394c3.755,0,5.888,2.048,5.888,5.802v8.106c0,3.84-2.133,5.888-5.888,5.888h-58.79c-7.168,0-11.86-4.607-11.86-11.775Z" fill="#58595b"/>
          </g>
        </g>
      </g>
      <g id="m" data-name="OUTLINE_M">
        <g clip-path="url(#n)">
          <g clip-path="url(#o)">
               </g>
        </g>
      </g>
      <path id="p" data-name="OUTLINE_M" d="m2701.815,2307.054c-.927,23.922-19.193,43.577-42.982,46.252l-123.702,13.908c-24.058,2.705-46.418-12.772-52.358-36.242l-50.795-200.69c-5.413-21.388-24.6-36.414-46.663-36.545l-43.628-.257c-16.895-.099-32.62,8.612-41.495,22.989l-145.518,235.728c-7.703,12.48-20.647,20.796-35.2,22.615l-110.515,13.818c-17.687,2.21-35.64-.501-51.883-7.837l-51.63-23.317c-16.332-7.377-27.257-23.17-28.397-41.054l-11.852-185.807c-1.657-25.986-23.567-46.011-49.598-45.329l-46.532,1.22c-18.8.492-35.614,11.823-43.127,29.063l-100.563,230.741c-7.698,17.662-25.131,29.08-44.396,29.08h-31.807c-1.059,0-2.118.034-3.174.104l-55.705,3.658c-27.831,1.828-55.097-8.428-74.823-28.145l-35.944-35.93c-11-10.995-16.05-26.603-13.575-41.958l86.112-534.234c2.658-16.495,1.005-33.397-4.798-49.063l-53.969-145.665c-7.439-20.077-8.015-42.055-1.638-62.496l80.68-258.614c5.203-16.678,21.193-27.59,38.621-26.354l428.463,30.373c16.75,1.187,31.689,10.967,39.478,25.844l123.158,235.22c14.544,27.777,51.247,34.622,74.826,13.953l43.382-38.028c8.62-7.556,14.28-17.924,15.973-29.261l30.682-205.378c2.93-19.603,20.55-33.583,40.307-31.977l272.278,22.14h0c18.678,1.52,34.805,13.679,41.402,31.218l103.557,275.277c4.545,12.083,6.63,24.951,6.13,37.851l-28.78,743.125Z" fill="#3b7a1e" stroke="#4d4d4d" stroke-miterlimit="10" stroke-width="3.793"/>
    </g>
  </g>
</svg>