<?xml version="1.0" encoding="UTF-8"?>
<svg id="b" data-name="Layer 2" xmlns="http://www.w3.org/2000/svg" width="25.183" height="30" viewBox="0 0 25.183 30">
  <g id="c" data-name="Layer 1">
    <g>
      <path d="m1,15.067C1,4.624,3.948.033,12.523.033s11.523,4.591,11.523,15.034c0,4.456-.473,7.854-2.183,9.971l1.958,2.926c.742,1.147.314,2.003-1.059,2.003h-3.398c-.9,0-1.53-.338-2.025-1.058l-6.595-9.858c-.765-1.147-.292-2.025,1.104-2.025h3.354c.832,0,1.463.315,1.958.968.09-.833.135-1.801.135-2.926,0-6.842-1.553-8.08-4.771-8.08-2.903,0-4.637.923-4.637,8.147,0,6.145,1.148,7.854,2.566,7.854.675,0,1.44.203,1.44,1.891,0,1.846-.968,4.524-4.074,4.524-3.961,0-6.819-4.637-6.819-14.337Z"/>
      <rect width="25.183" height="30" fill="none"/>
    </g>
  </g>
</svg>