<?xml version="1.0" encoding="UTF-8"?>
<svg id="b" data-name="Layer 2" xmlns="http://www.w3.org/2000/svg" width="26.555" height="30" viewBox="0 0 26.555 30">
  <g id="c" data-name="Layer 1">
    <g>
      <path d="m14.977,27.738v-3.376H2.644c-1.059,0-1.644-.585-1.644-1.643v-3.129c0-.652.09-1.147.383-1.755L8.495,2.059c.45-1.035,1.17-1.463,2.273-1.463h3.105c1.485,0,2.07.945,1.463,2.296l-7.045,15.821h6.685v-3.758c0-1.081.608-1.688,1.666-1.688h3.691c1.058,0,1.665.607,1.665,1.688v3.758h1.868c1.058,0,1.688.631,1.688,1.733v2.184c0,1.125-.63,1.732-1.688,1.732h-1.868v3.376c0,1.058-.607,1.666-1.665,1.666h-3.691c-1.058,0-1.666-.608-1.666-1.666Z"/>
      <rect width="26.555" height="30" fill="none"/>
    </g>
  </g>
</svg>