<?xml version="1.0" encoding="UTF-8"?>
<svg id="b" data-name="Layer 2" xmlns="http://www.w3.org/2000/svg" width="24.372" height="30" viewBox="0 0 24.372 30">
  <g id="c" data-name="Layer 1">
    <g>
      <path d="m1,25.848V4.151C1,1.969,2.396.596,4.557.596h8.417c6.64,0,9.16,3.105,9.16,7.27,0,3.038-1.327,5.514-4.771,6.167v.473c4.39.563,6.01,3.038,6.01,7.066,0,4.862-2.589,7.833-10.916,7.833h-7.899c-2.161,0-3.557-1.373-3.557-3.557Zm11.299-14.156c2.498,0,3.038-.652,3.038-2.408,0-1.801-.607-2.296-3.038-2.296h-3.241c-.495,0-.788.293-.788.788v3.916h4.029Zm-3.241,11.32h3.691c2.813,0,3.623-.787,3.623-2.655,0-1.936-.9-2.679-3.623-2.679h-4.479v4.547c0,.495.293.787.788.787Z"/>
      <rect width="24.372" height="30" fill="none"/>
    </g>
  </g>
</svg>