<?xml version="1.0" encoding="UTF-8"?>
<svg id="b" data-name="Layer 2" xmlns="http://www.w3.org/2000/svg" width="24.033" height="30" viewBox="0 0 24.033 30">
  <g id="c" data-name="Layer 1">
    <g>
      <path d="m1,19.513c0-2.341.944-3.624,2.881-3.624h1.17c1.913,0,2.791,1.283,2.858,2.813.112,2.453,1.08,4.028,3.938,4.028,2.926,0,3.916-1.643,3.916-6.188V7.494c0-.495-.292-.788-.787-.788H6.063c-1.192,0-1.868-.652-1.868-1.823v-2.745c0-1.171.676-1.823,1.868-1.823h13.414c2.161,0,3.556,1.373,3.556,3.556v12.852c0,8.936-4.118,12.964-11.208,12.964-6.887,0-10.825-3.714-10.825-10.173Z"/>
      <rect width="24.033" height="30" fill="none"/>
    </g>
  </g>
</svg>