<?xml version="1.0" encoding="UTF-8"?>
<svg id="b" data-name="Layer 2" xmlns="http://www.w3.org/2000/svg" width="26.689" height="30" viewBox="0 0 26.689 30">
  <g id="c" data-name="Layer 1">
    <g>
      <path d="m3.456,25.218L1.025,2.531c-.157-1.306.428-1.936,1.575-1.936h3.039c1.17,0,1.755.54,1.867,1.777l1.261,17.354,2.07-15.26c.226-1.508.833-2.07,2.116-2.07h.765c1.283,0,1.891.562,2.116,2.07l2.07,15.26,1.261-17.354c.112-1.237.697-1.777,1.868-1.777h3.038c1.147,0,1.733.63,1.598,1.936l-2.453,22.687c-.338,3.083-1.058,4.187-3.826,4.187h-1.282c-2.769,0-3.489-1.104-3.895-4.164l-.877-7.697-.878,7.697c-.405,3.061-1.126,4.164-3.894,4.164h-1.283c-2.769,0-3.488-1.104-3.826-4.187Z"/>
      <rect width="26.689" height="30" fill="none"/>
    </g>
  </g>
</svg>