<?xml version="1.0" encoding="UTF-8"?>
<svg id="b" data-name="Layer 2" xmlns="http://www.w3.org/2000/svg" width="24.529" height="30" viewBox="0 0 24.529 30">
  <g id="c" data-name="Layer 1">
    <g>
      <path d="m16.058,28.188l-2.858-6.324h-4.906v5.874c0,1.081-.608,1.666-1.666,1.666h-3.961c-1.058,0-1.666-.585-1.666-1.666V4.151C1,1.969,2.396.596,4.579.596h8.237c8.125,0,10.713,3.69,10.713,10.646,0,4.321-1.035,7.427-3.849,9.115l3.264,7.09c.518,1.125.045,1.958-1.215,1.958h-3.714c-.923,0-1.599-.383-1.958-1.216Zm-3.804-12.716c3.038,0,4.321-.968,4.321-4.231,0-3.331-1.283-4.254-4.321-4.254h-3.174c-.495,0-.787.293-.787.788v7.697h3.961Z"/>
      <rect width="24.529" height="30" fill="none"/>
    </g>
  </g>
</svg>