<?xml version="1.0" encoding="UTF-8"?>
<svg id="b" data-name="Layer 2" xmlns="http://www.w3.org/2000/svg" width="25.227" height="30" viewBox="0 0 25.227 30">
  <g id="c" data-name="Layer 1">
    <g>
      <path d="m1,18.995c0-3.759,1.351-7.652,4.749-11.727L10.7,1.305c.585-.698,1.373-.99,2.296-.99h3.578c1.711,0,2.273,1.058,1.059,2.431l-5.313,6.145c.608-.113,1.261-.181,2.004-.181,6.189,0,9.902,4.524,9.902,10.331,0,6.099-3.916,10.646-11.703,10.646S1.067,25.139,1,18.995Zm11.568,4.613c2.971,0,4.816-1.755,4.816-4.568s-1.846-4.592-4.816-4.592c-2.993,0-4.839,1.778-4.839,4.592s1.846,4.568,4.839,4.568Z"/>
      <rect width="25.227" height="30" fill="none"/>
    </g>
  </g>
</svg>