<?xml version="1.0" encoding="UTF-8"?>
<svg id="b" data-name="Layer 2" xmlns="http://www.w3.org/2000/svg" width="25.064" height="30" viewBox="0 0 25.064 30">
  <g id="c" data-name="Layer 1">
    <g>
      <path d="m16.431,28.278l-3.894-6.707-3.895,6.707c-.473.788-1.058,1.126-1.958,1.126H2.477c-1.328,0-1.868-.811-1.171-1.98l7.314-12.605L1.509,2.576c-.698-1.171-.158-1.98,1.17-1.98h4.209c.9,0,1.485.337,1.958,1.125l3.691,6.347,3.69-6.347c.45-.788,1.058-1.125,1.958-1.125h4.209c1.328,0,1.846.81,1.171,1.98l-7.112,12.243,7.314,12.605c.675,1.17.157,1.98-1.147,1.98h-4.231c-.9,0-1.485-.338-1.958-1.126Z"/>
      <rect width="25.064" height="30" fill="none"/>
    </g>
  </g>
</svg>