<?xml version="1.0" encoding="UTF-8"?>
<svg id="b" data-name="Layer 2" xmlns="http://www.w3.org/2000/svg" width="24.586" height="30" viewBox="0 0 24.586 30">
  <g id="c" data-name="Layer 1">
    <g>
      <path d="m1.012,22.281c-.112-1.216.562-2.004,1.823-2.004h2.476c1.216,0,1.823.653,2.273,1.531.878,1.417,2.115,1.777,4.344,1.777,3.826,0,4.839-1.508,4.839-3.218,0-2.049-1.53-3.646-5.717-3.646-1.08,0-1.936-.766-1.913-1.891l.045-1.823c.022-.878.248-1.282.833-1.891l4.929-4.951H4.096c-1.059,0-1.666-.607-1.666-1.666V1.979c0-1.058.607-1.665,1.666-1.665h16.137c1.058,0,1.666.607,1.666,1.665v3.062c0,.787-.203,1.372-.788,1.958l-5.177,4.951c5.356.923,7.652,4.366,7.652,8.575,0,5.717-4.164,9.16-11.591,9.16-6.324,0-10.488-2.386-10.983-7.404Z"/>
      <rect width="24.586" height="30" fill="none"/>
    </g>
  </g>
</svg>