<?xml version="1.0" encoding="UTF-8"?>
<svg id="b" data-name="Layer 2" xmlns="http://www.w3.org/2000/svg" width="24.191" height="30" viewBox="0 0 24.191 30">
  <g id="c" data-name="Layer 1">
    <g>
      <path d="m1.022,28.02v-2.408c0-11.951,15.35-9.588,15.35-15.731,0-1.937-1.463-3.264-4.254-3.264-2.228,0-4.254.787-4.479,3.376-.09.878-.607,1.53-1.711,1.53h-3.263c-1.104,0-1.666-.945-1.666-1.936C1,3.713,5.052.314,12.163.314c6.437,0,10.871,2.858,10.871,8.89,0,10.849-14.72,9.228-14.72,13.932v.676h13.212c1.058,0,1.665.607,1.665,1.665v2.543c0,1.081-.607,1.666-1.665,1.666H2.688c-1.081,0-1.666-.585-1.666-1.666Z"/>
      <rect width="24.191" height="30" fill="none"/>
    </g>
  </g>
</svg>