<?xml version="1.0" encoding="UTF-8"?>
<svg id="b" data-name="Layer 2" xmlns="http://www.w3.org/2000/svg" width="26.093" height="30" viewBox="0 0 26.093 30">
  <g id="c" data-name="Layer 1">
    <g>
      <path d="m1,27.738V2.238c0-1.058.607-1.643,1.665-1.643h3.961c1.081,0,1.666.585,1.666,1.643v10.421L16.012,1.608c.518-.698,1.125-1.013,2.003-1.013h4.749c1.396,0,1.846.945.99,2.025l-8.282,10.871,9.25,13.909c.766,1.103.315,2.003-1.058,2.003h-4.209c-.855,0-1.508-.315-2.003-1.058l-6.189-9.363-2.971,3.916v4.839c0,1.081-.585,1.666-1.666,1.666h-3.961c-1.058,0-1.665-.585-1.665-1.666Z"/>
      <rect width="26.093" height="30" fill="none"/>
    </g>
  </g>
</svg>