<?xml version="1.0" encoding="UTF-8"?>
<svg id="b" data-name="Layer 2" xmlns="http://www.w3.org/2000/svg" width="24.034" height="30" viewBox="0 0 24.034 30">
  <g id="c" data-name="Layer 1">
    <g>
      <path d="m2.913,28.842c-1.193-.428-1.62-1.081-1.62-2.206v-2.453c0-1.171.652-1.823,1.755-1.644,1.373.226,3.331.923,7.742.923,3.354.045,5.222-.045,5.222-2.858,0-1.44-.63-2.386-2.858-2.655l-4.276-.54c-5.086-.653-7.877-3.286-7.877-8.688C1,3.387,3.791.033,12.275.033c3.895,0,6.167.72,7.293,1.08,1.17.36,1.575,1.08,1.575,2.16v2.521c0,1.125-.63,1.867-1.688,1.643-1.395-.271-3.735-.9-6.909-.9-4.142,0-4.546.968-4.546,2.386-.022,1.44.495,2.139,2.993,2.476l4.096.54c5.177.653,7.945,3.286,7.945,8.688,0,5.808-3.264,9.341-12.267,9.341-4.006,0-6.864-.766-7.854-1.125Z"/>
      <rect width="24.034" height="30" fill="none"/>
    </g>
  </g>
</svg>