<?xml version="1.0" encoding="UTF-8"?>
<svg id="b" data-name="Layer 2" xmlns="http://www.w3.org/2000/svg" width="23.764" height="30" viewBox="0 0 23.764 30">
  <g id="c" data-name="Layer 1">
    <g>
      <path d="m1,27.738v-3.601c0-.833.18-1.396.742-2.071L14.459,6.987H3.048c-1.058,0-1.643-.585-1.643-1.643v-3.106c0-1.058.585-1.643,1.643-1.643h17.601c1.058,0,1.665.585,1.665,1.643v3.624c0,.832-.202,1.396-.765,2.048l-12.717,15.102h12.267c1.058,0,1.665.586,1.665,1.644v3.083c0,1.081-.607,1.666-1.665,1.666H2.643c-1.058,0-1.643-.585-1.643-1.666Z"/>
      <rect width="23.764" height="30" fill="none"/>
    </g>
  </g>
</svg>