<?xml version="1.0" encoding="UTF-8"?>
<svg id="b" data-name="Layer 2" xmlns="http://www.w3.org/2000/svg" width="22.413" height="30" viewBox="0 0 22.413 30">
  <g id="c" data-name="Layer 1">
    <g>
      <path d="m1,25.848V4.151C1,1.969,2.373.596,4.556.596h15.147c1.058,0,1.665.585,1.665,1.643v3.106c0,1.058-.607,1.643-1.665,1.643h-10.646c-.495,0-.788.293-.788.788v3.961h11.366c1.058,0,1.665.585,1.665,1.643v3.084c0,1.08-.607,1.665-1.665,1.665h-11.366v4.097c0,.495.293.787.788.787h10.69c1.058,0,1.665.586,1.665,1.644v3.083c0,1.081-.607,1.666-1.665,1.666H4.556c-2.183,0-3.556-1.373-3.556-3.557Z"/>
      <rect width="22.413" height="30" fill="none"/>
    </g>
  </g>
</svg>