<?xml version="1.0" encoding="UTF-8"?>
<svg id="b" data-name="Layer 2" xmlns="http://www.w3.org/2000/svg" width="25.137" height="30" viewBox="0 0 25.137 30">
  <g id="c" data-name="Layer 1">
    <g>
      <path d="m1,27.738V2.238c0-1.058.607-1.643,1.665-1.643h3.984c.968,0,1.463.473,1.846,1.418l3.961,10.105h.225l3.962-10.105c.382-.945.877-1.418,1.845-1.418h3.984c1.058,0,1.665.585,1.665,1.643v25.5c0,1.081-.607,1.666-1.665,1.666h-3.084c-1.08,0-1.665-.585-1.665-1.666v-14.044h-.271l-2.138,6.234c-.36.99-.855,1.396-1.823,1.396h-1.823c-.99,0-1.485-.405-1.846-1.396l-2.138-6.234h-.271v14.044c0,1.081-.585,1.666-1.665,1.666h-3.084c-1.058,0-1.665-.585-1.665-1.666Z"/>
      <rect width="25.137" height="30" fill="none"/>
    </g>
  </g>
</svg>