<?xml version="1.0" encoding="UTF-8"?>
<svg id="b" data-name="Layer 2" xmlns="http://www.w3.org/2000/svg" width="22.706" height="30" viewBox="0 0 22.706 30">
  <g id="c" data-name="Layer 1">
    <g>
      <path d="m1,27.738v-3.083c0-1.058.585-1.644,1.665-1.644h5.041V6.987H2.665c-1.08,0-1.665-.585-1.665-1.643v-3.106c0-1.058.585-1.643,1.665-1.643h17.375c1.08,0,1.666.585,1.666,1.643v3.106c0,1.058-.586,1.643-1.666,1.643h-5.041v16.024h5.041c1.08,0,1.666.586,1.666,1.644v3.083c0,1.081-.586,1.666-1.666,1.666H2.665c-1.08,0-1.665-.585-1.665-1.666Z"/>
      <rect width="22.706" height="30" fill="none"/>
    </g>
  </g>
</svg>