<?xml version="1.0" encoding="UTF-8"?>
<svg id="b" data-name="Layer 2" xmlns="http://www.w3.org/2000/svg" width="26.402" height="30" viewBox="0 0 26.402 30">
  <g id="c" data-name="Layer 1">
    <g>
      <path d="m1.07,27.559L5.797,5.659C6.629,1.9,8.183.596,11.333.596h3.736c3.151,0,4.704,1.305,5.537,5.063l4.726,21.899c.271,1.17-.247,1.846-1.44,1.846h-4.006c-.99,0-1.62-.518-1.801-1.463l-.675-3.736h-8.418l-.675,3.736c-.18.945-.811,1.463-1.801,1.463H2.511c-1.193,0-1.711-.676-1.44-1.846Zm15.215-9.476l-1.711-9.34c-.271-1.418-.585-1.644-1.216-1.644h-.314c-.631,0-.945.226-1.216,1.644l-1.71,9.34h6.167Z"/>
      <rect width="26.402" height="30" fill="none"/>
    </g>
  </g>
</svg>