<?xml version="1.0" encoding="UTF-8"?>
<svg id="b" data-name="Layer 2" xmlns="http://www.w3.org/2000/svg" width="23.606" height="30" viewBox="0 0 23.606 30">
  <g id="c" data-name="Layer 1">
    <g>
      <path d="m15.337,27.738v-9.205h-7.067v9.205c0,1.081-.585,1.666-1.643,1.666h-3.983c-1.059,0-1.644-.585-1.644-1.666V2.238c0-1.058.585-1.643,1.644-1.643h3.983c1.058,0,1.643.585,1.643,1.643v9.903h7.067V2.238c0-1.058.585-1.643,1.643-1.643h3.984c1.058,0,1.643.585,1.643,1.643v25.5c0,1.081-.585,1.666-1.643,1.666h-3.984c-1.058,0-1.643-.585-1.643-1.666Z"/>
      <rect width="23.606" height="30" fill="none"/>
    </g>
  </g>
</svg>