<?xml version="1.0" encoding="UTF-8"?>
<svg id="b" data-name="Layer 2" xmlns="http://www.w3.org/2000/svg" width="25.227" height="30" viewBox="0 0 25.227 30">
  <g id="c" data-name="Layer 1">
    <g>
      <path d="m24.228,11.005c0,3.759-1.351,7.652-4.749,11.726l-4.951,5.965c-.586.697-1.373.99-2.296.99h-3.579c-1.71,0-2.272-1.058-1.058-2.431l5.312-6.145c-.607.112-1.26.18-2.003.18-6.189,0-9.903-4.523-9.903-10.33C1,4.86,4.917.314,12.704.314s11.456,4.546,11.523,10.69Zm-11.568,4.546c2.993,0,4.839-1.777,4.839-4.591s-1.846-4.569-4.839-4.569c-2.972,0-4.816,1.756-4.816,4.569s1.845,4.591,4.816,4.591Z"/>
      <rect width="25.227" height="30" fill="none"/>
    </g>
  </g>
</svg>