<?xml version="1.0" encoding="UTF-8"?>
<svg id="b" data-name="Layer 2" xmlns="http://www.w3.org/2000/svg" width="24.529" height="30" viewBox="0 0 24.529 30">
  <g id="c" data-name="Layer 1">
    <g>
      <path d="m1,27.738V4.151C1,1.969,2.396.596,4.579.596h8.237c8.125,0,10.713,3.69,10.713,10.646,0,6.819-2.588,10.623-10.713,10.623h-4.524v5.874c0,1.081-.607,1.666-1.665,1.666h-3.961c-1.059,0-1.666-.585-1.666-1.666Zm11.254-12.266c3.038,0,4.321-.968,4.321-4.231,0-3.331-1.283-4.254-4.321-4.254h-3.174c-.495,0-.788.293-.788.788v7.697h3.962Z"/>
      <rect width="24.529" height="30" fill="none"/>
    </g>
  </g>
</svg>