<?xml version="1.0" encoding="UTF-8"?>
<svg id="b" data-name="Layer 2" xmlns="http://www.w3.org/2000/svg" width="23.382" height="30" viewBox="0 0 23.382 30">
  <g id="c" data-name="Layer 1">
    <g>
      <path d="m14.009,28.121l-6.571-15.146v14.764c0,1.081-.608,1.666-1.666,1.666h-3.128c-1.058,0-1.644-.585-1.644-1.666V2.238c0-1.058.586-1.643,1.644-1.643h4.794c.923,0,1.575.405,1.936,1.26l6.571,15.17V2.238c0-1.058.608-1.643,1.666-1.643h3.128c1.059,0,1.644.585,1.644,1.643v25.5c0,1.081-.585,1.666-1.644,1.666h-4.794c-.945,0-1.575-.405-1.936-1.283Z"/>
      <rect width="23.382" height="30" fill="none"/>
    </g>
  </g>
</svg>