<?xml version="1.0" encoding="UTF-8"?>
<svg id="b" data-name="Layer 2" xmlns="http://www.w3.org/2000/svg" width="25.093" height="30" viewBox="0 0 25.093 30">
  <g id="c" data-name="Layer 1">
    <g>
      <path d="m1,14.888C1,4.872,3.386.033,14.145.033c4.051,0,8.35.697,8.35,3.443v1.665c0,1.104-.63,1.644-1.732,1.553-.811-.067-3.039-.27-5.222-.27-6.595,0-7.495,2.048-7.495,8.463,0,7.225,1.396,8.688,6.369,8.688,2.566,0,3.331-.338,3.331-2.634v-2.971h-3.668c-1.058,0-1.666-.585-1.666-1.688v-2.138c0-1.103.608-1.688,1.666-1.688h8.372c1.058,0,1.644.586,1.644,1.644v9.993c0,3.804-3.422,5.874-10.196,5.874C3.544,29.967,1,25.263,1,14.888Z"/>
      <rect width="25.093" height="30" fill="none"/>
    </g>
  </g>
</svg>