<?xml version="1.0" encoding="UTF-8"?>
<svg id="b" data-name="Layer 2" xmlns="http://www.w3.org/2000/svg" width="22.481" height="30" viewBox="0 0 22.481 30">
  <g id="c" data-name="Layer 1">
    <g>
      <path d="m1,27.738V4.151C1,1.969,2.396.596,4.557.596h15.259c1.081,0,1.666.585,1.666,1.643v3.106c0,1.058-.585,1.643-1.666,1.643h-10.758c-.495,0-.788.293-.788.788v5.986h10.533c1.059,0,1.644.607,1.644,1.666v3.083c0,1.058-.585,1.666-1.644,1.666h-10.533v7.562c0,1.081-.585,1.666-1.643,1.666h-3.961c-1.081,0-1.666-.585-1.666-1.666Z"/>
      <rect width="22.481" height="30" fill="none"/>
    </g>
  </g>
</svg>