<?xml version="1.0" encoding="UTF-8"?>
<svg id="b" data-name="Layer 2" xmlns="http://www.w3.org/2000/svg" width="26.403" height="30" viewBox="0 0 26.403 30">
  <g id="c" data-name="Layer 1">
    <g>
      <path d="m5.796,24.34L1.07,2.419c-.27-1.148.248-1.823,1.418-1.823h4.029c.99,0,1.62.518,1.8,1.463l3.512,19.198c.27,1.418.585,1.643,1.215,1.643h.315c.63,0,.945-.225,1.215-1.643l3.512-19.198c.18-.945.81-1.463,1.801-1.463h4.028c1.17,0,1.687.675,1.418,1.823l-4.727,21.921c-.833,3.759-2.386,5.064-5.537,5.064h-3.735c-3.151,0-4.704-1.306-5.537-5.064Z"/>
      <rect width="26.403" height="30" fill="none"/>
    </g>
  </g>
</svg>