<?xml version="1.0" encoding="UTF-8"?>
<svg id="b" data-name="Layer 2" xmlns="http://www.w3.org/2000/svg" width="23.831" height="30" viewBox="0 0 23.831 30">
  <g id="c" data-name="Layer 1">
    <g>
      <path d="m2.643,11.376c-1.058,0-1.643-.585-1.643-1.665v-2.836c0-1.058.585-1.666,1.643-1.666,3.196,0,5.199-1.058,6.707-3.466.495-.787,1.08-1.147,1.98-1.147h4.052c1.058,0,1.643.585,1.643,1.643v21.292h4.164c1.058,0,1.643.607,1.643,1.665v2.543c0,1.081-.585,1.666-1.643,1.666H2.868c-1.058,0-1.644-.585-1.644-1.666v-2.543c0-1.058.586-1.665,1.644-1.665h7.135V7.686c-1.104,2.745-3.017,3.69-7.36,3.69Z"/>
      <rect width="23.831" height="30" fill="none"/>
    </g>
  </g>
</svg>