<?xml version="1.0" encoding="UTF-8"?>
<svg id="b" data-name="Layer 2" xmlns="http://www.w3.org/2000/svg" width="24.744" height="30" viewBox="0 0 24.744 30">
  <g id="c" data-name="Layer 1">
    <g>
      <path d="m1.012,22.281c-.112-1.216.562-2.004,1.823-2.004h2.476c1.216,0,1.846.653,2.273,1.531.878,1.417,2.273,1.777,4.568,1.777,3.579,0,4.771-1.013,4.771-3.421,0-2.498-1.372-3.421-4.479-3.421h-6.527c-2.34,0-3.646-1.553-3.443-3.871l.878-9.723c.203-1.868,1.306-2.836,3.219-2.836h12.896c1.058,0,1.665.607,1.665,1.665v2.521c0,1.059-.607,1.666-1.665,1.666h-9.318c-.878,0-1.08.202-1.17,1.08l-.338,3.669h5.784c5.694,0,9.318,2.881,9.318,9.025,0,6.685-4.231,9.745-11.546,9.745-6.257,0-10.669-2.341-11.187-7.404Z"/>
      <rect width="24.744" height="30" fill="none"/>
    </g>
  </g>
</svg>