<?xml version="1.0" encoding="UTF-8"?>
<svg id="b" data-name="Layer 2" xmlns="http://www.w3.org/2000/svg" width="24.911" height="30" viewBox="0 0 24.911 30">
  <g id="c" data-name="Layer 1">
    <g>
      <path d="m1,17.272v-4.591C1,4.939,4.668.033,12.456.033s11.455,4.906,11.455,12.648v4.591c0,7.766-3.668,12.694-11.455,12.694S1,25.038,1,17.272Zm7.044,2.094l6.279-12.153c-.54-.203-1.17-.293-1.867-.293-3.264,0-4.659,2.003-4.659,6.392v3.309c0,1.035.09,1.958.247,2.746Zm4.412,3.691c3.263,0,4.658-2.071,4.658-6.437v-3.309c0-1.013-.067-1.913-.225-2.678l-6.279,12.131c.54.202,1.147.293,1.846.293Z"/>
      <rect width="24.911" height="30" fill="none"/>
    </g>
  </g>
</svg>